<svg width="170" height="170" viewBox="0 0 170 170" fill="none" xmlns="http://www.w3.org/2000/svg"><ellipse cx="84.991" cy="84.785" rx="53.862" ry="54" fill="#fff"/><path d="M84.991 165.059c0 2.729 2.214 4.956 4.938 4.797a84.65 84.65 0 0 0 42.506-14.41 84.96 84.96 0 0 0 31.196-38.679 85.204 85.204 0 0 0 4.266-49.558 85.06 85.06 0 0 0-24.126-43.465A84.705 84.705 0 0 0 99.516 1.257a84.587 84.587 0 0 0-49.23 6.19 84.85 84.85 0 0 0-37.344 32.75A85.159 85.159 0 0 0 .223 83.36c-.052 2.722 2.253 4.843 4.974 4.737 2.72-.105 4.821-2.397 4.894-5.117a75.258 75.258 0 0 1 11.227-37.575 74.986 74.986 0 0 1 33.003-28.942 74.753 74.753 0 0 1 43.506-5.47 74.854 74.854 0 0 1 39.11 19.873 75.162 75.162 0 0 1 21.321 38.412 75.29 75.29 0 0 1-3.77 43.796 75.078 75.078 0 0 1-27.569 34.182 74.8 74.8 0 0 1-36.99 12.699c-2.723.18-4.938 2.375-4.938 5.104z" fill="#F5AC40"/><path d="M84.991 165.059c0 2.729 2.214 4.956 4.938 4.797a84.65 84.65 0 0 0 42.506-14.41 84.96 84.96 0 0 0 31.196-38.679 85.204 85.204 0 0 0 4.266-49.558 85.06 85.06 0 0 0-24.126-43.465A84.705 84.705 0 0 0 99.516 1.257a84.587 84.587 0 0 0-49.23 6.19 84.85 84.85 0 0 0-37.344 32.75A85.159 85.159 0 0 0 .223 83.36c-.052 2.722 2.253 4.843 4.974 4.737 2.72-.105 4.821-2.397 4.894-5.117a75.258 75.258 0 0 1 11.227-37.575 74.986 74.986 0 0 1 33.003-28.942 74.753 74.753 0 0 1 43.506-5.47 74.854 74.854 0 0 1 39.11 19.873 75.162 75.162 0 0 1 21.321 38.412 75.29 75.29 0 0 1-3.77 43.796 75.078 75.078 0 0 1-27.569 34.182 74.8 74.8 0 0 1-36.99 12.699c-2.723.18-4.938 2.375-4.938 5.104z" fill="url(#a)"/><path d="M102.617 81.001c2.748 1.523 2.748 5.475 0 6.998l-22.909 12.695c-2.666 1.478-5.939-.45-5.939-3.498V71.804c0-3.048 3.273-4.976 5.94-3.498L102.616 81z" fill="#000"/><defs><linearGradient id="a" x1="84.991" y1="-20.463" x2="84.991" y2="206.204" gradientUnits="userSpaceOnUse"><stop stop-color="#F8D07D"/><stop offset=".608" stop-color="#F8D07D" stop-opacity=".32"/></linearGradient></defs></svg>