<svg width="39" height="40" viewBox="0 0 39 40" fill="none" xmlns="http://www.w3.org/2000/svg"><path d="M38 14.667h-5.334a.667.667 0 0 0-.666.666v18c0 .093.02.186.057.27l2.667 6a.666.666 0 0 0 1.219 0l2.666-6a.668.668 0 0 0 .057-.27v-18a.667.667 0 0 0-.666-.666zM37.333 16v2.667h-4V16h4zm-3.64 18h3.28l-.592 1.333h-2.096L33.693 34zm-.36-1.334V20h1.334v12.666h-1.334zm2.667 0V20h1.333v12.666H36zm-1.122 4h.91l-.455 1.026-.455-1.026z" fill="#F5AC40"/><path d="M38 14.667h-5.334a.667.667 0 0 0-.666.666v18c0 .093.02.186.057.27l2.667 6a.666.666 0 0 0 1.219 0l2.666-6a.668.668 0 0 0 .057-.27v-18a.667.667 0 0 0-.666-.666zM37.333 16v2.667h-4V16h4zm-3.64 18h3.28l-.592 1.333h-2.096L33.693 34zm-.36-1.334V20h1.334v12.666h-1.334zm2.667 0V20h1.333v12.666H36zm-1.122 4h.91l-.455 1.026-.455-1.026z" fill="url(#a)"/><path d="M23.805.195A.667.667 0 0 0 23.333 0h-20A3.337 3.337 0 0 0 0 3.333v33.334A3.337 3.337 0 0 0 3.333 40h24a3.337 3.337 0 0 0 3.334-3.334V7.334a.667.667 0 0 0-.196-.471L23.805.195zM24 2.276l4.39 4.39h-3.724A.667.667 0 0 1 24 6V2.276zm3.333 36.39h-24a2 2 0 0 1-2-2V3.334a2 2 0 0 1 2-2h19.334V6a2 2 0 0 0 2 2h4.666v28.666a2 2 0 0 1-2 2z" fill="#F5AC40"/><path d="M23.805.195A.667.667 0 0 0 23.333 0h-20A3.337 3.337 0 0 0 0 3.333v33.334A3.337 3.337 0 0 0 3.333 40h24a3.337 3.337 0 0 0 3.334-3.334V7.334a.667.667 0 0 0-.196-.471L23.805.195zM24 2.276l4.39 4.39h-3.724A.667.667 0 0 1 24 6V2.276zm3.333 36.39h-24a2 2 0 0 1-2-2V3.334a2 2 0 0 1 2-2h19.334V6a2 2 0 0 0 2 2h4.666v28.666a2 2 0 0 1-2 2z" fill="url(#b)"/><path d="M11.445 16.831l.993-.993-.943-.943-.993.994a3.314 3.314 0 0 0-1.169-.49V14H8v1.4a3.313 3.313 0 0 0-1.169.489l-.993-.993-.943.942.994.994A3.307 3.307 0 0 0 5.4 18H4v1.333h1.4c.086.418.252.814.488 1.169l-.993.993.942.943.994-.993A3.31 3.31 0 0 0 8 21.933v1.4h1.333v-1.4a3.314 3.314 0 0 0 1.169-.488l.993.994.943-.943-.993-.993c.236-.355.402-.752.488-1.17h1.4V18h-1.4a3.307 3.307 0 0 0-.488-1.169zm-2.778 3.836a2 2 0 1 1 0-4 2 2 0 0 1 0 4z" fill="#F5AC40"/><path d="M11.445 16.831l.993-.993-.943-.943-.993.994a3.314 3.314 0 0 0-1.169-.49V14H8v1.4a3.313 3.313 0 0 0-1.169.489l-.993-.993-.943.942.994.994A3.307 3.307 0 0 0 5.4 18H4v1.333h1.4c.086.418.252.814.488 1.169l-.993.993.942.943.994-.993A3.31 3.31 0 0 0 8 21.933v1.4h1.333v-1.4a3.314 3.314 0 0 0 1.169-.488l.993.994.943-.943-.993-.993c.236-.355.402-.752.488-1.17h1.4V18h-1.4a3.307 3.307 0 0 0-.488-1.169zm-2.778 3.836a2 2 0 1 1 0-4 2 2 0 0 1 0 4z" fill="url(#c)"/><path d="M9.333 18H8v1.333h1.333V18z" fill="#F5AC40"/><path d="M9.333 18H8v1.333h1.333V18z" fill="url(#d)"/><path d="M18.667 12v-1.333H16a.667.667 0 0 0-.471.195l-2.667 2.667.943.942L16.275 12h2.392z" fill="#F5AC40"/><path d="M18.667 12v-1.333H16a.667.667 0 0 0-.471.195l-2.667 2.667.943.942L16.275 12h2.392z" fill="url(#e)"/><path d="M25.333 10.667h-4V12h4v-1.333z" fill="#F5AC40"/><path d="M25.333 10.667h-4V12h4v-1.333z" fill="url(#f)"/><path d="M25.333 13.333h-4v1.334h4v-1.334z" fill="#F5AC40"/><path d="M25.333 13.333h-4v1.334h4v-1.334z" fill="url(#g)"/><path d="M9.333 26H8v4a.667.667 0 0 0 .667.666h4v-1.333H9.333V26z" fill="#F5AC40"/><path d="M9.333 26H8v4a.667.667 0 0 0 .667.666h4v-1.333H9.333V26z" fill="url(#h)"/><path d="M16.667 29.333h-1.334v1.334h1.334v-1.334z" fill="#F5AC40"/><path d="M16.667 29.333h-1.334v1.334h1.334v-1.334z" fill="url(#i)"/><path d="M20.667 29.333H18v1.334h2.667v-1.334z" fill="#F5AC40"/><path d="M20.667 29.333H18v1.334h2.667v-1.334z" fill="url(#j)"/><path d="M20.667 32h-5.334v1.333h5.334V32z" fill="#F5AC40"/><path d="M20.667 32h-5.334v1.333h5.334V32z" fill="url(#k)"/><path d="M5.333 4H4v1.333h1.333V4z" fill="#F5AC40"/><path d="M5.333 4H4v1.333h1.333V4z" fill="url(#l)"/><path d="M9.333 4H6.667v1.333h2.666V4z" fill="#F5AC40"/><path d="M9.333 4H6.667v1.333h2.666V4z" fill="url(#m)"/><path d="M9.333 6.667H4V8h5.333V6.667z" fill="#F5AC40"/><path d="M9.333 6.667H4V8h5.333V6.667z" fill="url(#n)"/><path d="M16.667 24h2v-1.334h-1.724l-1.805-1.804-.943.943 2 2a.667.667 0 0 0 .472.195z" fill="#F5AC40"/><path d="M16.667 24h2v-1.334h-1.724l-1.805-1.804-.943.943 2 2a.667.667 0 0 0 .472.195z" fill="url(#o)"/><path d="M25.333 22.667h-4V24h4v-1.333z" fill="#F5AC40"/><path d="M25.333 22.667h-4V24h4v-1.333z" fill="url(#p)"/><path d="M25.333 25.333h-4v1.334h4v-1.334z" fill="#F5AC40"/><path d="M25.333 25.333h-4v1.334h4v-1.334z" fill="url(#q)"/><defs><linearGradient id="a" x1="35.333" y1="11.617" x2="35.333" y2="35.609" gradientUnits="userSpaceOnUse"><stop stop-color="#F8D07D"/><stop offset="1" stop-color="#F5AC40"/></linearGradient><linearGradient id="b" x1="15.333" y1="-4.815" x2="15.333" y2="33.066" gradientUnits="userSpaceOnUse"><stop stop-color="#F8D07D"/><stop offset="1" stop-color="#F5AC40"/></linearGradient><linearGradient id="c" x1="8.667" y1="12.877" x2="8.667" y2="21.715" gradientUnits="userSpaceOnUse"><stop stop-color="#F8D07D"/><stop offset="1" stop-color="#F5AC40"/></linearGradient><linearGradient id="d" x1="8.667" y1="17.839" x2="8.667" y2="19.102" gradientUnits="userSpaceOnUse"><stop stop-color="#F8D07D"/><stop offset="1" stop-color="#F5AC40"/></linearGradient><linearGradient id="e" x1="15.764" y1="10.209" x2="15.764" y2="13.812" gradientUnits="userSpaceOnUse"><stop stop-color="#F8D07D"/><stop offset="1" stop-color="#F5AC40"/></linearGradient><linearGradient id="f" x1="23.333" y1="10.506" x2="23.333" y2="11.769" gradientUnits="userSpaceOnUse"><stop stop-color="#F8D07D"/><stop offset="1" stop-color="#F5AC40"/></linearGradient><linearGradient id="g" x1="23.333" y1="13.173" x2="23.333" y2="14.435" gradientUnits="userSpaceOnUse"><stop stop-color="#F8D07D"/><stop offset="1" stop-color="#F5AC40"/></linearGradient><linearGradient id="h" x1="10.333" y1="25.438" x2="10.333" y2="29.858" gradientUnits="userSpaceOnUse"><stop stop-color="#F8D07D"/><stop offset="1" stop-color="#F5AC40"/></linearGradient><linearGradient id="i" x1="16" y1="29.173" x2="16" y2="30.435" gradientUnits="userSpaceOnUse"><stop stop-color="#F8D07D"/><stop offset="1" stop-color="#F5AC40"/></linearGradient><linearGradient id="j" x1="19.333" y1="29.173" x2="19.333" y2="30.435" gradientUnits="userSpaceOnUse"><stop stop-color="#F8D07D"/><stop offset="1" stop-color="#F5AC40"/></linearGradient><linearGradient id="k" x1="18" y1="31.839" x2="18" y2="33.102" gradientUnits="userSpaceOnUse"><stop stop-color="#F8D07D"/><stop offset="1" stop-color="#F5AC40"/></linearGradient><linearGradient id="l" x1="4.667" y1="3.84" x2="4.667" y2="5.102" gradientUnits="userSpaceOnUse"><stop stop-color="#F8D07D"/><stop offset="1" stop-color="#F5AC40"/></linearGradient><linearGradient id="m" x1="8" y1="3.84" x2="8" y2="5.102" gradientUnits="userSpaceOnUse"><stop stop-color="#F8D07D"/><stop offset="1" stop-color="#F5AC40"/></linearGradient><linearGradient id="n" x1="6.667" y1="6.506" x2="6.667" y2="7.769" gradientUnits="userSpaceOnUse"><stop stop-color="#F8D07D"/><stop offset="1" stop-color="#F5AC40"/></linearGradient><linearGradient id="o" x1="16.431" y1="20.484" x2="16.431" y2="23.456" gradientUnits="userSpaceOnUse"><stop stop-color="#F8D07D"/><stop offset="1" stop-color="#F5AC40"/></linearGradient><linearGradient id="p" x1="23.333" y1="22.506" x2="23.333" y2="23.769" gradientUnits="userSpaceOnUse"><stop stop-color="#F8D07D"/><stop offset="1" stop-color="#F5AC40"/></linearGradient><linearGradient id="q" x1="23.333" y1="25.173" x2="23.333" y2="26.435" gradientUnits="userSpaceOnUse"><stop stop-color="#F8D07D"/><stop offset="1" stop-color="#F5AC40"/></linearGradient></defs></svg>