<svg width="40" height="40" viewBox="0 0 40 40" fill="none" xmlns="http://www.w3.org/2000/svg"><path d="M2.043 40h27.58a2.046 2.046 0 0 0 2.044-2.043v-8.79a.834.834 0 0 0-1.667 0v8.79c0 .206-.17.376-.377.376H2.043a.378.378 0 0 1-.376-.376V3.71c0-.207.17-.377.376-.377h3.11A2.495 2.495 0 0 0 7.5 5h16.667a2.495 2.495 0 0 0 2.346-1.667h3.11c.207 0 .377.17.377.377v6.398a.834.834 0 0 0 1.667 0V3.71a2.046 2.046 0 0 0-2.044-2.043h-3.11A2.495 2.495 0 0 0 24.167 0H7.5a2.495 2.495 0 0 0-2.347 1.667h-3.11A2.046 2.046 0 0 0 0 3.71v34.248C0 39.083.917 40 2.043 40zM7.5 1.667h16.667c.46 0 .833.375.833.833a.835.835 0 0 1-.833.833H7.5a.835.835 0 0 1-.833-.833c0-.458.373-.833.833-.833z" fill="#F5AC40"/><path d="M2.043 40h27.58a2.046 2.046 0 0 0 2.044-2.043v-8.79a.834.834 0 0 0-1.667 0v8.79c0 .206-.17.376-.377.376H2.043a.378.378 0 0 1-.376-.376V3.71c0-.207.17-.377.376-.377h3.11A2.495 2.495 0 0 0 7.5 5h16.667a2.495 2.495 0 0 0 2.346-1.667h3.11c.207 0 .377.17.377.377v6.398a.834.834 0 0 0 1.667 0V3.71a2.046 2.046 0 0 0-2.044-2.043h-3.11A2.495 2.495 0 0 0 24.167 0H7.5a2.495 2.495 0 0 0-2.347 1.667h-3.11A2.046 2.046 0 0 0 0 3.71v34.248C0 39.083.917 40 2.043 40zM7.5 1.667h16.667c.46 0 .833.375.833.833a.835.835 0 0 1-.833.833H7.5a.835.835 0 0 1-.833-.833c0-.458.373-.833.833-.833z" fill="url(#a)"/><path d="M25 12.5a.834.834 0 0 0-.833-.833H7.5a.834.834 0 0 0 0 1.666h16.667c.46 0 .833-.373.833-.833z" fill="#F5AC40"/><path d="M25 12.5a.834.834 0 0 0-.833-.833H7.5a.834.834 0 0 0 0 1.666h16.667c.46 0 .833-.373.833-.833z" fill="url(#b)"/><path d="M20.477 20.833a.834.834 0 0 0-.834-.833H7.5a.834.834 0 0 0 0 1.667h12.143a.833.833 0 0 0 .834-.834z" fill="#F5AC40"/><path d="M20.477 20.833a.834.834 0 0 0-.834-.833H7.5a.834.834 0 0 0 0 1.667h12.143a.833.833 0 0 0 .834-.834z" fill="url(#c)"/><path d="M7.5 28.333A.834.834 0 0 0 7.5 30h8.333a.834.834 0 0 0 0-1.667H7.5z" fill="#F5AC40"/><path d="M7.5 28.333A.834.834 0 0 0 7.5 30h8.333a.834.834 0 0 0 0-1.667H7.5z" fill="url(#d)"/><path d="M22.5 29.167c.073 0 .148-.01.222-.03l3.863-1.065a.827.827 0 0 0 .368-.215l12.224-12.225a2.818 2.818 0 0 0 0-3.977c-1.062-1.062-2.915-1.062-3.977 0L22.977 23.88a.84.84 0 0 0-.214.368l-1.065 3.862a.832.832 0 0 0 .214.81c.156.16.37.247.588.247zm1.81-4.264l12.068-12.068a1.172 1.172 0 0 1 1.62 0 1.147 1.147 0 0 1 0 1.62L25.93 26.523l-2.235.617.615-2.237z" fill="#F5AC40"/><path d="M22.5 29.167c.073 0 .148-.01.222-.03l3.863-1.065a.827.827 0 0 0 .368-.215l12.224-12.225a2.818 2.818 0 0 0 0-3.977c-1.062-1.062-2.915-1.062-3.977 0L22.977 23.88a.84.84 0 0 0-.214.368l-1.065 3.862a.832.832 0 0 0 .214.81c.156.16.37.247.588.247zm1.81-4.264l12.068-12.068a1.172 1.172 0 0 1 1.62 0 1.147 1.147 0 0 1 0 1.62L25.93 26.523l-2.235.617.615-2.237z" fill="url(#e)"/><defs><linearGradient id="a" x1="15.833" y1="-4.815" x2="15.833" y2="33.067" gradientUnits="userSpaceOnUse"><stop stop-color="#F8D07D"/><stop offset="1" stop-color="#F5AC40"/></linearGradient><linearGradient id="b" x1="15.833" y1="11.466" x2="15.833" y2="13.044" gradientUnits="userSpaceOnUse"><stop stop-color="#F8D07D"/><stop offset="1" stop-color="#F5AC40"/></linearGradient><linearGradient id="c" x1="13.572" y1="19.799" x2="13.572" y2="21.378" gradientUnits="userSpaceOnUse"><stop stop-color="#F8D07D"/><stop offset="1" stop-color="#F5AC40"/></linearGradient><linearGradient id="d" x1="11.667" y1="28.133" x2="11.667" y2="29.711" gradientUnits="userSpaceOnUse"><stop stop-color="#F8D07D"/><stop offset="1" stop-color="#F5AC40"/></linearGradient><linearGradient id="e" x1="30.833" y1="8.655" x2="30.833" y2="25.993" gradientUnits="userSpaceOnUse"><stop stop-color="#F8D07D"/><stop offset="1" stop-color="#F5AC40"/></linearGradient></defs></svg>