<svg width="39" height="40" viewBox="0 0 39 40" fill="none" xmlns="http://www.w3.org/2000/svg"><path d="M23.226 5.968H10.323v1.29h12.903v-1.29z" fill="#F5AC40"/><path d="M23.226 5.968H10.323v1.29h12.903v-1.29z" fill="url(#a)"/><path d="M26.452 12.42H7.097v1.29h19.355v-1.29z" fill="#F5AC40"/><path d="M26.452 12.42H7.097v1.29h19.355v-1.29z" fill="url(#b)"/><path d="M26.452 15.645H7.097v1.29h19.355v-1.29z" fill="#F5AC40"/><path d="M26.452 15.645H7.097v1.29h19.355v-1.29z" fill="url(#c)"/><path d="M26.452 18.871H7.097v1.29h19.355v-1.29z" fill="#F5AC40"/><path d="M26.452 18.871H7.097v1.29h19.355v-1.29z" fill="url(#d)"/><path d="M26.452 22.097H7.097v1.29h19.355v-1.29z" fill="#F5AC40"/><path d="M26.452 22.097H7.097v1.29h19.355v-1.29z" fill="url(#e)"/><path d="M26.452 25.323H7.097v1.29h19.355v-1.29z" fill="#F5AC40"/><path d="M26.452 25.323H7.097v1.29h19.355v-1.29z" fill="url(#f)"/><path d="M26.452 28.548h-3.226v1.29h3.226v-1.29z" fill="#F5AC40"/><path d="M26.452 28.548h-3.226v1.29h3.226v-1.29z" fill="url(#g)"/><path d="M5.484 40h27.42a5.48 5.48 0 0 0 5.483-5.484v-.645h-4.839V0H0v34.516A5.48 5.48 0 0 0 5.484 40v-1.29a4.185 4.185 0 0 1-4.194-4.194V1.29h30.968v32.581H9.678v.645a4.185 4.185 0 0 1-4.194 4.194V40zm5.451-4.839h26.13c-.323 2-2.065 3.549-4.13 3.549H9a5.357 5.357 0 0 0 1.935-3.549z" fill="#F5AC40"/><path d="M5.484 40h27.42a5.48 5.48 0 0 0 5.483-5.484v-.645h-4.839V0H0v34.516A5.48 5.48 0 0 0 5.484 40v-1.29a4.185 4.185 0 0 1-4.194-4.194V1.29h30.968v32.581H9.678v.645a4.185 4.185 0 0 1-4.194 4.194V40zm5.451-4.839h26.13c-.323 2-2.065 3.549-4.13 3.549H9a5.357 5.357 0 0 0 1.935-3.549z" fill="url(#h)"/><defs><linearGradient id="a" x1="16.774" y1="5.812" x2="16.774" y2="7.034" gradientUnits="userSpaceOnUse"><stop stop-color="#F8D07D"/><stop offset="1" stop-color="#F5AC40"/></linearGradient><linearGradient id="b" x1="16.774" y1="12.264" x2="16.774" y2="13.486" gradientUnits="userSpaceOnUse"><stop stop-color="#F8D07D"/><stop offset="1" stop-color="#F5AC40"/></linearGradient><linearGradient id="c" x1="16.774" y1="15.49" x2="16.774" y2="16.712" gradientUnits="userSpaceOnUse"><stop stop-color="#F8D07D"/><stop offset="1" stop-color="#F5AC40"/></linearGradient><linearGradient id="d" x1="16.774" y1="18.716" x2="16.774" y2="19.938" gradientUnits="userSpaceOnUse"><stop stop-color="#F8D07D"/><stop offset="1" stop-color="#F5AC40"/></linearGradient><linearGradient id="e" x1="16.774" y1="21.942" x2="16.774" y2="23.163" gradientUnits="userSpaceOnUse"><stop stop-color="#F8D07D"/><stop offset="1" stop-color="#F5AC40"/></linearGradient><linearGradient id="f" x1="16.774" y1="25.167" x2="16.774" y2="26.389" gradientUnits="userSpaceOnUse"><stop stop-color="#F8D07D"/><stop offset="1" stop-color="#F5AC40"/></linearGradient><linearGradient id="g" x1="24.839" y1="28.393" x2="24.839" y2="29.615" gradientUnits="userSpaceOnUse"><stop stop-color="#F8D07D"/><stop offset="1" stop-color="#F5AC40"/></linearGradient><linearGradient id="h" x1="19.194" y1="-4.815" x2="19.194" y2="33.067" gradientUnits="userSpaceOnUse"><stop stop-color="#F8D07D"/><stop offset="1" stop-color="#F5AC40"/></linearGradient></defs></svg>