<svg width="40" height="40" viewBox="0 0 40 40" fill="none" xmlns="http://www.w3.org/2000/svg"><path d="M16.425 0a.714.714 0 0 0-.706.608l-.672 4.53c-.705.236-1.39.519-2.056.851L9.314 3.261a.714.714 0 0 0-.931.07L3.33 8.383a.714.714 0 0 0-.07.929l2.725 3.674a15.7 15.7 0 0 0-.85 2.061l-4.525.67a.714.714 0 0 0-.611.708v7.141a.714.714 0 0 0 .608.706l4.533.673c.235.703.519 1.389.851 2.053l-2.731 3.68a.714.714 0 0 0 .07.93l5.052 5.053a.714.714 0 0 0 .931.067l3.671-2.723c.668.333 1.357.616 2.065.85l.664 4.487v.005l.005.034a.716.716 0 0 0 .815.61h6.924a.713.713 0 0 0 .823-.666l.664-4.475c.705-.235 1.39-.518 2.055-.85l3.677 2.728a.714.714 0 0 0 .932-.07l5.052-5.052a.714.714 0 0 0 .07-.929L34.005 27c.332-.666.616-1.352.85-2.058l4.526-.673a.714.714 0 0 0 .61-.703v-7.14a.714.714 0 0 0-.608-.71l-4.533-.672a15.68 15.68 0 0 0-.85-2.053l2.73-3.68a.714.714 0 0 0-.07-.928L31.61 3.33a.714.714 0 0 0-.932-.073L27.007 5.98a15.714 15.714 0 0 0-2.064-.851l-.67-4.525A.714.714 0 0 0 23.566 0h-7.14zm.617 1.428h5.908l.639 4.31a.715.715 0 0 0 .502.58c.93.278 1.829.648 2.683 1.108a.714.714 0 0 0 .765-.056l3.495-2.594 4.182 4.179-2.603 3.506a.714.714 0 0 0-.053.764c.459.852.83 1.747 1.107 2.673a.715.715 0 0 0 .578.502l4.318.639v5.91l-4.31.637a.713.713 0 0 0-.58.502c-.277.93-.648 1.83-1.107 2.684a.714.714 0 0 0 .053.764l2.597 3.498-4.182 4.179-3.504-2.6a.713.713 0 0 0-.764-.056 14.3 14.3 0 0 1-2.485 1.04v-6.192c2.557-1.485 4.284-4.246 4.284-7.41a8.57 8.57 0 0 0-4.675-7.62.713.713 0 0 0-1.038.633v6.583l-2.856 1.713-2.857-1.713V13a.713.713 0 0 0-1.037-.636 8.574 8.574 0 0 0-4.676 7.633c0 3.163 1.728 5.924 4.285 7.409v6.198a14.272 14.272 0 0 1-2.494-1.04.716.716 0 0 0-.764.056l-3.496 2.594-4.181-4.179 2.602-3.506a.714.714 0 0 0 .053-.765 14.283 14.283 0 0 1-1.107-2.672.715.715 0 0 0-.577-.502l-4.319-.64v-5.907l4.31-.64a.714.714 0 0 0 .58-.501c.278-.93.648-1.83 1.108-2.684a.714.714 0 0 0-.053-.764L4.776 8.955l4.181-4.18 3.504 2.6a.714.714 0 0 0 .764.056c.851-.458 1.75-.832 2.676-1.11a.714.714 0 0 0 .499-.577l.642-4.316zM15.71 14.595v5.4a.714.714 0 0 0 .346.612l3.57 2.142a.714.714 0 0 0 .737 0l3.57-2.142a.716.716 0 0 0 .347-.611v-5.392c1.671 1.337 2.854 3.2 2.856 5.392a7.13 7.13 0 0 1-7.141 7.141 7.13 7.13 0 0 1-7.142-7.141c0-2.195 1.184-4.062 2.857-5.4zm1.428 13.468a8.5 8.5 0 0 0 2.857.502 8.5 8.5 0 0 0 2.856-.502v10.5H17.14v-10.5z" fill="#F5AC40"/><path d="M16.425 0a.714.714 0 0 0-.706.608l-.672 4.53c-.705.236-1.39.519-2.056.851L9.314 3.261a.714.714 0 0 0-.931.07L3.33 8.383a.714.714 0 0 0-.07.929l2.725 3.674a15.7 15.7 0 0 0-.85 2.061l-4.525.67a.714.714 0 0 0-.611.708v7.141a.714.714 0 0 0 .608.706l4.533.673c.235.703.519 1.389.851 2.053l-2.731 3.68a.714.714 0 0 0 .07.93l5.052 5.053a.714.714 0 0 0 .931.067l3.671-2.723c.668.333 1.357.616 2.065.85l.664 4.487v.005l.005.034a.716.716 0 0 0 .815.61h6.924a.713.713 0 0 0 .823-.666l.664-4.475c.705-.235 1.39-.518 2.055-.85l3.677 2.728a.714.714 0 0 0 .932-.07l5.052-5.052a.714.714 0 0 0 .07-.929L34.005 27c.332-.666.616-1.352.85-2.058l4.526-.673a.714.714 0 0 0 .61-.703v-7.14a.714.714 0 0 0-.608-.71l-4.533-.672a15.68 15.68 0 0 0-.85-2.053l2.73-3.68a.714.714 0 0 0-.07-.928L31.61 3.33a.714.714 0 0 0-.932-.073L27.007 5.98a15.714 15.714 0 0 0-2.064-.851l-.67-4.525A.714.714 0 0 0 23.566 0h-7.14zm.617 1.428h5.908l.639 4.31a.715.715 0 0 0 .502.58c.93.278 1.829.648 2.683 1.108a.714.714 0 0 0 .765-.056l3.495-2.594 4.182 4.179-2.603 3.506a.714.714 0 0 0-.053.764c.459.852.83 1.747 1.107 2.673a.715.715 0 0 0 .578.502l4.318.639v5.91l-4.31.637a.713.713 0 0 0-.58.502c-.277.93-.648 1.83-1.107 2.684a.714.714 0 0 0 .053.764l2.597 3.498-4.182 4.179-3.504-2.6a.713.713 0 0 0-.764-.056 14.3 14.3 0 0 1-2.485 1.04v-6.192c2.557-1.485 4.284-4.246 4.284-7.41a8.57 8.57 0 0 0-4.675-7.62.713.713 0 0 0-1.038.633v6.583l-2.856 1.713-2.857-1.713V13a.713.713 0 0 0-1.037-.636 8.574 8.574 0 0 0-4.676 7.633c0 3.163 1.728 5.924 4.285 7.409v6.198a14.272 14.272 0 0 1-2.494-1.04.716.716 0 0 0-.764.056l-3.496 2.594-4.181-4.179 2.602-3.506a.714.714 0 0 0 .053-.765 14.283 14.283 0 0 1-1.107-2.672.715.715 0 0 0-.577-.502l-4.319-.64v-5.907l4.31-.64a.714.714 0 0 0 .58-.501c.278-.93.648-1.83 1.108-2.684a.714.714 0 0 0-.053-.764L4.776 8.955l4.181-4.18 3.504 2.6a.714.714 0 0 0 .764.056c.851-.458 1.75-.832 2.676-1.11a.714.714 0 0 0 .499-.577l.642-4.316zM15.71 14.595v5.4a.714.714 0 0 0 .346.612l3.57 2.142a.714.714 0 0 0 .737 0l3.57-2.142a.716.716 0 0 0 .347-.611v-5.392c1.671 1.337 2.854 3.2 2.856 5.392a7.13 7.13 0 0 1-7.141 7.141 7.13 7.13 0 0 1-7.142-7.141c0-2.195 1.184-4.062 2.857-5.4zm1.428 13.468a8.5 8.5 0 0 0 2.857.502 8.5 8.5 0 0 0 2.856-.502v10.5H17.14v-10.5z" fill="url(#a)"/><defs><linearGradient id="a" x1="19.996" y1="-4.815" x2="19.996" y2="33.067" gradientUnits="userSpaceOnUse"><stop stop-color="#F8D07D"/><stop offset="1" stop-color="#F5AC40"/></linearGradient></defs></svg>