<svg width="75" height="70" viewBox="0 0 75 70" fill="none" xmlns="http://www.w3.org/2000/svg"><path d="M18.266 46.39c.595 0 1.077-.46 1.077-1.026V43.11h2.37c.595 0 1.077-.46 1.077-1.026 0-.566-.482-1.025-1.077-1.025h-2.37v-2.256c0-.566-.482-1.026-1.077-1.026s-1.077.46-1.077 1.026v2.256h-2.37c-.595 0-1.077.459-1.077 1.025 0 .566.482 1.026 1.077 1.026h2.37v2.255c0 .567.482 1.026 1.077 1.026zm14.42 2.218c-.411 1.014.06 2.139 1.099 2.617.817.377 1.75.301 2.61-.472 2.762-2.488 5.564-5.01 8.32-7.499.544-.492.808-1.156.725-1.822-.084-.674-.512-1.268-1.175-1.63-1.3-.712-2.598-1.43-3.897-2.146.71-1.587 1.442-3.22 2.109-4.857a1.965 1.965 0 0 0-.236-1.906c-.825-1.136-2.407-1.202-3.473-.237-2.786 2.524-5.544 4.996-8.317 7.498-.539.485-.805 1.145-.73 1.81.076.658.477 1.241 1.102 1.601 1.322.76 2.654 1.475 3.975 2.194-.745 1.695-1.433 3.181-2.111 4.85zm2.685-.833c.57-1.292 1.132-2.591 1.724-3.926.214-.48.13-1.13-.54-1.496-1.538-.841-3.09-1.667-4.618-2.544-.109-.062-.106-.076-.005-.167 2.948-2.659 8.233-7.47 8.474-7.617.045.01.06.03.062.033-.753 1.849-1.59 3.685-2.397 5.5-.257.578-.041 1.18.536 1.498 1.53.84 3.054 1.687 4.584 2.524.084.045.096.137.04.187-2.93 2.645-8.22 7.488-8.49 7.62-.02-.007-.05-.026-.045-.038.213-.524.448-1.058.675-1.574zm24.974-4.666c.595 0 1.078-.46 1.078-1.026 0-.566-.483-1.025-1.078-1.025h-6.893c-.595 0-1.077.459-1.077 1.025 0 .566.482 1.026 1.077 1.026h6.894zm-10.01 15.222c0 .566.482 1.025 1.077 1.025h12.381c1.07 0 1.94-.828 1.94-1.846V23.9c0-1.017-.87-1.845-1.94-1.845h-52.42c-1.069 0-1.939.828-1.939 1.846V57.51c0 1.018.87 1.846 1.94 1.846h35.73c.594 0 1.077-.46 1.077-1.025 0-.567-.483-1.026-1.078-1.026H11.588v-33.2h51.989v33.201H51.41c-.595 0-1.077.46-1.077 1.026zm20.783-38.329c1.782 0 3.231-1.38 3.231-3.076V13.92c0-1.697-1.45-3.077-3.231-3.077h-4.423V7.814c0-1.319-1.127-2.392-2.513-2.392h-.503v-3.03C63.678 1.074 62.551 0 61.165 0h-5.947c-1.386 0-2.514 1.073-2.514 2.393v3.029h-.502c-1.386 0-2.514 1.073-2.514 2.392v3.03H25.476v-3.03c0-1.319-1.127-2.392-2.513-2.392h-.503v-3.03C22.46 1.074 21.333 0 19.947 0H14c-1.386 0-2.514 1.073-2.514 2.393v3.029h-.502c-1.386 0-2.514 1.073-2.514 2.392v3.03H4.048c-1.782 0-3.232 1.38-3.232 3.076v3.007c0 1.696 1.45 3.076 3.232 3.076h1.077v7.152c0 .566.482 1.026 1.077 1.026s1.077-.46 1.077-1.026v-7.152h60.606v41.405H7.28V31.257c0-.567-.482-1.026-1.077-1.026s-1.077.46-1.077 1.026v30.15H4.048c-1.782 0-3.232 1.38-3.232 3.077v2.44C.816 68.62 2.266 70 4.048 70h67.069c1.782 0 3.231-1.38 3.231-3.076v-2.44c0-1.696-1.45-3.076-3.231-3.076H70.04V20.003h1.077zM54.858 2.393c0-.189.162-.342.36-.342h5.947a.35.35 0 0 1 .359.342v3.029h-6.666v-3.03zm-3.015 5.421a.35.35 0 0 1 .359-.341H64.18a.35.35 0 0 1 .359.341v3.03H51.842v-3.03zM13.64 2.393a.35.35 0 0 1 .359-.342h5.947c.198 0 .36.153.36.342v3.029H13.64v-3.03zm-3.016 5.421a.35.35 0 0 1 .359-.341h11.979a.35.35 0 0 1 .359.341v3.03H10.625v-3.03zM71.117 63.46c.594 0 1.077.46 1.077 1.025v2.44c0 .565-.483 1.025-1.077 1.025H4.047c-.593 0-1.076-.46-1.076-1.025v-2.44c0-.565.483-1.025 1.077-1.025h67.069zM4.047 17.952c-.593 0-1.076-.46-1.076-1.025V13.92c0-.566.483-1.026 1.077-1.026h67.069c.594 0 1.077.46 1.077 1.026v3.007c0 .565-.483 1.025-1.077 1.025H4.047z" fill="#000"/></svg>