<svg width="71" height="72" viewBox="0 0 71 72" fill="none" xmlns="http://www.w3.org/2000/svg"><path d="M64.597 9.469h-5.789V4.734c0-2.61-2.077-4.734-4.63-4.734-2.555 0-4.632 2.123-4.632 4.734V9.47H21.758V4.734c0-2.61-2.077-4.734-4.63-4.734-2.555 0-4.632 2.123-4.632 4.734V9.47h-5.79c-3.191 0-5.788 2.655-5.788 5.918V65.1c0 3.263 2.597 5.918 5.789 5.918h57.89c3.193 0 5.79-2.655 5.79-5.918V15.386c0-3.263-2.597-5.918-5.79-5.918zM51.862 4.734c0-1.305 1.038-2.367 2.315-2.367s2.316 1.062 2.316 2.367v9.47c0 1.305-1.039 2.366-2.316 2.366s-2.316-1.061-2.316-2.367V4.734zm-37.05 0c0-1.305 1.038-2.367 2.315-2.367s2.316 1.062 2.316 2.367v9.47c0 1.305-1.039 2.366-2.316 2.366s-2.315-1.061-2.315-2.367V4.734zm-8.105 7.102h5.789v2.367c0 2.611 2.077 4.735 4.631 4.735 2.554 0 4.631-2.124 4.631-4.735v-2.367h27.788v2.367c0 2.611 2.077 4.735 4.631 4.735 2.554 0 4.631-2.124 4.631-4.735v-2.367h5.79c1.914 0 3.473 1.593 3.473 3.55v8.286H3.233v-8.285c0-1.958 1.559-3.55 3.474-3.55zm57.89 56.813H6.707c-1.915 0-3.474-1.593-3.474-3.55v-39.06h64.838V65.1c0 1.957-1.559 3.55-3.474 3.55z" fill="#000"/><path d="M36.81 18.938h-2.316v2.367h2.316v-2.367zm4.631 0h-2.315v2.367h2.315v-2.367zm-9.262 0h-2.316v2.367h2.316v-2.367zM18.285 31.957H7.865c-.64 0-1.158.53-1.158 1.184v10.653a1.17 1.17 0 0 0 1.157 1.183h10.42c.64 0 1.159-.53 1.159-1.183V33.14c0-.653-.52-1.183-1.158-1.183zM17.127 42.61H9.022v-8.285h8.105v8.285zm16.21-10.653h-10.42c-.64 0-1.159.53-1.159 1.184v10.653c0 .653.519 1.183 1.158 1.183h10.42c.64 0 1.158-.53 1.158-1.183V33.14a1.17 1.17 0 0 0-1.157-1.183zM32.179 42.61h-8.105v-8.285h8.105v8.285zm16.209-10.653h-10.42c-.64 0-1.158.53-1.158 1.184v10.653c0 .653.519 1.183 1.158 1.183h10.42c.64 0 1.158-.53 1.158-1.183V33.14c0-.653-.519-1.183-1.158-1.183zm-6.847 6.51l-2.415 2.47v-4.939l2.415 2.47zm-.778-4.142h4.83l-2.415 2.469-2.415-2.47zm2.415 5.816l2.415 2.469h-4.83l2.415-2.469zm1.637-1.674l2.415-2.469v4.938l-2.415-2.469zm18.625-6.51H53.02c-.64 0-1.158.53-1.158 1.184v10.653a1.17 1.17 0 0 0 1.157 1.183h10.42c.64 0 1.159-.53 1.159-1.183V33.14c0-.653-.519-1.183-1.158-1.183zM62.282 42.61h-8.105v-8.285h8.105v8.285zm-43.997 5.918H7.865c-.64 0-1.158.53-1.158 1.184v10.652c0 .654.518 1.184 1.157 1.184h10.42c.64 0 1.159-.53 1.159-1.184V49.712c0-.654-.52-1.184-1.158-1.184zm-1.158 10.653H9.022v-8.286h8.105v8.286zm16.21-10.653h-10.42c-.64 0-1.159.53-1.159 1.184v10.652c0 .654.519 1.184 1.158 1.184h10.42c.64 0 1.158-.53 1.158-1.184V49.712c0-.654-.518-1.184-1.157-1.184zm-1.158 10.653h-8.105v-8.286h8.105v8.286zm16.209-10.653h-10.42c-.64 0-1.158.53-1.158 1.184v10.652c0 .654.519 1.184 1.158 1.184h10.42c.64 0 1.158-.53 1.158-1.184V49.712c0-.654-.519-1.184-1.158-1.184zM47.23 59.181h-8.104v-8.286h8.104v8.286zm16.21-10.653H53.02c-.64 0-1.158.53-1.158 1.184v10.652c0 .654.518 1.184 1.157 1.184h10.42c.64 0 1.159-.53 1.159-1.184V49.712c0-.654-.519-1.184-1.158-1.184zm-1.158 10.653h-8.105v-8.286h8.105v8.286z" fill="#000"/></svg>