<svg xmlns="http://www.w3.org/2000/svg" width="71" height="72" viewBox="0 0 71 72"><path d="M64.598 9.469h-5.789V4.734c0-2.61-2.078-4.734-4.631-4.734-2.555 0-4.632 2.124-4.632 4.734v4.734H21.758V4.734c0-2.61-2.077-4.734-4.631-4.734-2.554 0-4.631 2.124-4.631 4.734v4.734H6.707c-3.192 0-5.789 2.655-5.789 5.918v49.712c0 3.263 2.597 5.918 5.789 5.918h57.891c3.191 0 5.789-2.655 5.789-5.918V15.387c0-3.263-2.598-5.918-5.789-5.918zM51.861 4.734c0-1.306 1.039-2.367 2.316-2.367 1.276 0 2.314 1.062 2.314 2.367v9.469c0 1.306-1.038 2.367-2.314 2.367-1.277 0-2.316-1.062-2.316-2.367V4.734zm-37.049 0c0-1.306 1.039-2.367 2.315-2.367 1.277 0 2.316 1.062 2.316 2.367v9.469c0 1.306-1.039 2.367-2.316 2.367s-2.315-1.062-2.315-2.367V4.734zm-8.105 7.102h5.789v2.367c0 2.611 2.077 4.735 4.631 4.735 2.554 0 4.631-2.124 4.631-4.735v-2.367h27.788v2.367c0 2.611 2.077 4.735 4.632 4.735 2.554 0 4.631-2.124 4.631-4.735v-2.367h5.789c1.914 0 3.473 1.593 3.473 3.551v8.286H3.233v-8.286c0-1.958 1.559-3.551 3.474-3.551zm57.891 56.813H6.707c-1.915 0-3.474-1.593-3.474-3.551V26.04H68.07v39.059c0 1.958-1.558 3.55-3.472 3.55zM36.811 18.938h-2.316v2.368h2.316v-2.368zm4.63 0h-2.316v2.368h2.316v-2.368zm-9.262 0h-2.316v2.368h2.316v-2.368zm-13.894 13.02H7.864c-.639 0-1.158.53-1.158 1.184v10.652c0 .654.519 1.184 1.158 1.184h10.42a1.17 1.17 0 0 0 1.158-1.184V33.141a1.17 1.17 0 0 0-1.157-1.183zm-1.158 10.651H9.022v-8.285h8.104v8.285zm16.209-10.651h-10.42c-.639 0-1.158.53-1.158 1.184v10.652c0 .654.519 1.184 1.158 1.184h10.42a1.17 1.17 0 0 0 1.158-1.184V33.141a1.17 1.17 0 0 0-1.158-1.183zm-1.157 10.651h-8.104v-8.285h8.104v8.285zm16.21-10.651H37.968c-.64 0-1.157.53-1.157 1.184v10.652c0 .654.518 1.184 1.157 1.184h10.421a1.17 1.17 0 0 0 1.157-1.184V33.141c0-.653-.519-1.183-1.157-1.183zm-6.848 6.509l-2.416 2.47v-4.938l2.416 2.468zm-.778-4.142h4.831l-2.416 2.469-2.415-2.469zm2.415 5.816l2.416 2.469h-4.831l2.415-2.469zm1.637-1.674l2.415-2.468v4.938l-2.415-2.47zm18.624-6.509H53.02c-.639 0-1.158.53-1.158 1.184v10.652c0 .654.52 1.184 1.158 1.184h10.42a1.17 1.17 0 0 0 1.158-1.184V33.141c0-.653-.519-1.183-1.159-1.183zm-1.157 10.651h-8.104v-8.285h8.104v8.285zm-43.997 5.919H7.864c-.639 0-1.158.53-1.158 1.184v10.652c0 .653.519 1.184 1.158 1.184h10.42c.639 0 1.158-.53 1.158-1.184V49.712c0-.653-.518-1.184-1.157-1.184zm-1.158 10.653H9.022v-8.285h8.104v8.285zm16.209-10.653h-10.42c-.639 0-1.158.53-1.158 1.184v10.652c0 .653.519 1.184 1.158 1.184h10.42c.639 0 1.158-.53 1.158-1.184V49.712a1.17 1.17 0 0 0-1.158-1.184zm-1.157 10.653h-8.104v-8.285h8.104v8.285zm16.21-10.653H37.968c-.64 0-1.157.53-1.157 1.184v10.652c0 .653.518 1.184 1.157 1.184h10.421c.639 0 1.157-.53 1.157-1.184V49.712c0-.653-.519-1.184-1.157-1.184zM47.23 59.181h-8.105v-8.285h8.105v8.285zm16.209-10.653H53.02c-.639 0-1.158.53-1.158 1.184v10.652c0 .653.52 1.184 1.158 1.184h10.42c.64 0 1.158-.53 1.158-1.184V49.712c0-.653-.519-1.184-1.159-1.184zm-1.157 10.653h-8.104v-8.285h8.104v8.285z"/></svg>