<svg width="70" height="70" viewBox="0 0 70 70" fill="none" xmlns="http://www.w3.org/2000/svg"><path d="M35 70C15.7 70 0 54.3 0 35 0 23.94 5.064 13.764 13.892 7.08a.794.794 0 0 1 1.114.154c.265.35.197.85-.155 1.114C6.424 14.727 1.591 24.442 1.591 35 1.59 53.423 16.579 68.41 35 68.41S68.41 53.422 68.41 35C68.41 16.577 53.42 1.59 35 1.59a33.345 33.345 0 0 0-17.118 4.715.795.795 0 1 1-.818-1.367A34.973 34.973 0 0 1 35 0c19.3 0 35 15.7 35 35S54.3 70 35 70z" fill="#000"/><path d="M35 65.227C18.332 65.227 4.773 51.668 4.773 35S18.333 4.773 35 4.773c16.668 0 30.228 13.56 30.228 30.227 0 6.586-2.083 12.847-6.02 18.105a.796.796 0 0 1-1.275-.953C61.665 47.169 63.637 41.24 63.637 35 63.637 19.21 50.79 6.364 35 6.364 19.21 6.364 6.364 19.21 6.364 35S19.21 63.636 35 63.636c7.638 0 14.82-2.97 20.224-8.365a.796.796 0 0 1 1.125 1.127c-5.705 5.694-13.288 8.83-21.349 8.83z" fill="#000"/><path d="M46.932 15.13a.795.795 0 1 0 0-1.591.795.795 0 0 0 0 1.59z" fill="#000"/><path d="M46.932 15.925a1.59 1.59 0 1 0 0-3.182 1.59 1.59 0 0 0 0 3.182zM23.069 56.461a.795.795 0 1 0 0-1.59.795.795 0 0 0 0 1.59z" fill="#000"/><path d="M23.068 57.257a1.59 1.59 0 1 0 0-3.182 1.59 1.59 0 0 0 0 3.182zm32.598-33.393a.795.795 0 1 0 0-1.591.795.795 0 0 0 0 1.59z" fill="#000"/><path d="M55.666 24.66a1.59 1.59 0 1 0 0-3.183 1.59 1.59 0 0 0 0 3.182zM14.334 47.727a.795.795 0 1 0 0-1.59.795.795 0 0 0 0 1.59z" fill="#000"/><path d="M14.334 48.523a1.59 1.59 0 1 0 0-3.182 1.59 1.59 0 0 0 0 3.182zm44.53-12.728a.796.796 0 1 0 0-1.59.796.796 0 0 0 0 1.59z" fill="#000"/><path d="M58.864 36.59a1.59 1.59 0 1 0 0-3.181 1.59 1.59 0 0 0 0 3.182zm-47.728-.795a.795.795 0 1 0 0-1.59.795.795 0 0 0 0 1.59z" fill="#000"/><path d="M11.136 36.59a1.59 1.59 0 1 0 0-3.18 1.59 1.59 0 0 0 0 3.18zm44.53 11.137a.795.795 0 1 0 0-1.59.795.795 0 0 0 0 1.59z" fill="#000"/><path d="M55.666 48.523a1.59 1.59 0 1 0 0-3.182 1.59 1.59 0 0 0 0 3.182zM14.334 23.864a.795.795 0 1 0 0-1.591.795.795 0 0 0 0 1.59z" fill="#000"/><path d="M14.334 24.66a1.59 1.59 0 1 0 0-3.183 1.59 1.59 0 0 0 0 3.182zm32.598 31.801a.795.795 0 1 0 0-1.59.795.795 0 0 0 0 1.59z" fill="#000"/><path d="M46.932 57.257a1.59 1.59 0 1 0 0-3.182 1.59 1.59 0 0 0 0 3.182zM23.068 15.13a.796.796 0 1 0 0-1.592.796.796 0 0 0 0 1.592z" fill="#000"/><path d="M23.068 15.925a1.59 1.59 0 1 0 0-3.182 1.59 1.59 0 0 0 0 3.182zM35 59.66a.795.795 0 1 0 0-1.592.795.795 0 0 0 0 1.591z" fill="#000"/><path d="M35 60.455a1.591 1.591 0 1 0 0-3.182 1.591 1.591 0 0 0 0 3.182zm0-48.523a.795.795 0 1 0 0-1.591.795.795 0 0 0 0 1.59z" fill="#000"/><path d="M35 12.727a1.591 1.591 0 1 0 0-3.182 1.591 1.591 0 0 0 0 3.182zM52.41 25.88a.796.796 0 0 0-1.076-.335L38.78 32.12c.321.422.568.896.736 1.412l12.557-6.577a.795.795 0 0 0 .336-1.074zm-19.068 5.513l-6.451-8.796a.794.794 0 1 0-1.282.942l6.454 8.801c.358-.396.787-.72 1.279-.947z" fill="#000"/><path d="M35 39.773A4.778 4.778 0 0 1 30.227 35 4.778 4.778 0 0 1 35 30.227 4.779 4.779 0 0 1 39.773 35 4.779 4.779 0 0 1 35 39.773zm0-7.955A3.185 3.185 0 0 0 31.818 35 3.185 3.185 0 0 0 35 38.182 3.185 3.185 0 0 0 38.182 35 3.185 3.185 0 0 0 35 31.818z" fill="#000"/></svg>