<svg width="70" height="70" viewBox="0 0 70 70" fill="none" xmlns="http://www.w3.org/2000/svg"><path d="M43.591 18.278a3.076 3.076 0 0 0-.391-2.77c-.62-.897-1.664-1.43-2.798-1.43h-.055c-.772.025-1.544.4-2.294 1.113C32.62 20.36 27.24 25.427 21.83 30.552c-.805.763-1.202 1.788-1.092 2.812.11 1.012.706 1.914 1.636 2.476 2.836 1.713 5.71 3.323 8.556 4.954-1.329 3.11-2.527 6.031-3.763 9.011A16.787 16.787 0 0 1 18.252 35c0-3.854 1.34-7.617 3.775-10.594a16.801 16.801 0 0 1 9.442-5.781 1.025 1.025 0 1 0-.43-2.006 18.858 18.858 0 0 0-10.6 6.489A18.834 18.834 0 0 0 16.202 35a18.84 18.84 0 0 0 10.206 16.721c-.506 1.512.185 3.152 1.654 3.864 1.264.612 2.594.438 3.883-.781 5.363-5.075 10.816-10.23 16.226-15.362.813-.772 1.21-1.802 1.088-2.826-.124-1.04-.766-1.964-1.76-2.535-2.832-1.629-5.615-3.248-8.427-4.874 1.264-2.975 2.546-5.962 3.768-9.01A16.788 16.788 0 0 1 51.748 35c0 3.839-1.331 7.589-3.748 10.56a16.807 16.807 0 0 1-9.381 5.796 1.025 1.025 0 1 0 .44 2.003 18.866 18.866 0 0 0 10.532-6.504A18.84 18.84 0 0 0 53.799 35c0-7.056-3.977-13.516-10.208-16.722zm-1.96-.606c-1.193 3.079-2.513 6.182-3.789 9.183-.3.705-.6 1.41-.898 2.115-.226.535-.19 1.268.593 1.72 2.994 1.727 5.926 3.436 8.939 5.168.434.25.698.605.745 1 .046.38-.119.77-.462 1.096-5.407 5.13-10.866 10.29-16.224 15.36-.768.726-1.218.6-1.58.425-.555-.268-.802-.865-.587-1.42 1.485-3.839 3.028-7.359 4.691-11.297.11-.258.389-1.145-.6-1.714-3-1.727-6.04-3.42-9.025-5.224-.383-.23-.616-.565-.657-.94-.042-.388.123-.78.463-1.103 5.411-5.127 10.79-10.191 16.227-15.365.363-.345.687-.534.936-.547.467 0 .87.198 1.11.545.12.175.297.537.118.998zm25.072 8.7H62.02c-.52 0-.993-.336-1.176-.837a27.48 27.48 0 0 0-.876-2.114 1.266 1.266 0 0 1 .24-1.426l3.312-3.311a3.3 3.3 0 0 0 0-4.663l-7.54-7.54a3.3 3.3 0 0 0-4.663 0l-3.312 3.312a1.266 1.266 0 0 1-1.425.24c-.689-.32-1.4-.615-2.114-.876a1.265 1.265 0 0 1-.837-1.176V3.297A3.3 3.3 0 0 0 40.33 0H29.668a3.3 3.3 0 0 0-3.296 3.297V7.98c0 .52-.337.993-.837 1.176-.714.261-1.425.556-2.114.876a1.266 1.266 0 0 1-1.426-.24L18.683 6.48a3.3 3.3 0 0 0-4.662 0l-7.54 7.54a3.3 3.3 0 0 0 0 4.662l3.312 3.312c.369.368.465.941.24 1.426-.32.689-.614 1.4-.876 2.114-.183.5-.656.837-1.176.837H3.296A3.3 3.3 0 0 0 0 29.669V40.33a3.3 3.3 0 0 0 3.296 3.297H7.98c.52 0 .994.336 1.177.837a27.5 27.5 0 0 0 .876 2.114 1.266 1.266 0 0 1-.24 1.426l-3.312 3.312a3.3 3.3 0 0 0 0 4.662l7.54 7.54a3.3 3.3 0 0 0 4.662 0l3.312-3.312a1.267 1.267 0 0 1 1.425-.24c.69.32 1.4.614 2.115.876.5.183.837.656.837 1.176v4.684A3.3 3.3 0 0 0 29.668 70h10.663a3.3 3.3 0 0 0 3.297-3.297V62.02c0-.52.336-.993.837-1.176a27.464 27.464 0 0 0 2.114-.876 1.266 1.266 0 0 1 1.425.24l3.312 3.312a3.3 3.3 0 0 0 4.662 0l7.54-7.54a3.3 3.3 0 0 0 0-4.662l-3.312-3.312a1.266 1.266 0 0 1-.24-1.426c.32-.689.615-1.4.876-2.114.183-.5.656-.837 1.177-.837h4.684a3.3 3.3 0 0 0 3.296-3.297V29.67a3.3 3.3 0 0 0-3.296-3.297zm1.246 13.96c0 .686-.559 1.245-1.246 1.245H62.02a3.322 3.322 0 0 0-3.102 2.183c-.242.66-.514 1.319-.81 1.956a3.324 3.324 0 0 0 .65 3.739l3.311 3.312a1.247 1.247 0 0 1 0 1.762l-7.54 7.54a1.247 1.247 0 0 1-1.761 0l-3.312-3.313a3.323 3.323 0 0 0-3.74-.65 25.05 25.05 0 0 1-1.955.81 3.322 3.322 0 0 0-2.183 3.103v4.684c0 .687-.559 1.246-1.246 1.246H29.668a1.247 1.247 0 0 1-1.245-1.246v-4.684a3.322 3.322 0 0 0-2.183-3.102 25.46 25.46 0 0 1-1.956-.81 3.332 3.332 0 0 0-3.739.65l-3.312 3.311a1.247 1.247 0 0 1-1.762 0l-7.54-7.54a1.247 1.247 0 0 1 0-1.761l3.312-3.312a3.324 3.324 0 0 0 .65-3.74 25.36 25.36 0 0 1-.81-1.955 3.322 3.322 0 0 0-3.102-2.183H3.296a1.247 1.247 0 0 1-1.245-1.246V29.668c0-.687.558-1.245 1.245-1.245H7.98a3.322 3.322 0 0 0 3.103-2.183c.242-.66.514-1.319.81-1.956a3.324 3.324 0 0 0-.65-3.739l-3.312-3.312a1.247 1.247 0 0 1 0-1.762l7.54-7.54a1.247 1.247 0 0 1 1.762 0l3.312 3.312a3.323 3.323 0 0 0 3.739.65 25.437 25.437 0 0 1 1.956-.81 3.322 3.322 0 0 0 2.182-3.103V3.297c0-.687.56-1.246 1.246-1.246h10.663c.687 0 1.246.559 1.246 1.246V7.98c0 1.377.877 2.624 2.183 3.102.66.242 1.318.514 1.955.81a3.324 3.324 0 0 0 3.74-.65l3.311-3.312a1.247 1.247 0 0 1 1.762 0l7.54 7.54a1.247 1.247 0 0 1 0 1.762l-3.312 3.312a3.324 3.324 0 0 0-.65 3.74c.296.636.569 1.294.81 1.955a3.322 3.322 0 0 0 3.103 2.183h4.684c.687 0 1.246.559 1.246 1.246V40.33z" fill="#000"/></svg>