<svg width="80" height="72" viewBox="0 0 80 72" fill="none" xmlns="http://www.w3.org/2000/svg"><path d="M8.914 71.017H45.4a3.728 3.728 0 0 0 2.656-1.129 3.896 3.896 0 0 0 1.104-2.716 1.023 1.023 0 0 0-.272-.736.981.981 0 0 0-.708-.308.964.964 0 0 0-.708.308 1.006 1.006 0 0 0-.273.736 1.87 1.87 0 0 1-.53 1.299c-.336.345-.793.54-1.27.541H8.915a6.811 6.811 0 0 1-4.861-2.062 7.12 7.12 0 0 1-2.017-4.97V29.745c0-3.519 2.735-6.465 6.084-6.552a6.139 6.139 0 0 1 2.45.434c.78.31 1.49.778 2.09 1.374a6.402 6.402 0 0 1 1.404 2.099 6.54 6.54 0 0 1 .493 2.491c0 .07.006.138.02.205a.98.98 0 0 0-.02.203v23.396a6.056 6.056 0 0 0-2.57-1.444 5.965 5.965 0 0 0-2.93-.05 6.046 6.046 0 0 0-2.616 1.354 6.229 6.229 0 0 0-1.693 2.447 6.357 6.357 0 0 0 .642 5.78 6.141 6.141 0 0 0 2.186 1.997 5.986 5.986 0 0 0 2.846.721h58.846a3.72 3.72 0 0 0 2.658-1.126 3.888 3.888 0 0 0 1.102-2.718V42.048a1.025 1.025 0 0 0-.272-.736.98.98 0 0 0-.709-.309.962.962 0 0 0-.707.309 1.006 1.006 0 0 0-.273.736v18.306c0 .488-.19.956-.527 1.301a1.781 1.781 0 0 1-1.273.54H10.422a4.072 4.072 0 0 1-2.297-.711A4.21 4.21 0 0 1 6.6 59.589a4.316 4.316 0 0 1-.239-2.442c.158-.82.55-1.573 1.128-2.166a4.11 4.11 0 0 1 2.114-1.16 4.053 4.053 0 0 1 2.39.234 4.156 4.156 0 0 1 1.859 1.551c.456.694.7 1.51.704 2.346a5.349 5.349 0 0 1-.25 1.508 1.022 1.022 0 0 0 .238 1.086.979.979 0 0 0 .7.276.962.962 0 0 0 .686-.31 1.01 1.01 0 0 0 .205-.33 7.333 7.333 0 0 0 .378-2.216V30.998h43.21a.962.962 0 0 0 .72-.278 1.004 1.004 0 0 0 .303-.724 1.022 1.022 0 0 0-.302-.724.977.977 0 0 0-.72-.278h-43.23a8.473 8.473 0 0 0-2.68-5.633 8.114 8.114 0 0 0-5.748-2.17c-4.406.121-7.99 3.959-7.99 8.56V61.98a9.149 9.149 0 0 0 2.591 6.387 8.752 8.752 0 0 0 6.247 2.65z" fill="#000"/><path d="M59.995 42.696l2.124 5.37a1 1 0 0 0 .257.371.972.972 0 0 0 .653.254.96.96 0 0 0 .59-.203l4.519-3.494a.992.992 0 0 0 .353-.533l10.45-38.682a4.62 4.62 0 0 0-.39-3.464A4.5 4.5 0 0 0 77.418.964a4.391 4.391 0 0 0-1.553-.8 4.333 4.333 0 0 0-3.385.438 4.458 4.458 0 0 0-1.308 1.172 4.568 4.568 0 0 0-.766 1.597L59.96 42.046c-.06.215-.047.444.036.65zM72.3 3.906c.08-.327.223-.633.42-.903.197-.269.446-.495.73-.664a2.43 2.43 0 0 1 1.9-.253A2.46 2.46 0 0 1 76.854 3.3a2.562 2.562 0 0 1 .2 1.948l-.402 1.487-2.378-.671a.96.96 0 0 0-1.102.303 1.008 1.008 0 0 0-.211.778 1.016 1.016 0 0 0 .419.684c.112.078.24.132.373.157l2.378.67-9.442 34.938-3.232 2.5-1.521-3.843L72.3 3.906zM51.681 35.293a.961.961 0 0 0-.693.294 1.002 1.002 0 0 0-.286.709v.795a3.224 3.224 0 0 0-2.25 1.088 3.37 3.37 0 0 0-.837 2.396c.042.88.425 1.708 1.065 2.3a3.21 3.21 0 0 0 2.343.856h1.316c.343 0 .672.139.915.387s.379.584.379.935c0 .351-.136.688-.379.936a1.28 1.28 0 0 1-.915.387h-2.55a.961.961 0 0 0-.72.278 1.003 1.003 0 0 0-.302.724 1.022 1.022 0 0 0 .302.724.979.979 0 0 0 .72.278h.91v.781c.01.259.118.503.3.682a.97.97 0 0 0 1.359 0c.182-.179.29-.423.3-.682v-.795a3.223 3.223 0 0 0 2.25-1.089c.578-.654.88-1.515.837-2.396a3.354 3.354 0 0 0-1.066-2.299 3.209 3.209 0 0 0-2.343-.855H51.02a1.283 1.283 0 0 1-.886-.405 1.34 1.34 0 0 1-.363-.92c0-.342.13-.672.363-.919.233-.246.55-.391.886-.404h2.551a.972.972 0 0 0 .668-.308 1.015 1.015 0 0 0 0-1.388.972.972 0 0 0-.668-.308h-.912v-.777c0-.266-.102-.521-.286-.71a.97.97 0 0 0-.692-.295zm-32.404 4.18h11.175a.971.971 0 0 0 .667-.307 1.015 1.015 0 0 0 0-1.389.971.971 0 0 0-.667-.308H19.277a.971.971 0 0 0-.667.308 1.015 1.015 0 0 0 0 1.389.971.971 0 0 0 .667.307zm20.226 7.061a1.021 1.021 0 0 0-.287-.707.979.979 0 0 0-.693-.294H19.277a.971.971 0 0 0-.667.308 1.015 1.015 0 0 0 0 1.389.972.972 0 0 0 .667.307h19.246a.97.97 0 0 0 .693-.294c.184-.188.287-.443.287-.709zm-20.226 7.063a.972.972 0 0 0-.667.308 1.015 1.015 0 0 0 0 1.388.972.972 0 0 0 .667.308h10.54a.961.961 0 0 0 .72-.278 1.003 1.003 0 0 0 .302-.724 1.022 1.022 0 0 0-.302-.724.979.979 0 0 0-.72-.278h-10.54zm22.803 1.001a1.022 1.022 0 0 0 .287.71.98.98 0 0 0 .693.293h11.417a.961.961 0 0 0 .72-.278 1.004 1.004 0 0 0 .302-.724 1.022 1.022 0 0 0-.302-.724.978.978 0 0 0-.72-.278H43.06a.958.958 0 0 0-.693.293 1.002 1.002 0 0 0-.287.708zm-4.779-.555a.951.951 0 0 0-.625-.427.934.934 0 0 0-.566.058.8.8 0 0 0-.17.093.915.915 0 0 0-.273.276 1.083 1.083 0 0 0-.09.174 1.07 1.07 0 0 0-.053.189 1.02 1.02 0 0 0 .415 1.03 1.002 1.002 0 0 0 .356.148.974.974 0 0 0 .875-.273 1.036 1.036 0 0 0 .268-.905 1.252 1.252 0 0 0-.056-.189 1.087 1.087 0 0 0-.08-.174z" fill="#000"/></svg>