<svg xmlns="http://www.w3.org/2000/svg" width="80" height="72" viewBox="0 0 80 72"><path d="M8.915 71.017H45.4a3.732 3.732 0 0 0 2.656-1.128 3.9 3.9 0 0 0 1.104-2.717 1.007 1.007 0 0 0-.596-.964.959.959 0 0 0-.77 0 1.002 1.002 0 0 0-.596.964 1.867 1.867 0 0 1-.529 1.299 1.784 1.784 0 0 1-1.27.541H8.915a6.806 6.806 0 0 1-4.862-2.063 7.11 7.11 0 0 1-2.016-4.97V29.745c0-3.519 2.734-6.465 6.083-6.552a6.137 6.137 0 0 1 2.45.434c.78.311 1.491.778 2.092 1.375.6.597 1.077 1.31 1.402 2.099.326.789.494 1.635.493 2.491 0 .069.007.137.021.205a.985.985 0 0 0-.021.203v23.396a6.038 6.038 0 0 0-2.569-1.443 5.972 5.972 0 0 0-2.931-.051 6.05 6.05 0 0 0-2.615 1.355c-.751.662-1.333 1.502-1.694 2.446s-.492 1.964-.38 2.972a6.314 6.314 0 0 0 1.022 2.809 6.129 6.129 0 0 0 2.187 1.996c.876.473 1.853.72 2.845.72h58.846c.997 0 1.953-.405 2.658-1.126a3.884 3.884 0 0 0 1.102-2.718V42.048a1.017 1.017 0 0 0-.272-.735.977.977 0 0 0-.709-.31.95.95 0 0 0-.385.081 1.01 1.01 0 0 0-.595.964v18.307c-.001.487-.19.956-.528 1.301a1.782 1.782 0 0 1-1.271.539H10.422c-.817.001-1.617-.247-2.297-.711s-1.211-1.123-1.524-1.896a4.312 4.312 0 0 1-.238-2.44 4.268 4.268 0 0 1 1.127-2.166 4.111 4.111 0 0 1 2.115-1.161 4.066 4.066 0 0 1 2.389.234 4.149 4.149 0 0 1 1.859 1.552 4.29 4.29 0 0 1 .704 2.346 5.35 5.35 0 0 1-.25 1.508 1.019 1.019 0 0 0 .238 1.087.95.95 0 0 0 1.073.189c.118-.053.224-.129.313-.225s.158-.207.205-.33a7.315 7.315 0 0 0 .378-2.216V30.998h43.211a.977.977 0 0 0 .944-.608c.053-.125.078-.259.078-.394a1.004 1.004 0 0 0-.633-.939.977.977 0 0 0-.389-.064h-43.23a8.465 8.465 0 0 0-2.681-5.632 8.112 8.112 0 0 0-5.748-2.171c-4.406.122-7.99 3.959-7.99 8.562V61.98a9.153 9.153 0 0 0 2.591 6.388 8.758 8.758 0 0 0 6.248 2.649z"/><path d="M59.994 42.696l2.125 5.369a.983.983 0 0 0 .911.626c.213 0 .42-.071.589-.203l4.52-3.494a.995.995 0 0 0 .354-.533l10.45-38.682a4.61 4.61 0 0 0-.39-3.464c-.287-.522-.671-.981-1.132-1.351s-.989-.642-1.554-.801-1.154-.203-1.734-.127a4.345 4.345 0 0 0-1.649.566 4.468 4.468 0 0 0-1.309 1.172 4.576 4.576 0 0 0-.766 1.597l-10.45 38.676c-.059.214-.047.443.035.649zm12.307-38.79c.08-.326.223-.633.42-.902s.445-.495.73-.665a2.406 2.406 0 0 1 1.901-.253c.316.089.613.243.871.451a2.526 2.526 0 0 1 .925 1.716c.034.335.003.673-.093.995l-.402 1.487-2.377-.671a.97.97 0 0 0-.788.044 1.015 1.015 0 0 0-.106 1.721c.112.078.24.132.373.157l2.378.671-9.442 34.937-3.232 2.501-1.521-3.845L72.301 3.906zM51.682 35.293a.972.972 0 0 0-.906.619 1.025 1.025 0 0 0-.074.384v.795a3.22 3.22 0 0 0-2.248 1.089 3.362 3.362 0 0 0-.838 2.396c.042.88.426 1.708 1.064 2.3s1.482.899 2.344.855h1.315c.343 0 .673.14.915.388a1.341 1.341 0 0 1 0 1.871 1.28 1.28 0 0 1-.915.388h-2.55a1.012 1.012 0 0 0-.389.063 1.004 1.004 0 0 0-.633.939 1.018 1.018 0 0 0 .301.724.977.977 0 0 0 .721.279h.909v.78c.011.259.118.503.302.683a.969.969 0 0 0 1.358 0c.184-.18.291-.424.301-.683v-.795a3.23 3.23 0 0 0 2.25-1.089 3.372 3.372 0 0 0 .836-2.396 3.36 3.36 0 0 0-1.064-2.299 3.207 3.207 0 0 0-2.344-.855H51.02a1.286 1.286 0 0 1-.886-.404 1.344 1.344 0 0 1 0-1.839 1.28 1.28 0 0 1 .886-.404h2.552a.97.97 0 0 0 .667-.308 1.017 1.017 0 0 0 0-1.388.97.97 0 0 0-.667-.308h-.913v-.777c.001-.266-.102-.521-.285-.709s-.433-.298-.692-.299zm-32.405 4.181h11.175a.973.973 0 0 0 .667-.308 1.02 1.02 0 0 0 0-1.388.974.974 0 0 0-.667-.309H19.277a.972.972 0 0 0-.667.309 1.016 1.016 0 0 0 0 1.388.973.973 0 0 0 .667.308zm20.226 7.06a1.005 1.005 0 0 0-.604-.925.952.952 0 0 0-.375-.076H19.277a.968.968 0 0 0-.667.309 1.013 1.013 0 0 0 0 1.387.975.975 0 0 0 .667.308h19.246c.26 0 .509-.105.693-.294.184-.188.287-.442.287-.709zm-20.226 7.064a.97.97 0 0 0-.667.307 1.02 1.02 0 0 0 0 1.388.972.972 0 0 0 .667.309h10.539a.972.972 0 0 0 .943-.609 1.018 1.018 0 0 0-.223-1.118.967.967 0 0 0-.72-.277H19.277zm22.803 1a.99.99 0 0 0 .979 1.004h11.418a.969.969 0 0 0 .72-.278 1.018 1.018 0 0 0 0-1.449.951.951 0 0 0-.72-.277H43.06a.951.951 0 0 0-.692.292 1.025 1.025 0 0 0-.288.708zm-4.779-.555a.955.955 0 0 0-.121-.154 1.087 1.087 0 0 0-.32-.215.97.97 0 0 0-.566-.058.882.882 0 0 0-.185.058.768.768 0 0 0-.171.093.906.906 0 0 0-.271.276 1.028 1.028 0 0 0-.091.174 1.156 1.156 0 0 0-.074.384 1.018 1.018 0 0 0 .435.834c.054.036.111.066.171.092.06.026.122.045.185.057.063.014.127.02.191.02a.974.974 0 0 0 .684-.293 1.033 1.033 0 0 0 .268-.904 1.41 1.41 0 0 0-.135-.364z"/></svg>