<svg width="84" height="72" viewBox="0 0 84 72" fill="none" xmlns="http://www.w3.org/2000/svg"><path d="M59.762 71.017H47.968c-.8 0-1.446-.663-1.446-1.478v-6.183a745.83 745.83 0 0 0-4.54.003c-1.292.003-4.263.003-6.055.002v6.178c0 .815-.646 1.478-1.445 1.478H22.493c-.593 0-1.777-.34-2.368-.95a2.726 2.726 0 0 1-.787-1.947v-9.436c-6.071-3.901-10.643-9.348-12.973-15.46l-5.457-2.58a1.48 1.48 0 0 1-.838-1.34V26.72c0-.815.646-1.477 1.445-1.477h4.78c1.728-4.46 4.605-8.91 7.783-12.053l-.28-.433C9.55 6.236 8.567 4.412 9.2 3.041c.392-.851 1.373-1.398 2.996-1.67 3.353-.566 11.138.007 17.23 6 3.534-.774 9.305-1.33 12.55-1.33 2.387 0 4.723.181 6.943.54.787.127 1.326.883 1.2 1.69-.122.806-.86 1.36-1.652 1.229a40.825 40.825 0 0 0-6.491-.505c-3.269 0-9.509.626-12.654 1.432a1.428 1.428 0 0 1-1.393-.41c-5.732-6.087-13.535-6.246-15.81-5.633.67 1.493 2.76 4.703 4.084 6.737l.969 1.492a1.501 1.501 0 0 1-.259 1.927c-3.377 3.007-6.618 7.983-8.258 12.678-.205.588-.75.98-1.36.98H2.96v10.16l5.156 2.439c.35.166.62.467.75.837 2.115 5.946 6.61 11.258 12.659 14.955.436.267.703.749.703 1.268V67.98c.091.026.247.073.327.085l10.482-.003v-6.18c0-.392.153-.769.424-1.046.27-.277.639-.431 1.021-.431h.002s5.577.007 7.485 0c1.768-.012 6.001-.002 6.003 0 .795.001 1.44.662 1.44 1.477v6.18h10.35a.942.942 0 0 0 .196-.08c.013-.074.03-.152.052-.233v-5.867c0-.446.198-.868.537-1.148.111-.093 11.112-9.35 11.45-21.873.018-.656.008-1.44 0-2.227-.009-.8-.017-1.602-.002-2.29-.44-5.609-2.34-10.714-5.498-14.766a1.5 1.5 0 0 1 .23-2.076 1.423 1.423 0 0 1 2.031.235c3.23 4.147 5.278 9.26 5.967 14.869 3.78-.817 6.165-3.041 6.265-4.508.062-.91-1.167-1.36-1.903-1.548-.775-.198-1.247-1-1.052-1.792.194-.792.977-1.277 1.752-1.075 4.014 1.026 4.143 3.796 4.086 4.621-.227 3.31-4.077 6.356-8.996 7.28.002.333.006.674.01 1.015.01.828.018 1.653 0 2.343-.335 12.379-9.604 21.483-11.987 23.622v5.443a1.5 1.5 0 0 1-.1.541c-.025.385-.113 1.204-.957 1.734-.61.383-1.28.735-2.08.735z" fill="#000"/><path d="M24.678 22.643c0 1.7-1.352 3.083-3.015 3.083-1.665 0-3.014-1.383-3.014-3.083 0-1.702 1.35-3.087 3.014-3.087 1.663 0 3.015 1.385 3.015 3.087zm33.91 2.47c-6.772 0-12.283-5.632-12.283-12.557C46.305 5.633 51.815 0 58.588 0c6.772 0 12.283 5.633 12.283 12.556 0 6.925-5.51 12.557-12.283 12.557zm0-22.159c-5.18 0-9.393 4.308-9.393 9.602 0 5.295 4.214 9.603 9.393 9.603s9.393-4.308 9.393-9.603c0-5.294-4.214-9.602-9.393-9.602z" fill="#000"/><path d="M58.585 19.627c-2.567 0-4.36-1.62-4.36-3.939 0-.734.583-1.329 1.3-1.329.72 0 1.302.595 1.302 1.33 0 1.111 1.102 1.279 1.758 1.279.66 0 1.764-.168 1.764-1.28 0-.682-.06-.788-1.843-1.685l-.995-.505c-1.764-.891-3.286-1.662-3.286-4.07 0-2.33 1.793-3.958 4.36-3.958 2.546 0 4.324 1.628 4.324 3.959 0 .734-.583 1.33-1.301 1.33s-1.301-.596-1.301-1.33c0-1.075-.936-1.3-1.722-1.3-.529 0-1.758.127-1.758 1.3 0 .68.06.786 1.837 1.686l.99.502c1.77.89 3.297 1.66 3.297 4.071 0 2.318-1.796 3.939-4.366 3.939z" fill="#000"/><path d="M58.529 8.042c-.719 0-1.301-.595-1.301-1.33v-1.46c0-.734.582-1.328 1.3-1.328.719 0 1.302.594 1.302 1.328v1.46c0 .735-.583 1.33-1.301 1.33zm0 13.151c-.719 0-1.301-.596-1.301-1.33v-1.46c0-.734.582-1.328 1.3-1.328.719 0 1.302.594 1.302 1.328v1.46c0 .734-.583 1.33-1.301 1.33z" fill="#000"/></svg>