<svg xmlns="http://www.w3.org/2000/svg" width="70" height="70" viewBox="0 0 70 70"><path d="M46.238 42.573c.295.499.443 1.081.443 1.749 0 1.023-.305 1.875-.915 2.559-.61.683-1.489 1.086-2.642 1.206v1.752h-1.467v-1.744c-1.917-.196-3.104-1.313-3.563-3.345l2.268-.592c.209 1.277.904 1.918 2.086 1.918.553 0 .961-.137 1.221-.411s.391-.603.391-.99c0-.401-.131-.706-.391-.91-.26-.206-.84-.468-1.736-.786-.807-.279-1.438-.555-1.891-.831a3.116 3.116 0 0 1-1.104-1.145c-.285-.494-.426-1.068-.426-1.722 0-.857.254-1.63.758-2.316.508-.685 1.301-1.104 2.387-1.256v-1.354h1.467v1.354c1.639.195 2.702 1.123 3.186 2.781l-2.023.829c-.393-1.137-1.001-1.706-1.827-1.706-.413 0-.746.126-.995.381a1.265 1.265 0 0 0-.379.925c0 .368.121.649.363.849.242.197.758.441 1.553.73.869.318 1.555.621 2.049.903.496.283.889.675 1.187 1.172zm9.052-.477C55.29 49.224 49.514 55 42.387 55s-12.903-5.776-12.903-12.904c0-7.126 5.776-12.902 12.903-12.902S55.29 34.97 55.29 42.096zm-2.58 0c0-5.691-4.63-10.322-10.323-10.322-5.692 0-10.322 4.63-10.322 10.322 0 5.693 4.63 10.324 10.322 10.324 5.693 0 10.323-4.631 10.323-10.324zM34.645 18.871h15.484c.713 0 1.29-.434 1.29-.968v-1.935c0-.535-.577-.968-1.29-.968H34.645c-.713 0-1.291.433-1.291.968v1.935c.001.535.578.968 1.291.968zm0 5.161h15.484c.713 0 1.29-.434 1.29-.968v-1.936c0-.534-.577-.968-1.29-.968H34.645c-.713 0-1.291.434-1.291.968v1.936c.001.535.578.968 1.291.968zM15.29 49.839h15.217a14.19 14.19 0 0 1-1.764-3.871H15.29c-.713-.001-1.29.432-1.29.968v1.936c0 .532.577.967 1.29.967zm15.484 1.29H15.29c-.713 0-1.29.434-1.29.967v1.937c0 .533.577.967 1.29.967h15.484c.713 0 1.291-.434 1.291-.968v-1.937c-.001-.532-.578-.966-1.291-.966zM15.29 44.678h13.15a14.1 14.1 0 0 1-.247-2.582c0-.436.025-.863.065-1.289H15.29c-.713 0-1.29.434-1.29.968v1.935c0 .534.577.968 1.29.968zm19.355-15.485h1.865a14.063 14.063 0 0 1 5.877-1.29c2.097 0 4.086.469 5.877 1.29h1.865c.713 0 1.29-.434 1.29-.968V26.29c0-.534-.577-.968-1.29-.968H34.645c-.713 0-1.291.434-1.291.968v1.936c.001.534.578.967 1.291.967zm-19.355 0h15.484c.713 0 1.291-.434 1.291-.968V26.29c0-.534-.577-.968-1.291-.968H15.29c-.713 0-1.29.434-1.29.968v1.936c0 .534.577.967 1.29.967zm0 10.323h13.15a13.993 13.993 0 0 1 1.321-3.871H15.29c-.713 0-1.29.434-1.29.968v1.937c0 .533.577.966 1.29.966zm0-5.161h15.217c.459-.706.983-1.361 1.558-1.971v-.933c0-.534-.577-.967-1.29-.967H15.29c-.713 0-1.29.433-1.29.967v1.936c0 .534.577.968 1.29.968z" data-llp-duration="5000" data-llp-delay="0" fill="none"/><path d="M35 70C15.701 70 0 54.299 0 35S15.701 0 35 0s35 15.701 35 35-15.701 35-35 35zm0-68C16.804 2 2 16.804 2 35s14.804 33 33 33 33-14.804 33-33S53.196 2 35 2z" data-llp-duration="5000" data-llp-delay="0" fill="none"/><path d="M58 59L11 12l1.414-1.414 47 47L58 59z" data-llp-duration="5000" data-llp-delay="0" fill="none"/></svg>