<svg width="70" height="70" viewBox="0 0 70 70" fill="none" xmlns="http://www.w3.org/2000/svg"><path d="M46.238 42.573c.295.5.443 1.081.443 1.749 0 1.023-.305 1.875-.914 2.558-.61.683-1.49 1.086-2.642 1.207v1.752H41.66v-1.744c-1.918-.197-3.105-1.314-3.564-3.345l2.268-.592c.21 1.278.905 1.918 2.087 1.918.552 0 .96-.136 1.22-.411.26-.274.39-.602.39-.99 0-.401-.13-.706-.39-.91-.26-.207-.84-.468-1.737-.786-.806-.28-1.436-.555-1.89-.832a3.11 3.11 0 0 1-1.103-1.144c-.286-.494-.427-1.069-.427-1.722 0-.857.255-1.63.759-2.316.507-.685 1.3-1.103 2.386-1.257v-1.353h1.467v1.353c1.638.197 2.702 1.124 3.186 2.782l-2.024.83c-.393-1.137-1-1.707-1.827-1.707-.413 0-.746.126-.996.38a1.265 1.265 0 0 0-.377.926c0 .368.12.65.362.849.242.197.759.441 1.553.73.87.318 1.555.62 2.049.903.496.283.89.675 1.187 1.172zm9.052-.477C55.29 49.224 49.514 55 42.387 55c-7.127 0-12.903-5.776-12.903-12.904 0-7.126 5.776-12.903 12.903-12.903 7.127 0 12.903 5.777 12.903 12.903zm-2.58 0c0-5.692-4.63-10.322-10.323-10.322-5.693 0-10.322 4.63-10.322 10.322 0 5.694 4.63 10.323 10.322 10.323 5.693 0 10.323-4.63 10.323-10.323zM34.645 18.871H50.13c.713 0 1.29-.434 1.29-.968v-1.935c0-.535-.577-.968-1.29-.968H34.645c-.713 0-1.29.433-1.29.967v1.936c0 .534.577.968 1.29.968zm0 5.161H50.13c.713 0 1.29-.433 1.29-.968V21.13c0-.534-.577-.968-1.29-.968H34.645c-.713 0-1.29.434-1.29.968v1.935c0 .535.577.968 1.29.968zM15.29 49.84h15.217a14.168 14.168 0 0 1-1.764-3.871H15.29c-.713 0-1.29.433-1.29.968v1.935c0 .534.577.968 1.29.968zm15.484 1.29H15.29c-.713 0-1.29.433-1.29.967v1.936c0 .534.577.968 1.29.968h15.484c.713 0 1.29-.434 1.29-.968v-1.936c0-.534-.577-.967-1.29-.967zM15.29 44.678h13.15a14.07 14.07 0 0 1-.246-2.582c0-.435.025-.864.065-1.29H15.29c-.713 0-1.29.434-1.29.968v1.935c0 .535.577.968 1.29.968zm19.355-15.485h1.865a14.059 14.059 0 0 1 5.877-1.29c2.096 0 4.085.469 5.877 1.29h1.865c.713 0 1.29-.433 1.29-.967V26.29c0-.534-.577-.968-1.29-.968H34.645c-.713 0-1.29.434-1.29.968v1.936c0 .534.577.967 1.29.967zm-19.355 0h15.484c.713 0 1.29-.433 1.29-.967V26.29c0-.534-.577-.968-1.29-.968H15.29c-.713 0-1.29.434-1.29.968v1.936c0 .534.577.967 1.29.967zm0 10.323h13.15a13.994 13.994 0 0 1 1.321-3.871h-14.47c-.714 0-1.291.433-1.291.967v1.937c0 .534.577.967 1.29.967zm0-5.161h15.217c.459-.706.983-1.361 1.558-1.971v-.933c0-.534-.577-.967-1.29-.967H15.29c-.713 0-1.29.433-1.29.967v1.936c0 .534.577.968 1.29.968z" fill="#000"/><circle cx="35" cy="35" r="34" stroke="#000" stroke-width="2"/><path stroke="#000" stroke-width="2" d="M11.707 11.293l47 47"/></svg>