<svg width="70" height="70" viewBox="0 0 70 70" fill="none" xmlns="http://www.w3.org/2000/svg"><path d="M39.851 42.68a12.34 12.34 0 0 0 0-24.68H27.085a1.277 1.277 0 0 0-1.277 1.277v20.85h-5.531a1.277 1.277 0 1 0 0 2.554h5.531v4.255h-5.531a1.277 1.277 0 1 0 0 2.553h5.531v7.234a1.277 1.277 0 1 0 2.554 0V49.49H39a1.277 1.277 0 1 0 0-2.553H28.362v-4.255h11.49zm-11.49-22.127h11.49a9.787 9.787 0 1 1 0 19.575h-11.49V20.553z" fill="#000"/><circle cx="35" cy="35" r="34" stroke="#000" stroke-width="2"/></svg>