<svg xmlns="http://www.w3.org/2000/svg" width="70" height="70" viewBox="0 0 70 70"><path d="M39.852 42.681c3.272 0 6.411-1.3 8.726-3.614a12.345 12.345 0 0 0 0-17.452A12.34 12.34 0 0 0 39.852 18H27.085a1.277 1.277 0 0 0-1.276 1.276v20.852h-5.532c-.338 0-.663.134-.902.374a1.273 1.273 0 0 0 .901 2.178h5.532v4.255h-5.532c-.338 0-.663.135-.902.375a1.273 1.273 0 0 0 0 1.805c.239.24.564.374.902.374h5.532v7.234a1.278 1.278 0 0 0 2.554.001V49.49H39a1.273 1.273 0 0 0 1.276-1.276 1.27 1.27 0 0 0-.374-.902 1.274 1.274 0 0 0-.902-.375H28.362v-4.255h11.49zm-11.49-22.128h11.49a9.784 9.784 0 0 1 9.787 9.787 9.784 9.784 0 0 1-9.787 9.787h-11.49V20.553z"/><path d="M35 70C15.701 70 0 54.299 0 35S15.701 0 35 0s35 15.701 35 35-15.701 35-35 35zm0-68C16.804 2 2 16.804 2 35s14.804 33 33 33 33-14.804 33-33S53.196 2 35 2z"/></svg>