<svg width="75" height="70" viewBox="0 0 75 70" fill="none" xmlns="http://www.w3.org/2000/svg"><path d="M73.62 0H1.208A1.207 1.207 0 0 0 0 1.207v55.517a1.207 1.207 0 0 0 1.207 1.207h45.298c.174.26.362.516.564.767v10.095a1.206 1.206 0 0 0 1.589 1.144l6.86-2.286 6.859 2.287a1.205 1.205 0 0 0 1.589-1.144V58.698c.202-.253.39-.508.563-.768h9.092a1.207 1.207 0 0 0 1.207-1.207V1.207A1.207 1.207 0 0 0 73.62 0zM46.94 45.231c-.124.158-.24.322-.354.487-.049.071-.101.14-.149.213-.126.191-.243.39-.357.59-.03.05-.062.1-.09.151a10.93 10.93 0 0 0-.72 1.604H15.59a7.262 7.262 0 0 0-5.935-5.934V15.59a7.262 7.262 0 0 0 5.934-5.935h43.65a7.262 7.262 0 0 0 5.933 5.934v26.753a7.19 7.19 0 0 0-2.812 1.116l-.005-.004-.037-.028c-.25-.2-.508-.39-.774-.565-.086-.058-.177-.109-.265-.164a10.95 10.95 0 0 0-.59-.35c-.11-.058-.22-.11-.33-.166a10.889 10.889 0 0 0-.567-.265 11.037 11.037 0 0 0-.935-.349 10.73 10.73 0 0 0-.374-.115c-.199-.056-.4-.104-.602-.15-.123-.027-.245-.056-.369-.079a10.828 10.828 0 0 0-.671-.099c-.106-.013-.211-.03-.318-.04-.333-.031-.668-.05-1.006-.05-.3 0-.598.014-.893.038-.098.008-.194.024-.292.035-.196.021-.392.042-.584.074-.116.019-.228.045-.343.068-.172.034-.343.067-.513.108-.12.03-.236.067-.355.1-.16.046-.32.091-.478.144-.118.04-.234.085-.351.129a10.47 10.47 0 0 0-.455.179c-.115.049-.228.102-.341.155-.147.07-.293.14-.437.215-.11.057-.217.118-.325.179a10.812 10.812 0 0 0-1.413.956c-.132.105-.26.214-.388.325-.086.076-.173.152-.257.23-.128.12-.251.245-.373.37-.076.08-.153.157-.227.238a9.62 9.62 0 0 0-.361.42c-.064.079-.13.155-.192.234zm14.612 21.887l-5.653-1.882a1.198 1.198 0 0 0-.764 0l-5.652 1.882v-6.19c.06.04.127.068.187.107.327.209.664.4 1.01.573.087.043.17.092.258.132.428.199.868.37 1.318.51.106.034.215.058.322.088.362.102.73.185 1.1.249.134.022.265.046.4.064a9.732 9.732 0 0 0 2.88 0c.134-.018.265-.042.398-.065.37-.063.737-.146 1.098-.248.109-.03.218-.054.325-.088.45-.141.888-.311 1.315-.51.09-.04.175-.091.264-.135a10.78 10.78 0 0 0 1.003-.57c.062-.039.13-.066.19-.108v6.191zm1.266-10.988a8.166 8.166 0 0 1-.966 1.354 8.437 8.437 0 0 1-12.668.003 8.593 8.593 0 0 1-2.115-5.59 8.7 8.7 0 0 1 .264-2.112 8.447 8.447 0 0 1 9.014-6.296 8.441 8.441 0 0 1 4.493 1.844 8.414 8.414 0 0 1 3.125 6.563 8.253 8.253 0 0 1-1.147 4.234zm9.596-.613h-6.658c.082-.232.15-.468.217-.705.012-.042.027-.083.038-.125a10.823 10.823 0 0 0 .284-1.521 10.637 10.637 0 0 0-2.197-7.919 4.79 4.79 0 0 1 2.281-.592 1.207 1.207 0 0 0 1.207-1.207V14.483a1.207 1.207 0 0 0-1.207-1.207 4.832 4.832 0 0 1-4.827-4.828 1.207 1.207 0 0 0-1.207-1.207H14.483a1.207 1.207 0 0 0-1.207 1.207 4.832 4.832 0 0 1-4.828 4.828 1.207 1.207 0 0 0-1.207 1.207v28.965a1.207 1.207 0 0 0 1.207 1.207 4.832 4.832 0 0 1 4.828 4.828 1.207 1.207 0 0 0 1.207 1.207H44.73c-.048.4-.073.803-.076 1.207.003.423.031.846.084 1.266a10.817 10.817 0 0 0 .282 1.516c.014.052.032.101.047.152.065.23.13.46.21.686H2.415V2.414h70v53.103z" fill="#000"/><path d="M27.759 22.931h19.31a1.207 1.207 0 0 0 1.207-1.207v-7.241a1.207 1.207 0 0 0-1.207-1.207h-19.31a1.207 1.207 0 0 0-1.207 1.207v7.241a1.207 1.207 0 0 0 1.207 1.207zm1.207-7.241h16.896v4.827H28.966V15.69zm-3.621 14.482h24.138a1.207 1.207 0 0 0 0-2.413H25.345a1.207 1.207 0 0 0 0 2.413zm28.965 6.035A1.207 1.207 0 0 0 53.103 35H21.724a1.207 1.207 0 0 0 0 2.414h31.38a1.207 1.207 0 0 0 1.206-1.207z" fill="#000"/></svg>