<svg width="150" height="150" viewBox="0 0 150 150" fill="none" xmlns="http://www.w3.org/2000/svg"><path d="M92.673 37.337a24.951 24.951 0 0 0-35.345 0l3.545 3.525a19.952 19.952 0 0 1 28.25 0l3.55-3.525z" fill="#0E5C9F"/><path d="M85.608 44.372a15.052 15.052 0 0 0-21.215 0l3.515 3.555a10.3 10.3 0 0 1 14.185 0l3.515-3.555zm-14.145 7.095L75 55l3.54-3.53a5.117 5.117 0 0 0-7.077-.003z" fill="#0E5C9F"/><path d="M76.36.402a2.5 2.5 0 0 0-2.72 0L3.515 45.862a7.71 7.71 0 0 0-2.32 10.575 7.63 7.63 0 0 0 10.573 2.36l.732-.472V105h5V55.097L40 40.572V42.5a2.5 2.5 0 0 0 2.5 2.5H50v2.96a7.5 7.5 0 1 0 5 0V42.5a2.5 2.5 0 0 0-2.5-2.5H45v-2.658l30-19.367 30 19.357V40h-7.5a2.5 2.5 0 0 0-2.5 2.5v5.46a7.5 7.5 0 1 0 5 0V45h7.5a2.5 2.5 0 0 0 2.5-2.5v-1.94l22.5 14.517V69.96h5V58.302l.718.463a7.635 7.635 0 0 0 10.587-2.35 7.712 7.712 0 0 0-2.292-10.553L137.5 40.02V20h2.5a2.501 2.501 0 0 0 2.5-2.5v-10A2.5 2.5 0 0 0 140 5h-25a2.5 2.5 0 0 0-2.5 2.5v10A2.503 2.503 0 0 0 115 20h2.5v7.06L76.36.402zM52.5 57.5a2.5 2.5 0 1 1 0-5 2.5 2.5 0 0 1 0 5zm45 0a2.5 2.5 0 1 1 0-5 2.5 2.5 0 0 1 0 5zm47.083-3.75a2.64 2.64 0 0 1-1.67 1.172 2.608 2.608 0 0 1-2-.352L76.355 12.9a2.5 2.5 0 0 0-2.71 0L9.073 54.587a2.637 2.637 0 0 1-3.655-.837 2.698 2.698 0 0 1 .812-3.7L75 5.48l68.788 44.572a2.703 2.703 0 0 1 .795 3.698zM117.5 10h20v5h-20v-5zm5 10h10v16.78l-10-6.48V20zm25 115h-10V75h-5v60h-20v-5h7.5a2.5 2.5 0 0 0 2.5-2.5v-7.96a7.5 7.5 0 1 0-5 0V125H110a2.5 2.5 0 0 0-2.5 2.5v7.5h-65v-7.5A2.5 2.5 0 0 0 40 125h-7.5v-5.46a7.5 7.5 0 1 0-5 0v7.96A2.5 2.5 0 0 0 30 130h7.5v5h-20v-24.84h-5V135h-10a2.5 2.5 0 0 0-2.5 2.5v10a2.5 2.5 0 0 0 2.5 2.5h145a2.5 2.5 0 0 0 2.5-2.5v-10a2.5 2.5 0 0 0-2.5-2.5zM120 110a2.504 2.504 0 0 1 2.31 1.543A2.5 2.5 0 1 1 120 110zm-90 0a2.506 2.506 0 0 1 2.31 1.543A2.501 2.501 0 1 1 30 110zm115 35H5v-5h140v5z" fill="#0E5C9F"/><path d="M108.105 101.75A2.504 2.504 0 0 0 110 99.332V97.5h10a2.501 2.501 0 0 0 2.5-2.5v-7.96a7.5 7.5 0 1 0-5 0v5.46H110v-1.833a2.499 2.499 0 0 0-1.895-2.427l-5.84-1.46a28.245 28.245 0 0 0-2.175-5.25l3.098-5.165a2.501 2.501 0 0 0-.375-3.055l-6.128-6.128a2.5 2.5 0 0 0-3.055-.375l-5.162 3.098a28.357 28.357 0 0 0-5.25-2.175l-1.468-5.838A2.5 2.5 0 0 0 79.325 60h-8.657a2.5 2.5 0 0 0-2.425 1.892l-1.463 5.843a28.355 28.355 0 0 0-5.25 2.175l-5.162-3.098a2.5 2.5 0 0 0-3.055.375l-6.128 6.128a2.5 2.5 0 0 0-.375 3.055l3.098 5.162a28.285 28.285 0 0 0-2.175 5.25l-5.84 1.46a2.5 2.5 0 0 0-1.895 2.428v1.83H32.5v-5.46a7.5 7.5 0 1 0-5 0V95a2.5 2.5 0 0 0 2.5 2.5h10v1.832a2.502 2.502 0 0 0 1.895 2.428l5.84 1.46a28.313 28.313 0 0 0 2.175 5.25l-3.097 5.162a2.502 2.502 0 0 0 .374 3.055l6.128 6.128a2.501 2.501 0 0 0 3.055.375l5.163-3.098c1.672.9 3.43 1.629 5.25 2.175l1.462 5.843a2.498 2.498 0 0 0 2.425 1.892h8.665a2.499 2.499 0 0 0 2.425-1.892l1.463-5.843a28.169 28.169 0 0 0 5.25-2.175l5.162 3.098a2.501 2.501 0 0 0 3.055-.375l6.128-6.128a2.5 2.5 0 0 0 .375-3.055l-3.098-5.165a28.222 28.222 0 0 0 2.175-5.25l5.835-1.467zM120 77.5a2.499 2.499 0 0 1 1.768 4.268A2.502 2.502 0 0 1 117.5 80a2.504 2.504 0 0 1 2.5-2.5zm-90 0a2.5 2.5 0 1 1 0 5 2.5 2.5 0 0 1 0-5zm69.635 21.222a2.5 2.5 0 0 0-1.825 1.835 23.334 23.334 0 0 1-2.75 6.638 2.5 2.5 0 0 0 0 2.587l2.848 4.75-3.368 3.368-4.75-2.848a2.5 2.5 0 0 0-2.587 0 23.301 23.301 0 0 1-6.635 2.75 2.506 2.506 0 0 0-1.835 1.823L77.383 125h-4.765l-1.343-5.368a2.506 2.506 0 0 0-1.835-1.822 23.359 23.359 0 0 1-6.635-2.75 2.5 2.5 0 0 0-2.587 0l-4.75 2.847-3.368-3.367 2.848-4.75a2.5 2.5 0 0 0 0-2.588 23.33 23.33 0 0 1-2.75-6.637 2.502 2.502 0 0 0-1.825-1.835L45 97.382v-4.765l5.365-1.34a2.5 2.5 0 0 0 1.825-1.835 23.335 23.335 0 0 1 2.75-6.637 2.5 2.5 0 0 0 0-2.588l-2.847-4.75L55.46 72.1l4.75 2.847a2.5 2.5 0 0 0 2.588 0 23.339 23.339 0 0 1 6.635-2.75 2.5 2.5 0 0 0 1.835-1.822L72.618 65h4.765l1.342 5.367a2.5 2.5 0 0 0 1.835 1.823 23.339 23.339 0 0 1 6.635 2.75 2.5 2.5 0 0 0 2.588 0l4.75-2.848L97.9 75.46l-2.847 4.75a2.5 2.5 0 0 0 0 2.587 23.346 23.346 0 0 1 2.75 6.638 2.5 2.5 0 0 0 1.825 1.835L105 92.617v4.765l-5.365 1.34z" fill="#0E5C9F"/><path d="M84 83a2.5 2.5 0 1 0-3 4 10 10 0 1 1-12 0 2.5 2.5 0 0 0-3-4 15 15 0 1 0 18 0z" fill="#0E5C9F"/><path d="M75 92.5a2.5 2.5 0 0 0 2.5-2.5V80a2.5 2.5 0 0 0-5 0v10a2.5 2.5 0 0 0 2.5 2.5z" fill="#0E5C9F"/></svg>