<svg width="151" height="150" viewBox="0 0 151 150" fill="none" xmlns="http://www.w3.org/2000/svg"><path d="M147.37 58.017h-40.834V46.091c0-.847-.406-1.638-1.091-2.132L77.636 23.842v-6.225h23.882a2.635 2.635 0 0 0 2.635-2.634V2.634A2.635 2.635 0 0 0 101.518 0H75.002a2.634 2.634 0 0 0-2.634 2.634V23.83l-28.02 20.118a2.637 2.637 0 0 0-1.098 2.14v11.926H2.634A2.634 2.634 0 0 0 0 60.648v86.718A2.634 2.634 0 0 0 2.634 150H147.37a2.634 2.634 0 0 0 2.634-2.634V60.652a2.634 2.634 0 0 0-2.634-2.635zM77.636 5.268h21.248v7.072H77.636V5.268zm-7.185 139.468v-18.59h9.098v18.59h-9.098zm74.289 0H84.817v-21.224a2.634 2.634 0 0 0-2.634-2.634H67.821a2.634 2.634 0 0 0-2.635 2.634v21.224H5.264v-81.45h40.62a2.634 2.634 0 0 0 2.634-2.634V47.44l26.476-19.01 26.269 19.002v13.22a2.634 2.634 0 0 0 2.634 2.634h40.839v81.45h.004zM55.667 67.387H41.304a2.634 2.634 0 0 0-2.634 2.634v14.367a2.634 2.634 0 0 0 2.634 2.634h14.363a2.634 2.634 0 0 0 2.634-2.634V70.02a2.634 2.634 0 0 0-2.634-2.634zm-2.634 14.367h-9.098V72.66h9.098v9.094zM29.15 67.387H14.788a2.634 2.634 0 0 0-2.634 2.634v14.367a2.634 2.634 0 0 0 2.634 2.634h14.363a2.634 2.634 0 0 0 2.634-2.634V70.02a2.634 2.634 0 0 0-2.634-2.634zm-2.635 14.367h-9.098V72.66h9.098v9.094zM91.703 70.02v14.367a2.634 2.634 0 0 0 2.634 2.634H108.7a2.634 2.634 0 0 0 2.634-2.634V70.02a2.634 2.634 0 0 0-2.634-2.634H94.337a2.634 2.634 0 0 0-2.634 2.634zm5.268 2.639h9.094v9.094h-9.094V72.66zm24.985 14.366h14.362a2.635 2.635 0 0 0 2.635-2.634V70.025a2.635 2.635 0 0 0-2.635-2.634h-14.362a2.634 2.634 0 0 0-2.634 2.634v14.367a2.639 2.639 0 0 0 2.634 2.634zm2.634-14.366h9.098v9.094h-9.098V72.66zm-42.407-5.273H67.821a2.634 2.634 0 0 0-2.635 2.634v14.367a2.634 2.634 0 0 0 2.635 2.634h14.362a2.634 2.634 0 0 0 2.634-2.634V70.02a2.634 2.634 0 0 0-2.634-2.634zM79.55 81.754h-9.098V72.66h9.098v9.094zm-4.547-43.368c-5.414 0-9.816 4.406-9.816 9.82 0 5.414 4.402 9.82 9.816 9.82 5.41 0 9.816-4.406 9.816-9.82 0-5.414-4.406-9.82-9.816-9.82zm0 14.367a4.554 4.554 0 0 1-4.551-4.547 4.551 4.551 0 0 1 4.551-4.547 4.55 4.55 0 0 1 4.547 4.547 4.55 4.55 0 0 1-4.547 4.547zM55.667 94.135H41.304a2.634 2.634 0 0 0-2.634 2.634v14.362a2.634 2.634 0 0 0 2.634 2.634h14.363a2.634 2.634 0 0 0 2.634-2.634V96.769a2.634 2.634 0 0 0-2.634-2.635zm-2.634 14.362h-9.098v-9.09h9.098v9.09zM29.15 94.135H14.788a2.634 2.634 0 0 0-2.634 2.634v14.362a2.634 2.634 0 0 0 2.634 2.634h14.363a2.634 2.634 0 0 0 2.634-2.634V96.769a2.634 2.634 0 0 0-2.634-2.635zm-2.635 14.362h-9.098v-9.09h9.098v9.09zM108.7 94.135H94.337a2.634 2.634 0 0 0-2.634 2.634v14.362a2.634 2.634 0 0 0 2.634 2.634H108.7a2.634 2.634 0 0 0 2.634-2.634V96.769a2.634 2.634 0 0 0-2.634-2.635zm-2.635 14.362h-9.094v-9.09h9.094v9.09zm15.891 5.268h14.362a2.634 2.634 0 0 0 2.635-2.634V96.769a2.635 2.635 0 0 0-2.635-2.635h-14.362a2.634 2.634 0 0 0-2.634 2.635v14.362a2.639 2.639 0 0 0 2.634 2.634zm2.634-14.362h9.098v9.09h-9.098v-9.09zm-42.407-5.269H67.821a2.634 2.634 0 0 0-2.635 2.635v14.362a2.634 2.634 0 0 0 2.635 2.634h14.362a2.634 2.634 0 0 0 2.634-2.634V96.769a2.634 2.634 0 0 0-2.634-2.635zm-2.634 14.363h-9.098v-9.09h9.098v9.09zm-23.882 12.377H41.304a2.634 2.634 0 0 0-2.634 2.634v14.362a2.635 2.635 0 0 0 2.634 2.635h14.363a2.635 2.635 0 0 0 2.634-2.635v-14.358a2.635 2.635 0 0 0-2.634-2.638zm-2.634 14.362h-9.098v-9.09h9.098v9.09zM29.15 120.874H14.788a2.634 2.634 0 0 0-2.634 2.634v14.362a2.635 2.635 0 0 0 2.634 2.635h14.363a2.635 2.635 0 0 0 2.634-2.635v-14.358a2.635 2.635 0 0 0-2.634-2.638zm-2.635 14.362h-9.098v-9.09h9.098v9.09zm82.184-14.362H94.337a2.634 2.634 0 0 0-2.634 2.634v14.362a2.635 2.635 0 0 0 2.634 2.635H108.7a2.634 2.634 0 0 0 2.634-2.635v-14.358a2.634 2.634 0 0 0-2.634-2.638zm-2.635 14.362H96.97v-9.09h9.094v9.09zm15.891 5.273h14.362a2.635 2.635 0 0 0 2.635-2.634v-14.363a2.634 2.634 0 0 0-2.635-2.634h-14.362a2.634 2.634 0 0 0-2.634 2.634v14.363a2.64 2.64 0 0 0 2.634 2.634zm2.634-14.363h9.098v9.09h-9.098v-9.09z" fill="#0E5C9F"/></svg>