<svg width="200" height="100" viewBox="0 0 200 100" fill="none" xmlns="http://www.w3.org/2000/svg"><path d="M28.125 12.733l24.6.347 12.14-3.064a3.43 3.43 0 0 1 .751-.087v-.014h24.47l7.587-8.426.94-1.041h27.2l.751.434 21.16 12.212 24.165-.13V9.626h28.125v56.727h-28.125v-5.998h-14.641L141.48 67.8l4.755 4.986c1.185 1.243 1.127 3.223-.116 4.408a3.05 3.05 0 0 1-.997.636l-51.77 21.506a3.104 3.104 0 0 1-3.353-.636L45.7 60.327l-17.56-.318v6.344H.014V9.626H28.14v3.122l-.015-.015zM190.634 47.32v6.258h-6.258V47.32h6.258zm-175.01 0v6.258H9.365V47.32h6.259zm156.25-28.154l-24.989.13h-.838l-.723-.42-21.13-12.198h-22.807l-7.428 8.253-.015.014-.043.058-.246.275L71.383 40.02c-.376.94-.289 2.053.145 3.079.39.925 1.07 1.806 1.936 2.5.882.694 1.951 1.214 3.137 1.388 2.023.317 4.466-.29 7.053-2.37l.188-.13 19.367-13.399 2.196-1.517 1.836 1.95 29.715 31.494 18.283-8.629.651-.303h15.999V19.165h-.015zm21.882-3.325h-15.623v44.226h15.623V15.84zM88.12 77.583a3.125 3.125 0 0 1-.275-4.393 3.125 3.125 0 0 1 4.394-.275l15.435 13.673 5.709-2.37-13.267-11.765a3.125 3.125 0 0 1-.275-4.394 3.125 3.125 0 0 1 4.394-.275l15.537 13.774 6.243-2.587-12.704-11.259a3.125 3.125 0 0 1-.274-4.394 3.124 3.124 0 0 1 4.393-.274l14.973 13.268 6.157-2.559-3.049-3.194-.015.015-1.546-1.633-.015-.015-.043-.043-.058-.058-29.339-31.088-17.026 11.779c-4.09 3.28-8.267 4.191-11.866 3.628a12.845 12.845 0 0 1-6.055-2.66c-1.677-1.33-2.992-3.064-3.787-4.928-1.185-2.79-1.257-5.94.202-8.715l.188-.362.26-.274L84.45 16.173H65.978l-12.112 3.05v-.015c-.246.058-.52.101-.795.087l-24.96-.347v34.817l18.803.332.188.015.101.014.174.03.087.014.1.029.073.014.376.13.058.029c.288.116.563.29.809.506L92.687 92.83l8.556-3.555-13.167-11.664.044-.028zM21.867 15.84H6.244v44.227h15.623V15.84z" fill="#0E5C9F"/></svg>