<svg width="1120" height="550" viewBox="0 0 1120 550" fill="none" xmlns="http://www.w3.org/2000/svg"><path d="M1002.88.873c-1.25.444-3.216 1.701-4.198 2.811-1.072 1.11-3.125 2.145-4.553 2.441-2.678.518-8.035 5.03-8.035 6.805 0 .518-.267.962-.714.962-.357 0-1.16 1.701-1.785 3.846-1.339 4.882-.089 5.622 8.748 5.178l2.232-.074-2.232 1.405c-2.499 1.628-4.106 1.85-4.999.666-.268-.444-1.607-.666-2.946-.444-1.428.222-2.946-.074-3.838-.74-1.429-1.035-1.875-1.035-4.91.149-1.875.74-4.375 2.07-5.624 2.958-1.25.888-3.393 1.998-4.732 2.367-1.428.37-4.017 1.702-5.802 3.033a530.573 530.573 0 0 0-8.213 5.992c-2.678 1.997-7.142 4.512-9.82 5.621-4.91 1.998-19.639 13.167-19.639 14.868 0 .444-1.161 2.663-2.678 4.956-1.429 2.293-2.679 4.808-2.679 5.548 0 .74-.982 1.775-2.231 2.22-1.25.443-2.232 1.478-2.232 2.218s-.982 2.071-2.232 2.959c-1.607 1.184-2.232 2.367-2.232 4.216 0 2.22.268 2.59 2.143 2.59 1.16 0 2.321.443 2.589 1.035.268.591 1.339.887 2.767.665 3.571-.591 10.356 1.998 10.356 3.92 0 1.036-.715 1.776-1.965 1.998-1.16.222-3.927.962-6.159 1.701-3.571 1.11-4.374 1.184-5.624.37-1.339-.888-1.339-1.183-.089-2.293 1.16-1.11 1.071-1.405-1.25-3.255l-2.5-1.997-2.41 2.293c-2.321 2.367-3.035 4.734-1.518 5.474.447.222 1.072 1.997 1.429 3.847.535 3.18.357 3.55-2.143 5.399-1.428 1.036-2.767 2.737-2.946 3.773-.178 1.183-.893 1.923-2.053 2.071-2.589.37-4.017 2.293-4.017 5.326 0 1.775-.625 3.18-1.786 4.068-.982.74-1.785 2.071-1.785 2.885 0 1.479-1.339 2.515-6.249 4.66-2.053.888-2.5.74-5.981-2.145l-3.749-3.033-5.982.444c-5.624.37-6.07.518-9.373 3.55-6.07 5.696-8.838 9.321-8.838 11.762 0 1.701-.982 3.18-3.838 5.695-3.839 3.329-3.928 3.329-6.963 2.441-2.679-.814-3.571-.74-6.249.444-1.607.74-3.482 1.257-4.018 1.184-.535-.074-1.696.517-2.588 1.331-1.607 1.479-4.018 1.997-4.018.888 0-.296.625-1.11 1.339-1.924 1.161-1.257 1.072-1.553-.982-2.884l-2.231-1.48-5.089 1.849c-5.713 1.998-7.677 4.217-7.677 8.951-.089 2.589-.268 2.811-2.321 2.441-1.339-.148-2.946.148-4.017.887-1.428.962-1.339.814.268-.665 4.285-4.069 1.964-5.03-6.16-2.367-4.642 1.479-6.695 2.589-7.588 4.068-1.428 2.367-3.749 3.55-6.874 3.55-1.16 0-2.856.666-3.838 1.554-1.429 1.331-1.518 1.627-.358 2.219 4.107 1.997 4.107 1.997 1.964 3.846-2.499 2.219-2.678 6.066-.267 7.175 1.071.444 1.964.444 2.231.074.536-.739 6.785 3.477 6.785 4.512 0 .296-.893.592-2.053.592-1.875 0-6.874 3.403-6.874 4.586 0 .296.714.666 1.607.814 1.25.296 1.25.37-.268.444-.982.074-3.303.444-5.088.887-3.482.74-6.071 3.551-6.071 6.436 0 2.071-5.535 2.885-8.213 1.257-1.16-.591-3.124-1.109-4.463-1.109-2.143 0-2.5.296-2.5 2.071 0 1.109.447 2.441 1.071 2.959.982.813 4.285 8.506 4.285 10.134 0 .369-1.874.813-4.285.887-3.481.148-4.731-.222-7.498-2.071-1.786-1.183-3.928-2.145-4.642-2.145-.714 0-1.429-.74-1.607-1.701-.179-1.332-.804-1.628-2.946-1.48-2.678.148-2.678.148-.714-1.109 3.124-2.071 1.785-7.619-1.696-6.658-1.697.518-5.446-3.55-4.732-5.251.536-1.406-1.25-2.146-6.517-2.663-1.16-.148-2.588-.592-3.303-1.11-.892-.592-1.606-.518-3.035.518-1.071.666-1.874 1.775-1.874 2.293 0 .592-.536.888-1.072.666-.625-.148-1.874 0-2.767.37-1.25.517-2.143.369-3.303-.518-.893-.666-2.232-1.11-2.857-.888-.625.148-1.874-.148-2.678-.74-1.339-.961-1.607-.813-2.41 1.776-1.339 3.772-1.25 4.216.803 7.397 2.411 3.846 2.321 5.251-.625 5.843-1.428.296-3.66 1.332-4.999 2.293-3.213 2.145-4.017 2.145-5.267-.148-1.071-1.997-2.499-1.775-2.499.444 0 1.258-.536 1.48-2.857 1.258-1.875-.148-2.946-.592-2.946-1.332-.089-.592-.446-1.701-.982-2.441-.803-1.183-1.25-1.257-6.249-.222-2.856.592-6.427 1.258-7.766 1.48-1.429.296-4.285 1.849-6.517 3.55-3.66 2.811-3.928 2.885-3.928 1.332 0-.962-.714-2.367-1.517-3.107-1.518-1.405-1.607-1.405-3.839.888-2.053 2.071-2.5 2.219-4.731 1.553-1.429-.444-4.018-.814-5.892-.814-3.214 0-3.303-.074-2.946-2.145.178-1.183 1.964-3.698 3.928-5.695 3.928-3.995 6.07-7.028 6.07-8.803 0-.592.446-1.775 1.071-2.589.893-1.183.804-1.775-.892-3.624-1.072-1.258-1.964-3.181-1.964-4.365 0-2.145-4.196-6.361-6.071-5.917-.446.148-1.874-.962-3.035-2.367-1.607-1.849-2.767-2.515-4.285-2.367-1.071.074-2.499-.148-3.124-.592-.715-.444-1.607-.37-2.768.37-.892.592-2.589 1.109-3.66 1.109-1.071 0-3.035.37-4.285.888-1.964.74-2.589.592-4.374-.814-1.875-1.479-2.767-1.627-6.07-1.183l-3.839.518 2.053-1.776c1.518-1.405 1.875-2.293 1.428-4.216-.446-1.553-1.071-2.293-2.053-2.219-.803.074-2.499-.074-3.838-.37-1.964-.444-3.036-.148-5.982 1.85-5.445 3.624-9.105 12.87-6.159 15.311 1.607 1.332-.625 2.367-5.267 2.367-3.125 0-3.749.222-3.571 1.48.089.813.714 1.627 1.518 1.849.982.37.535.74-1.518 1.479-1.607.592-2.946 1.406-2.946 1.849 0 .37-1.071.74-2.321.74-1.875 0-2.142-.296-1.696-1.479.446-1.258.178-1.48-2.232-1.48-1.517 0-2.946.444-3.214 1.036-.267.592-2.231 1.258-4.374 1.553-4.285.518-8.927 3.107-6.874 3.847 1.786.592-3.213 2.885-7.677 3.55-2.053.296-3.928.814-4.285 1.184-.268.37-1.785 1.183-3.481 1.701-1.607.592-3.393 1.775-4.018 2.589-.625 1.036-1.874 1.553-3.481 1.553-2.678 0-2.946.592-3.839 7.767-.089.814-1.25 2.219-2.499 3.107l-2.232 1.701 2.946 2.071c1.517 1.184 2.856 2.293 2.856 2.515 0 1.11-16.068 2.515-23.121 2.072-4.731-.296-6.159-.148-7.855.961-2.143 1.406-2.679 4.068-1.25 6.361.625.888.446 2.294-.357 4.365-1.25 2.884-1.161 3.18 1.071 5.991 1.339 1.702 2.678 3.033 3.124 3.033.715 0 3.393 3.92 3.393 5.178 0 1.331-3.214.814-4.999-.814-.893-.887-1.607-2.293-1.518-3.107.268-2.367-6.695-6.435-9.909-5.917-2.053.37-2.41.148-2.143-.962.179-.813-.624-1.775-2.142-2.441-2.41-1.109-2.589-1.109-5.356 1.258-2.678 2.219-2.768 2.515-1.429 3.18.893.37 1.875.74 2.232.74.804-.074 2.232 3.773 1.607 4.29-.268.148-1.607-.517-2.946-1.627-2.321-1.849-2.589-1.923-4.463-.814-1.875 1.036-1.964 1.036-1.518-.961.179-1.11.625-4.29.893-7.101l.535-4.956h-2.41c-2.053 0-2.232-.148-1.16-1.184.982-1.035.803-1.405-.982-2.515-2.232-1.405-2.232-1.405-2.857.592-.446 1.258-.268 2.367.536 3.107 1.517 1.405 1.249 8.358-.268 9.912-.714.665-2.053 1.183-3.125 1.183-1.16 0-3.749 1.48-6.159 3.551-3.75 3.18-4.107 3.698-2.946 4.586.803.518 1.428 1.775 1.428 2.811 0 .961.446 3.106 1.071 4.66.804 2.367.804 3.106-.357 4.142-2.41 2.367-6.07 9.172-6.07 11.391 0 1.184-.447 2.811-.982 3.551-1.696 2.145-.268 5.252 2.232 5.252 1.249 0 2.321.37 2.499.887.268.592 1.161.518 3.214-.295 2.589-1.11 3.035-1.11 6.427.295 4.017 1.702 7.142 4.513 7.142 6.584 0 2.663-1.607 1.997-3.66-1.554-2.143-3.624-2.143-3.624-6.695-3.698-3.928 0-4.821.296-7.41 2.515-2.857 2.441-2.946 2.737-2.41 6.657l.625 4.068-4.017 3.625c-2.232 1.997-4.107 4.29-4.107 5.104 0 1.035-.982 1.849-2.857 2.441a315.493 315.493 0 0 1-4.731 1.479c-.982.37-2.678.888-3.749 1.11-1.25.296-2.053 1.035-2.053 1.923 0 1.701-1.964 1.849-3.571.296-.625-.592-1.875-1.11-2.768-1.11-2.231 0-6.873-2.367-8.57-4.364-1.964-2.367-.803-2.663 2.411-.74 2.321 1.406 3.035 1.554 4.463.814.982-.444 2.321-.666 3.125-.444 2.589.888 5.445-.444 8.213-3.698 1.606-1.923 4.374-3.921 6.248-4.66 2.946-1.11 3.393-1.702 3.661-4.069.178-1.849.892-3.032 2.321-3.846 3.035-1.627 3.392-4.438.892-6.435-2.589-1.998-2.678-4.069-.357-10.134.982-2.589 1.786-5.622 1.786-6.731 0-1.036.982-3.107 2.142-4.587 1.25-1.479 2.678-4.734 3.214-7.249.893-4.068.803-4.808-.446-5.991-1.875-1.701-1.161-3.995 2.231-7.027 1.339-1.258 2.768-3.403 3.125-4.808.357-1.406 1.071-3.033 1.517-3.551.625-.592.625-1.923-.178-4.216-.982-2.959-1.429-3.329-3.66-3.329-1.339 0-2.768-.37-3.035-.739-.268-.444-1.429-.74-2.589-.74-1.161 0-2.768-.666-3.66-1.479-1.429-1.332-1.697-1.332-3.839-.148-1.25.665-3.571 3.624-5.535 7.175-3.571 6.361-6.784 9.246-12.23 10.873-2.41.74-3.66 1.701-4.82 3.921-1.429 2.514-1.429 3.106-.358 3.772 1.072.666 1.072 1.183 0 3.698-.714 1.554-1.249 3.329-1.339 3.921 0 .592-1.249 1.923-2.767 3.033-2.767 1.849-2.767 1.923-1.428 4.216.803 1.257 2.142 2.441 2.946 2.737 1.071.37 1.339 1.035.892 2.885-.357 1.701 0 3.106 1.339 4.882 1.607 2.293 1.696 2.588.447 3.18-.804.37-1.429 1.48-1.429 2.441 0 .962-.446 1.997-.982 2.293-1.249.592-2.588-1.035-2.588-3.106 0-.888-1.964-3.699-4.464-6.288-2.41-2.589-5.178-5.696-5.981-6.879-2.589-3.551-14.64-14.128-15.89-13.906-.625.074-1.607-.37-2.232-.962-.714-.74-1.875-.962-3.303-.666-1.964.444-2.142.37-1.339-.961.625-.888.625-1.85.089-2.515-.446-.518-.803-1.775-.803-2.663 0-2.293-1.875-5.4-3.214-5.4-.625 0-2.232.37-3.482.888-2.231.813-2.321 1.109-1.785 4.216.357 1.775 1.161 3.698 1.875 4.29.714.592 1.25 1.406 1.25 1.776 0 .369.803.665 1.785.665.982 0 1.785.296 1.785.74 0 .37-.357.74-.892.74-.447 0-.893 1.849-.893 4.068 0 3.55-.179 4.068-1.785 4.068-.982 0-1.786.518-1.786 1.11 0 .666-.803 1.109-2.232 1.109-1.249 0-2.499.518-2.767 1.11-.357.592-.893 1.109-1.339 1.109-1.428 0-.893-1.849.982-3.18.982-.666 1.785-1.702 1.785-2.219 0-1.406-3.213-3.699-4.374-3.181-.446.296-2.767.74-5.178 1.11-3.927.665-4.374.517-7.32-1.554-3.124-2.293-4.731-2.441-13.123-.961-3.213.591-4.106-.074-3.303-2.441.358-1.11 1.161-1.628 2.679-1.628 2.053 0 2.142-.222 1.606-2.367-.892-3.328-1.071-3.55-3.927-3.55-3.839 0-8.124 1.479-8.124 2.811-.089 1.035-.268 1.035-1.428-.222-.804-.888-2.5-1.48-4.642-1.628-14.373-.665-19.818-.739-19.818-.148 0 .296-.625.444-1.34.222-.714-.296-2.767-.222-4.463 0-2.321.37-3.125.888-3.125 1.923 0 2.367-2.856 3.107-6.963 1.776-3.213-1.11-3.57-1.48-4.106-4.512-.893-5.77-.804-5.992 2.678-6.584 2.589-.37 3.571-.148 5.356 1.258l2.143 1.701 1.964-1.553c1.249-1.036 1.964-2.885 2.321-5.252.357-3.107 0-4.142-1.696-6.214-5-5.917-7.499-7.988-9.82-7.988-2.232 0-2.321.074-1.875 3.92.357 3.625.179 4.068-1.964 5.178-1.25.74-2.321 1.775-2.321 2.367 0 .666-.982 1.479-2.142 1.923-2.321.888-4.107 3.477-4.107 5.918 0 4.734-7.141 8.358-9.819 4.956-.715-.888-2.232-2.515-3.214-3.551-1.875-1.775-2.143-1.775-6.071-.887-3.481.739-4.552.739-6.606-.148-1.785-.814-2.946-.814-4.195-.296-.893.444-3.571.739-5.981.665l-4.285-.073v2.884c0 1.628-.536 3.255-1.34 3.773-.803.518-1.249 1.627-1.16 2.515.179 1.183-.179 1.479-1.518 1.331-.982-.148-2.142-.74-2.678-1.405-.446-.666-1.785-2.071-2.856-3.181-1.339-1.405-2.411-3.92-3.125-7.693-.982-5.4-1.16-5.621-3.392-5.621-3.66 0-6.249 2.81-6.249 6.879 0 1.849.357 3.624.893 3.846 1.606.814.982 3.699-.982 4.734-1.786.888-2.232.74-5.089-1.701-2.946-2.367-3.124-2.737-2.053-4.438.982-1.48.982-2.367-.179-5.104-1.249-3.107-1.249-3.477.268-4.586.893-.666 1.875-2.441 2.232-3.921.714-3.106 3.571-6.065 5.981-6.065 3.125 0 7.41-8.433 5.356-10.578-1.16-1.183-.267-5.696 1.161-5.696.625 0 1.428 1.184 1.696 2.589.803 3.403 6.16 13.093 8.034 14.351.804.517 1.429 2.071 1.429 3.476 0 2.737 2.946 5.03 9.819 7.619 5.267 1.997 15.355 1.479 18.569-.962 5.802-4.29 9.462-15.015 6.159-18.048-1.785-1.702-2.588-5.326-2.767-13.241-.089-5.547-.357-6.879-2.143-8.654-1.071-1.184-1.963-2.885-1.963-3.921 0-.961-.625-1.923-1.339-2.145-.715-.296-1.34-1.183-1.34-2.071 0-.813-1.16-2.367-2.588-3.402-1.429-1.036-2.768-2.885-3.125-4.291-.446-2.219.536-3.254 1.696-1.627.268.37 1.339 1.11 2.321 1.553 1.786.74 1.786.592 1.161-2.81-.714-3.921-1.429-4.661-5.178-4.661-2.232 0-2.499-.148-1.964-1.997.625-1.923.625-1.923-1.607-.665-1.607.813-2.767.961-3.838.517-.893-.37-3.66-1.035-6.16-1.553-4.463-.814-4.821-.74-11.427 1.997l-6.784 2.737v3.994c0 2.145-.625 4.882-1.339 6.066-1.25 2.071-1.786 2.219-6.16 2.219-4.463 0-4.999.222-8.034 2.959-1.786 1.627-3.214 3.476-3.214 4.216 0 .666-1.428 3.255-3.124 5.844-2.232 3.254-3.571 4.512-4.464 4.29-.714-.222-3.035.592-5.088 1.849-2.054 1.258-4.464 2.293-5.357 2.293-1.249 0-1.606.592-1.606 2.589 0 1.627-.536 2.811-1.339 3.033-.715.296-1.34 1.331-1.34 2.515 0 2.663-2.588 4.438-6.427 4.438-3.124 0-3.124 0-3.749 3.846-.268 2.145-.536 5.326-.536 7.101 0 4.808-1.428 5.104-27.852 5.4-12.23.148-22.139.444-22.139.592 0 .222.892 1.11 1.963 2.071 1.607 1.406 1.875 2.441 1.697 5.548-.179 3.181.089 3.994 1.696 5.03 1.339.813 1.874 1.775 1.607 3.033l-.357 1.775-1.072-2.071c-.625-1.258-2.321-2.515-4.195-3.181-1.697-.592-3.125-1.332-3.125-1.701 0-.296-1.071-.962-2.41-1.48-2.232-.813-2.678-.739-4.285.814-.982.962-2.946 1.775-4.464 1.849-6.427.37-9.284 1.184-11.516 3.255-1.339 1.183-2.856 2.145-3.57 2.145-.715 0-1.697.962-2.232 2.219-.625 1.627-1.428 2.219-3.035 2.219-2.59 0-5.089 2.145-5.089 4.216 0 1.11-1.071 1.998-3.57 2.959-2.947 1.11-3.571 1.627-3.304 3.033.268 1.183-.624 2.663-2.588 4.734-3.571 3.477-3.66 4.29-1.16 7.989 1.606 2.367 1.785 3.18.981 5.104-.893 1.997-.714 2.293.982 2.736 3.124.74 5.088 2.589 5.088 4.661-.089 2.071-4.195 6.287-6.873 7.027-1.16.296-2.41 2.367-4.196 6.953-1.428 3.55-2.857 6.953-3.303 7.693-.447.813-.268 1.553.625 2.145 1.428.961 1.071 5.473-.536 6.879-1.339 1.183-4.91-.222-6.427-2.515-1.875-2.737-5-2.811-6.606-.148-.536.962-2.232 2.811-3.75 4.068-4.553 3.995-4.999 5.4-2.767 7.989 1.428 1.701 2.41 2.145 3.839 1.849 1.339-.296 2.32.074 2.946 1.036.624.74 1.963 1.479 3.124 1.627 4.642.518 5.356 8.95.893 10.578-1.072.37-2.232 1.257-2.41 1.923-.269.74-1.161 1.479-1.875 1.701-1.16.37-.982.962.982 3.625 2.767 3.994 2.856 6.213.089 9.32-2.321 2.589-2.232 4.734.357 6.213.803.518 1.785 1.628 2.142 2.515.358.888 2.41 2.811 4.642 4.291 3.84 2.663 4.018 2.884 3.84 6.287-.18 3.181.088 3.92 3.034 6.583 1.786 1.702 3.303 3.477 3.303 4.069 0 .517.625 1.405 1.34 1.923.714.518 1.339 1.627 1.339 2.515 0 .887.446 1.997.981 2.441 1.786 1.479 0 3.92-2.945 3.92-3.393 0-8.749 3.995-8.838 6.657 0 1.11-.982 2.515-2.678 3.625l-2.678 1.775-3.482-2.811c-2.767-2.219-4.106-2.736-7.41-2.958-4.284-.222-9.105 1.553-10.087 3.698-.536 1.11 2.767 3.994 4.642 4.068.446 0 1.696.518 2.678 1.184 1.696 1.109 1.696 1.109-.178.666-.982-.222-3.66-.518-5.892-.666-2.232-.148-5.089-.814-6.338-1.553-3.75-1.998-5.446-1.036-4.732 2.958l.625 3.329h-4.82c-3.66 0-5.446.37-7.32 1.627l-2.5 1.628-1.607-1.628c-1.786-1.923-4.553-2.071-6.249-.444-1.875 1.924-1.785 8.063.179 10.208.892.962 1.696 2.737 1.696 3.921 0 1.183.803 3.402 1.785 5.03 1.34 2.219 1.785 4.364 1.785 9.098 0 6.065.893 9.024 2.768 9.024 2.32 0 10.623 9.69 10.623 12.353 0 .518 1.518 1.775 3.392 2.811 3.75 2.071 8.213 7.101 8.213 9.246 0 .74.625 1.701 1.34 2.219.713.518 1.338 1.997 1.338 3.329 0 2.663 1.875 4.364 5.535 5.104 1.34.222 3.124 1.257 3.928 2.293.803 1.035 2.053 1.849 2.678 1.849.714 0 1.25.37 1.25.888 0 .443.625 1.405 1.428 2.145 1.16 1.109 1.25 1.701.357 3.772-.982 2.145-.892 2.811.804 5.03.982 1.406 1.874 3.329 1.874 4.29 0 .888.536 1.85 1.16 2.072.715.221 1.965 3.032 2.947 6.361 1.25 4.512 2.142 6.065 3.481 6.509 2.5.814 11.338.37 13.659-.665 2.142-.962 2.589-3.625 2.053-13.907-.268-4.438.09-5.843 1.785-8.284 1.072-1.702 2.321-3.033 2.768-3.033.357 0 .714-.37.714-.888 0-.444.625-1.405 1.339-2.071.803-.74 1.607-2.959 1.964-5.104.446-3.033.179-4.068-1.071-5.252-2.5-2.293-1.16-3.476 4.731-4.068 4.464-.444 5.803-.888 8.749-3.255l3.392-2.81 2.767 1.331c3.571 1.849 16.515 1.997 18.658.222 1.785-1.479 1.785-1.553-.357-3.773-2.5-2.588-2.411-4.29.089-3.032 1.518.813 1.964.739 3.124-.518.982-1.11 1.161-2.885.715-8.137-.536-6.213-.804-6.805-3.571-9.246-2.768-2.515-2.857-2.737-1.964-5.622.892-2.737.803-3.254-.982-5.177l-2.053-2.146 2.41-1.627c1.25-.962 3.124-1.701 4.106-1.701 2.678 0 5.267-1.332 5.267-2.737 0-1.849 4.464-5.4 6.785-5.4 1.071 0 2.767-.814 3.749-1.849.982-1.036 2.411-1.849 3.125-1.849 1.16 0 1.339.665.892 3.476-.535 4.069.982 5.844 5.446 6.288 2.232.222 2.857-.222 4.553-2.737 1.874-2.663 2.41-2.959 5.892-3.181 2.142-.148 4.642-.814 5.534-1.479 1.339-.962 2.054-1.036 4.642-.222 3.393.961 6.249.592 8.749-1.258 2.232-1.627 4.553-.37 5.088 2.885.447 2.367.625 2.515 4.107 2.515 3.66 0 6.606 1.258 6.606 2.885 0 .444 1.428 1.479 3.303 2.293 2.767 1.257 3.481 2.219 5.356 7.027 1.785 4.512 1.964 5.77 1.071 7.101-.535.962-.803 2.219-.535 2.811.714 1.553 3.838 1.479 5.088-.148.803-1.184.982-1.184 2.41.296.893.888 2.054 2.219 2.589 2.959 1.071 1.553 6.963 1.701 10.177.296 1.518-.666 2.41-.518 4.731.665 1.607.814 3.303 2.145 3.928 2.959.982 1.258 1.429 1.332 4.196.666 3.749-.962 5.892.074 5.892 2.811 0 .961 1.428 3.402 3.213 5.473 2.679 3.107 3.661 3.699 6.071 3.699 1.607 0 3.303-.37 3.749-.74.625-.518 1.518 0 2.857 1.48 1.785 1.923 2.589 2.219 6.517 2.219 4.106 0 4.91-.296 7.588-2.737 3.481-3.107 3.57-3.403 1.696-4.66-.714-.518-1.339-1.332-1.339-1.85 0-.517-1.429-2.367-3.125-3.994-3.481-3.55-3.303-5.178.536-5.104 3.571.074 5.445-1.553 5.535-5.03.178-2.663.446-2.885 2.946-3.106 1.785-.148 3.213.295 4.374 1.331 2.053 1.849 4.196 1.923 6.249 0 1.607-1.479 1.607-1.553-.982-3.92-2.589-2.293-2.857-3.329-2.232-8.507.179-1.405 3.125-1.035 6.606.888 2.589 1.479 4.553 1.849 11.427 2.145 4.642.222 10.176.74 12.408 1.257 5.178 1.11 7.767 1.11 10.356-.074 1.606-.665 2.678-.739 4.374-.074 1.25.518 4.642.888 7.409.888 2.768 0 5.624.296 6.249.592 1.429.739 10.445-.666 11.962-1.923 1.429-1.184 3.571-1.11 5.714.221.892.592 2.767 1.11 4.017 1.11 1.339 0 2.589.444 2.857 1.036.267.517 1.874 1.183 3.57 1.479 2.054.296 3.303.962 3.571 1.997.625 1.923-.268 6.657-1.428 7.841-.446.518-.536 1.775-.268 2.737.625 2.145 4.821 3.181 7.588 1.997 2.232-1.036 3.035-.074 2.232 2.441-.446 1.627-.179 1.997 1.875 2.663 1.696.518 2.767.518 3.57 0 .715-.518 1.964-.444 3.928.222l2.857.961-2.143.814c-2.053.814-3.749 4.29-2.678 5.622.268.37 1.964.518 3.75.37 1.785-.222 3.928 0 4.731.443 1.161.518 2.321.444 4.731-.517 1.786-.666 3.75-1.258 4.375-1.258.624 0 1.874-.666 2.767-1.479 1.071-.962 2.767-1.48 4.91-1.48 1.964 0 4.285-.591 5.535-1.479 2.142-1.331 3.392-1.331 3.392.148 0 .37-.982.962-2.232 1.331-3.124.962-3.124 4.217 0 5.178 1.25.37 3.035 1.776 3.839 3.107.803 1.257 2.767 3.477 4.285 4.956 3.213 3.107 4.82 6.583 4.82 10.43 0 1.553.625 3.18 1.339 3.698.715.518 1.339 1.775 1.339 2.885 0 1.035.804 3.033 1.786 4.364.982 1.332 1.785 2.885 1.785 3.477 0 1.775 2.768 8.062 4.107 9.32 1.785 1.627 5.624.887 6.784-1.258 1.339-2.367 4.285-2.367 4.285 0 0 2.293 4.642 5.622 7.142 5.104.982-.222 2.321 0 3.035.444 1.428 1.036 6.338.296 7.767-1.109.535-.592 1.696-1.036 2.499-.962 2.41.074 9.463 4.734 9.731 6.435.178.888 2.231 3.255 4.642 5.326 2.41 2.071 4.463 4.512 4.642 5.4.178 1.257 1.339 1.923 5.177 2.959 4.464 1.183 5.178 1.183 8.392.148 1.875-.666 3.481-1.11 3.66-.962.089.148 1.071 1.627 2.232 3.329 2.767 4.142 6.695 4.882 11.069 2.071 2.054-1.258 4.017-1.849 6.517-1.849 2.232 0 4.106-.444 4.731-1.184.715-.592 2.5-1.553 4.196-2.145 1.607-.592 2.946-1.553 2.946-2.145 0-.666.714-1.184 1.696-1.184.893 0 2.232-.591 2.857-1.257 2.142-2.145 9.105-5.4 11.605-5.4 1.607 0 2.5-.444 2.857-1.479.267-.962 1.249-1.48 2.678-1.48 1.16 0 2.678-.518 3.303-1.109 1.517-1.48 2.142-1.406 5.356.813 2.41 1.702 3.035 1.85 4.999 1.11 3.482-1.258 4.464-1.036 9.284 2.515 5.356 3.994 8.659 4.734 21.871 5.252l10.177.444 4.553-3.255c3.571-2.589 4.464-3.625 4.464-5.474 0-1.257-.625-2.737-1.339-3.255-.715-.517-1.339-1.849-1.339-2.958 0-1.11-.625-2.441-1.339-2.959-1.607-1.11-.893-4.142 1.428-6.361.982-.814 1.696-1.85 1.696-2.22 0-.443 1.16-1.701 2.589-2.81 2.499-1.998 2.767-1.998 4.642-.888 1.16.666 3.749 1.183 5.802 1.183 2.411 0 4.196.444 5.178 1.406 1.25 1.183 2.053 1.257 4.999.666 7.053-1.48 11.873.665 16.247 7.471 1.786 2.662 7.588 5.177 12.052 5.251 5.088 0 12.23-1.627 14.373-3.254 2.856-2.071 13.569-3.403 18.032-2.145 1.696.517 5.446.887 8.213.887 4.642.074 5.356.296 7.052 2.293 2.946 3.181 6.071 3.773 15.98 2.959 16.426-1.479 16.247-1.405 20.086-4.512 1.964-1.553 4.999-3.329 6.695-3.92 4.374-1.48 10.712-6.214 10.712-7.915 0-1.702 5.624-7.027 8.927-8.433 2.054-.887 2.768-.813 5.982.37l3.57 1.332 4.553-2.072c4.196-1.923 5.089-1.997 10.177-1.479 8.838.814 14.64-1.331 17.229-6.435.714-1.406 2.232-2.737 3.571-3.181 3.035-.962 3.035-4.29-.089-8.137-2.053-2.515-2.232-3.254-1.429-4.956.536-1.183 1.161-4.29 1.518-7.101.268-2.737.893-5.769 1.428-6.657 1.34-2.515-.357-7.175-3.66-9.764-2.321-1.849-2.946-2.071-4.463-1.257-2.143 1.109-2.143.961-.268-4.143 1.339-3.328 2.232-4.438 5.178-5.991 2.053-1.036 5.534-3.181 7.855-4.808 4.375-2.959 8.303-3.995 17.14-4.586 2.5-.148 7.053-.444 10.266-.74 5.357-.37 6.16-.222 9.642 1.627 2.053 1.11 3.749 2.515 3.749 3.033 0 .592 1.161 1.405 2.5 1.923 3.928 1.406 9.819 5.696 10.355 7.545.357 1.184 1.428 1.923 3.214 2.219 2.678.518 10.177 5.992 12.765 9.32 1.875 2.515 6.339 3.329 10.713 1.776 1.696-.592 3.392-1.406 3.749-1.85.714-.961 10.713-.961 15.087.074 2.41.592 3.66.592 4.374 0 .536-.443 1.607-.813 2.411-.813 2.053 0 6.248 3.846 6.248 5.769 0 1.11 1.072 2.071 3.571 3.107 4.553 1.923 8.035 1.923 8.659 0 .268-.814.893-1.479 1.518-1.479.536 0 3.125-1.184 5.624-2.589 4.107-2.293 4.642-2.811 4.196-4.66-.357-1.48.357-3.181 2.678-6.436 6.07-8.654 6.606-8.802 11.605-4.216 2.946 2.737 3.392 3.403 2.5 4.438-2.054 2.367-2.143 3.181-.536 4.66 1.964 1.776 4.107 6.288 4.285 8.877 0 1.035.538 2.367 1.068 2.958 1.25 1.258 2.24 5.104 2.5 9.173.09 1.627.63 3.624 1.16 4.512 1.52 2.145-.71 4.734-4.1 4.734-3.306 0-7.234 2.589-7.234 4.734 0 .887-.982 2.441-2.232 3.402-3.124 2.441-3.035 5.548.179 6.806 1.339.517 3.303 2.071 4.285 3.402.982 1.406 3.481 4.143 5.622 6.14 4.11 4.068 4.64 6.139 2.41 10.503-1.96 3.921-1.69 5.622.98 6.436 4.11 1.331 5.36-.666 6.34-9.838.36-3.477.63-4.142 1.61-3.477 1.52 1.036 3.12.37 3.12-1.331 0-.888.27-.962 1.07-.296 1.52 1.257 3.4 1.109 7.68-.592 1.97-.814 4.47-1.479 5.36-1.479 1.16 0 2.5-1.48 4.64-4.956 1.61-2.811 3.66-5.918 4.55-6.953 1.43-1.702 1.61-3.625 1.61-18.863 0-10.577.36-18.344 1.07-20.489 1.16-4.068.09-11.983-2.86-20.268-2.41-6.805-3.66-14.72-3.48-23.004.18-6.658.09-6.88-2.59-9.468-1.51-1.406-3.39-3.773-4.1-5.252-1.61-3.255-5.36-7.545-11.96-13.759-5.63-5.325-6.97-7.766-7.95-13.832-.89-5.252-.8-5.252 6.96-2.441 3.84 1.332 5.9 2.589 6.79 4.068.8 1.184 4.28 4.734 7.85 7.841 6.97 6.14 10.27 9.764 11.88 12.871.62 1.109 2.94 2.811 5.53 3.92 3.22 1.48 5.27 3.181 7.59 6.214 1.7 2.293 4.28 5.104 5.8 6.287 1.52 1.258 2.77 2.737 2.77 3.403 0 .591 2.41 3.106 5.36 5.547 4.46 3.699 5.62 4.291 6.96 3.625 2.32-1.258 2.23-2.663-.27-5.77-1.25-1.553-2.23-3.55-2.05-4.364.35-1.923 4.64-3.033 8.03-2.071 4.38 1.257 4.82-1.775.63-4.66-3.04-2.145-5.18-2.441-6.97-1.036-.89.814-1.42.666-2.5-.739-.8-.888-2.14-1.628-3.03-1.628-.89 0-1.88-.37-2.14-.739-.27-.444-1.7-.74-3.04-.74-1.52 0-3.84-.962-6.16-2.663-2.94-2.071-3.75-3.107-3.75-4.956 0-1.331-.98-3.624-2.23-5.104-2.5-3.033-3.12-7.989-.98-7.989 1.87 0 5.89-2.958 5.89-4.29 0-.739-1.43-1.849-3.39-2.589-5-1.997-11.34-5.178-13.04-6.657-.89-.74-3.03-1.997-4.9-2.811-1.79-.814-4.65-2.293-6.34-3.328-1.7-1.036-4.2-2.072-5.45-2.294-3.03-.443-8.12-4.734-10.89-9.098-1.52-2.441-2.77-3.402-4.91-3.846-1.61-.37-3.48-1.48-4.28-2.441-.81-1.036-2.24-1.849-3.13-1.849-.89 0-2.499-1.036-3.659-2.22-1.875-2.145-8.124-4.438-9.284-3.476-.357.222-.268 1.627 0 3.107.536 2.071.982 2.589 2.678 2.589 1.339 0 2.946.961 4.464 2.589l2.41 2.588h-2.143c-1.874 0-2.231.444-2.767 2.959-.446 2.293-1.071 3.181-2.857 3.699-3.035.961-6.874.961-8.123-.074-.625-.518-3.214-.74-6.696-.518-4.285.222-6.516.814-9.462 2.367l-3.75 2.145 2.678 4.068c3.214 4.956 3.214 5.178.715 5.474-1.161.148-2.411.962-2.946 1.923-1.071 1.998-2.232 2.145-2.232.222 0-.813-1.25-2.441-2.767-3.772-2.232-1.775-3.036-2.071-4.018-1.406-1.428.962-1.696 4.069-.357 4.734.536.222.893 1.036.893 1.702-.089 1.553-3.839-1.997-5.892-5.622-.803-1.257-1.696-2.367-2.053-2.367s-1.785 1.036-3.214 2.219c-1.428 1.184-3.124 2.219-3.928 2.219-.714 0-1.964.518-2.856 1.184-.893.665-2.054.961-2.5.665-1.25-.591-.268-8.284 1.25-10.355 2.053-2.811 3.928-19.01 2.321-20.638-1.339-1.331-.268-17.826 1.339-20.489.982-1.702.893-2.072-.804-3.477-2.499-2.071-2.588-6.805-.267-8.95 1.696-1.48 1.696-1.702.267-4.217-2.678-4.66-1.696-8.506 3.75-14.202 5.802-6.065 10.266-9.764 11.873-9.764.893 0 2.856-.517 4.374-1.109 2.5-1.11 2.5-1.258 1.25-2.885-1.428-1.775-.982-2.663 1.339-2.663 2.053 0 7.499-4.808 6.695-5.917-.446-.592-.268-.814.536-.592.714.222 2.142-.296 3.214-1.036l1.964-1.479-1.875-2.071c-2.321-2.663-1.428-4.956 2.499-6.362 1.697-.591 3.036-1.331 3.036-1.701 0-.592 7.498-4.512 8.57-4.512.178 0 .357.887.357 1.923 0 2.367 1.874 3.994 4.82 3.994 1.875 0 2.411-.517 3.303-3.18.625-1.702 1.875-3.625 2.857-4.291 1.518-1.035 1.696-1.775 1.25-4.586-.536-3.254-.447-3.402 1.874-3.624 1.784-.148 2.504-.666 2.674-2.071.18-1.036.81-2.219 1.43-2.589.63-.444 1.34-1.628 1.61-2.811.45-1.775.18-1.997-1.87-1.997-1.25 0-3.308.665-4.558 1.479-2.41 1.48-4.463.888-4.463-1.331 0-.666-.804-1.85-1.786-2.737-1.249-1.11-1.874-3.033-2.321-7.027-.357-3.033-1.16-6.214-1.785-7.027-.714-.814-1.25-2.589-1.25-4.069 0-1.775-.535-2.885-1.785-3.55-2.143-1.036-2.5-5.622-.625-7.471.714-.666 1.785-2.737 2.321-4.586.982-2.885 1.428-3.403 2.857-3.107 1.339.296 2.053-.148 2.856-1.923.982-2.219 2.41-3.107 2.41-1.554 0 .962 7.049 7.397 8.129 7.397.44 0 .8-.887.89-2.071 0-1.849.18-1.775 1.6.962l1.61 2.959 1.16-3.033c.63-1.701.89-4.586.54-6.657-1.34-9.395-1.7-11.096-2.41-11.688-1.25-1.109-.98-1.923.53-1.923.9 0 1.34-.74 1.34-2.219 0-1.775-.36-2.219-1.96-2.219-1.16 0-3.75-1.331-5.72-2.959-3.298-2.515-3.655-3.107-3.12-5.252.625-2.736 2.77-3.846 2.77-1.405 0 1.923 7.94 8.654 10.98 9.246 1.25.296 3.3 1.849 4.64 3.551 1.96 2.515 2.32 3.55 1.79 5.695-.36 1.406-.81 3.551-1.08 4.66-.26 1.258 0 2.515.9 3.329 1.43 1.332 7.76 15.83 7.76 17.827 0 .665 1.07 2.515 2.41 4.068 1.25 1.627 3.22 5.918 4.38 9.616 1.69 5.844 1.78 6.879.71 7.915-.8.74-1.07 1.997-.71 3.402.27 1.332.09 2.441-.45 2.737-.53.296-.98 1.332-.98 2.367 0 1.258.54 1.776 1.7 1.776 1.87 0 4.55 2.958 4.55 5.03 0 .813.62 1.849 1.34 2.367.71.517 1.34 1.701 1.34 2.662 0 1.11 2.05 3.625 5.8 7.028 3.21 2.884 5.8 5.473 5.8 5.843 0 1.258 9.2 5.4 16.7 7.397 4.28 1.184 8.48 2.737 9.19 3.477 2.05 1.997 5.62 3.772 13.66 6.583 4.02 1.479 8.12 3.255 9.19 4.068.99.74 2.5 1.406 3.4 1.406.8 0 2.85.813 4.46 1.849 1.7 1.036 4.11 1.849 5.71 1.849 1.88 0 3.31.592 4.56 1.923l1.87 1.998v-3.995c0-2.219-.62-5.991-1.34-8.432-.71-2.441-1.25-5.326-1.34-6.362 0-1.479-1.6-3.254-6.07-6.731-6.96-5.4-7.5-6.287-6.78-10.208.44-2.219.98-2.958 2.5-3.106 2.85-.37 2.59-3.625-.36-4.291-6.78-1.553-10.8-5.104-12.05-10.577-.54-2.663-.27-3.107 3.12-5.696 3.22-2.441 3.48-2.959 2.77-4.66-1.25-2.737-4.91-4.512-8.03-3.994-1.7.295-2.95.074-3.66-.518-.54-.592-1.88-1.258-3.04-1.48-2.14-.443-5.89-4.808-5.89-6.805 0-.592.62-1.257 1.43-1.553.71-.222 1.78-1.258 2.23-2.293.71-1.48.44-2.145-1.07-3.625-1.97-1.701-6.43-2.367-7.41-1.035-1.43 1.923-9.46-2.219-9.46-4.882 0-1.184-6.08-6.658-6.61-5.992-2.14 2.589-3.93 5.992-3.57 6.879.8 1.702-.98 1.332-5.27-1.109-4.37-2.441-5.09-3.403-5.09-6.805 0-1.85-1.16-3.329-5.35-6.953-4.91-4.217-5.27-4.809-4.73-7.102.26-1.479 1.69-3.254 3.48-4.512 3.48-2.441 3.75-3.18 1.25-3.846-.99-.296-1.79-1.11-1.79-1.923 0-.814-.45-2.219-.98-3.107-.98-1.553-.98-1.553.62-.444.9.592 2.77 1.48 4.2 1.997 2.23.814 2.41.74 2.41-1.109 0-1.036-.8-3.033-1.87-4.364-1.52-2.072-1.7-2.885-.9-5.178.63-1.85.63-3.107 0-3.699-.62-.592-.18-1.701 1.34-3.624 1.25-1.48 2.5-3.329 2.77-4.143.71-1.701 4.11-2.515 6.52-1.479 1.42.592 2.14.444 3.75-1.11l2.14-1.775-2.77-2.441c-2.86-2.441-4.73-6.583-4.73-10.43 0-1.109-.98-3.032-2.23-4.216-1.16-1.183-2.41-3.402-2.68-4.956-.36-1.479-1.34-4.882-2.32-7.471-.89-2.589-1.7-6.435-1.7-8.506-.09-2.071-.71-5.104-1.43-6.731-.8-1.628-1.51-3.699-1.6-4.66-.18-.888-.99-2.145-1.97-2.737-1.6-1.036-1.6-1.036.36-1.11 1.43 0 2.32-.666 3.04-2.219.53-1.405 1.69-2.367 3.03-2.663 1.7-.37 2.14-.962 2.14-2.885 0-1.331-.62-2.885-1.43-3.402-.8-.518-1.78-1.776-2.23-2.663-.62-1.406-1.07-1.627-2.41-1.036-.89.444-2.5.518-3.57.296-1.16-.222-2.94.148-4.28.888-1.25.665-2.5 1.035-2.77.813-.36-.222-1.16 0-1.88.518-1.07.666-1.42.666-1.69-.074-.27-.591-2.32-.887-5.8-.887-4.65 0-5.63.222-7.15 1.849-.98 1.035-2.5 1.85-3.57 1.85-1.69 0-1.69 0 .18-2.59 1.7-2.293 1.79-2.959.89-6.435-.71-3.107-1.87-4.734-5.53-7.915-4.374-3.698-4.731-3.92-8.034-3.477-3.125.444-3.482.296-4.285-1.479-.536-1.11-.804-2.071-.715-2.145.893-.592 7.856-.814 9.017-.296.977.518 1.877.148 3.307-1.331 1.6-1.702 1.87-2.663 1.42-5.474-.71-4.29.27-5.03 6.07-4.882 3.4.148 4.56-.148 5.36-1.258 3.21-4.438 4.91-5.917 7.68-6.657 2.5-.666 3.21-1.331 4.19-3.994.63-1.923.81-3.847.36-4.808-.45-.888-.62-2.441-.36-3.477l.36-1.849-2.41 1.997-2.41 1.997-3.84-3.476c-2.77-2.515-3.84-3.107-3.93-2.145 0 1.035-.35 1.183-1.51.665-.99-.517-1.52-1.7-1.52-3.55-.09-2.441-.36-2.811-1.79-2.663-1.43.222-1.6.074-.71-.74.8-.887.62-1.405-1.16-2.81-1.25-.962-2.23-2.516-2.23-3.477 0-1.923-.27-1.923-3.75-.666zm2.85 72.934c0 .37-.8.74-1.87.74-.98 0-1.52-.37-1.25-.74.27-.444 1.16-.74 1.87-.74.72 0 1.25.296 1.25.74zm-1.78 3.699c0 .37-.45.74-.98.74-.45 0-.63-.37-.36-.74.27-.444.71-.74.98-.74.18 0 .36.296.36.74zm-386.9 97.491c-1.964.37-2.678-.221-1.874-1.331.446-.592.982-.518 1.964.148 1.339.888 1.249.962-.09 1.183zm21.425 36.098c-.446 1.405-.178 1.775 1.25 1.775 2.767 0 2.142 1.257-1.696 3.255-1.964 1.035-3.75 2.514-4.107 3.328-.267.74-1.606 1.553-2.945 1.701-1.34.222-3.214.666-4.196 1.036-1.607.518-1.607.444.268-1.479 1.071-1.184 1.964-2.515 1.964-3.107 0-.518 1.249-1.11 2.678-1.406 1.874-.369 2.678-.887 2.678-1.997 0-1.923 2.767-5.769 3.838-5.252.447.222.536 1.184.268 2.146zM476.003 247.71c.714.591 1.25 1.479 1.25 1.923 0 .444.535.961 1.16 1.183.714.222.625.518-.446.888-.803.296-2.41-.074-3.749-.74-1.875-1.035-2.321-1.849-2.321-4.364 0-3.92 1.071-4.956 2.142-2.145.446 1.109 1.339 2.589 1.964 3.255zm520.715 107.329c.535.518 2.142 2.145 3.662 3.625 3.12 3.107 3.48 5.104.89 5.104-1.07 0-2.321-.888-3.124-2.219-.893-1.406-2.053-2.219-3.214-2.219-1.607 0-1.785-.148-.714-1.184.893-.888.893-1.479.089-2.589-.892-1.109-.803-1.405.268-1.405.714 0 1.696.444 2.143.887z" fill="url(#a)"/><path d="M583.428 184.846c-2.889 2.587-3.677 2.661-4.027.518-.263-1.922-2.802-2.587-4.641-1.331-1.838 1.257-1.663 3.178.526 5.47 1.751 1.847 1.926 1.921 2.976.739.963-1.183 1.139-1.183 2.277.517.613.961 1.05 2.291.963 2.956-.175.666.35 1.552 1.05 2.07 1.051.739 1.401.591 1.839-.591.35-.887 2.101-1.922 4.64-2.661 2.276-.591 5.078-1.774 6.216-2.513 1.926-1.257 2.014-1.404.613-3.622-1.051-1.7-2.101-2.365-3.59-2.365-1.138 0-3.064-.295-4.202-.665-1.839-.591-2.539-.369-4.64 1.478zm-27.053 12.565c-.35.443-.438.813-.35.961 4.29 2.365 5.34 2.734 6.479 1.921 2.013-1.404.087-3.695-3.065-3.695-1.4 0-2.801.369-3.064.813zm-127.734 2.661c-.701 1.552.7 2.808 2.451 2.217 1.926-.591 1.751-1.774-.262-2.661-1.314-.591-1.751-.517-2.189.444zm32.918 35.18c-2.101 1.848-2.539 4.213-.875 4.213.525 0 1.663.517 2.451 1.109 1.401 1.034 1.751.96 4.29-.739 1.926-1.405 2.714-2.661 2.714-4.139 0-1.996-.262-2.144-3.327-2.144-2.364 0-3.939.518-5.253 1.7zm-118.541 10.052c-1.313 1.108-1.051 2.587.7 4.434.613.592 2.977-1.626 2.977-2.882 0-2.144-1.926-2.957-3.677-1.552zm-13.22 5.765c-1.138.887-.613 2.439.875 2.439.788 0 2.189.517 3.064 1.256 1.489 1.109 1.576 1.109 1.576-1.035 0-1.404-.525-2.439-1.4-2.734-1.751-.591-3.415-.591-4.115.074zm-20.399 15.373c-.525 1.774.788 4.065 2.364 4.065.437 0 1.401-.813 2.188-1.848 1.139-1.478 1.226-2.069.351-2.956-1.751-1.774-4.29-1.331-4.903.739zm449.653 122.245c0 .444-.526.813-1.226.813-1.839 0-2.977 1.552-3.327 4.435-.263 2.217 0 2.586 1.663 2.586 1.051 0 2.189.296 2.539.592 1.051.887 3.853-1.848 3.853-3.696 0-1.034-.788-2.66-1.751-3.695-.963-1.035-1.751-1.552-1.751-1.035z" fill="#D5EBFF"/><defs><linearGradient id="a" x1="731.03" y1="689.673" x2="45.221" y2="-21.999" gradientUnits="userSpaceOnUse"><stop stop-color="#0055C9"/><stop offset="1" stop-color="#00DDFB" stop-opacity=".35"/></linearGradient></defs></svg>