<svg width="70" height="70" viewBox="0 0 70 70" fill="none" xmlns="http://www.w3.org/2000/svg"><g opacity=".5"><path d="M68.833 60.667h-3.5v-17.5H63v17.5H44.816a5.115 5.115 0 0 0-3.641 1.508 2.798 2.798 0 0 1-1.991.825h-8.367a2.798 2.798 0 0 1-1.992-.825 5.116 5.116 0 0 0-3.642-1.508H7V26.833A2.336 2.336 0 0 1 9.333 24.5v-2.333a4.672 4.672 0 0 0-4.666 4.666v33.834h-3.5A1.167 1.167 0 0 0 0 61.833v3.5A4.672 4.672 0 0 0 4.667 70h60.666A4.672 4.672 0 0 0 70 65.333v-3.5a1.167 1.167 0 0 0-1.167-1.166zm-1.166 4.666a2.336 2.336 0 0 1-2.334 2.334H4.667a2.336 2.336 0 0 1-2.334-2.334V63h22.85a2.798 2.798 0 0 1 1.992.825 5.116 5.116 0 0 0 3.642 1.508h8.367a5.117 5.117 0 0 0 3.641-1.508A2.798 2.798 0 0 1 44.816 63h22.85v2.333z" fill="#0055C9"/><path d="M68.833 60.667h-3.5v-17.5H63v17.5H44.816a5.115 5.115 0 0 0-3.641 1.508 2.798 2.798 0 0 1-1.991.825h-8.367a2.798 2.798 0 0 1-1.992-.825 5.116 5.116 0 0 0-3.642-1.508H7V26.833A2.336 2.336 0 0 1 9.333 24.5v-2.333a4.672 4.672 0 0 0-4.666 4.666v33.834h-3.5A1.167 1.167 0 0 0 0 61.833v3.5A4.672 4.672 0 0 0 4.667 70h60.666A4.672 4.672 0 0 0 70 65.333v-3.5a1.167 1.167 0 0 0-1.167-1.166zm-1.166 4.666a2.336 2.336 0 0 1-2.334 2.334H4.667a2.336 2.336 0 0 1-2.334-2.334V63h22.85a2.798 2.798 0 0 1 1.992.825 5.116 5.116 0 0 0 3.642 1.508h8.367a5.117 5.117 0 0 0 3.641-1.508A2.798 2.798 0 0 1 44.816 63h22.85v2.333z" fill="url(#a)"/><path d="M56 47.833h2.333v10.5H56v-10.5z" fill="#0055C9"/><path d="M56 47.833h2.333v10.5H56v-10.5z" fill="url(#b)"/><path d="M28 12.833H16.333a4.672 4.672 0 0 0-4.666 4.667v40.833H14V17.5a2.336 2.336 0 0 1 2.333-2.333H28v-2.334z" fill="#0055C9"/><path d="M28 12.833H16.333a4.672 4.672 0 0 0-4.666 4.667v40.833H14V17.5a2.336 2.336 0 0 1 2.333-2.333H28v-2.334z" fill="url(#c)"/><path d="M16.333 17.5h2.334v2.333h-2.334V17.5z" fill="#0055C9"/><path d="M16.333 17.5h2.334v2.333h-2.334V17.5z" fill="url(#d)"/><path d="M21 17.5h2.333v2.333H21V17.5z" fill="#0055C9"/><path d="M21 17.5h2.333v2.333H21V17.5z" fill="url(#e)"/><path d="M25.667 17.5H28v2.333h-2.333V17.5z" fill="#0055C9"/><path d="M25.667 17.5H28v2.333h-2.333V17.5z" fill="url(#f)"/><path d="M19.833 29.167a3.5 3.5 0 1 0 0 7 3.5 3.5 0 0 0 0-7zm0 4.666a1.167 1.167 0 1 1 0-2.333 1.167 1.167 0 0 1 0 2.333z" fill="#0055C9"/><path d="M19.833 29.167a3.5 3.5 0 1 0 0 7 3.5 3.5 0 0 0 0-7zm0 4.666a1.167 1.167 0 1 1 0-2.333 1.167 1.167 0 0 1 0 2.333z" fill="url(#g)"/><path d="M25.667 33.833H28v2.334h-2.333v-2.334z" fill="#0055C9"/><path d="M25.667 33.833H28v2.334h-2.333v-2.334z" fill="url(#h)"/><path d="M19.833 38.5a3.5 3.5 0 1 0 0 7 3.5 3.5 0 0 0 0-7zm0 4.667a1.167 1.167 0 1 1 0-2.334 1.167 1.167 0 0 1 0 2.334z" fill="#0055C9"/><path d="M19.833 38.5a3.5 3.5 0 1 0 0 7 3.5 3.5 0 0 0 0-7zm0 4.667a1.167 1.167 0 1 1 0-2.334 1.167 1.167 0 0 1 0 2.334z" fill="url(#i)"/><path d="M25.667 38.5h3.5v2.333h-3.5V38.5z" fill="#0055C9"/><path d="M25.667 38.5h3.5v2.333h-3.5V38.5z" fill="url(#j)"/><path d="M25.667 43.167h22.166V45.5H25.667v-2.333z" fill="#0055C9"/><path d="M25.667 43.167h22.166V45.5H25.667v-2.333z" fill="url(#k)"/><path d="M19.833 47.833a3.5 3.5 0 1 0 0 7 3.5 3.5 0 0 0 0-7zm0 4.667a1.167 1.167 0 1 1 0-2.333 1.167 1.167 0 0 1 0 2.333z" fill="#0055C9"/><path d="M19.833 47.833a3.5 3.5 0 1 0 0 7 3.5 3.5 0 0 0 0-7zm0 4.667a1.167 1.167 0 1 1 0-2.333 1.167 1.167 0 0 1 0 2.333z" fill="url(#l)"/><path d="M25.667 47.833h22.166v2.334H25.667v-2.334z" fill="#0055C9"/><path d="M25.667 47.833h22.166v2.334H25.667v-2.334z" fill="url(#m)"/><path d="M25.667 52.5H42v2.333H25.667V52.5z" fill="#0055C9"/><path d="M25.667 52.5H42v2.333H25.667V52.5z" fill="url(#n)"/><path d="M44.333 52.5h7v2.333h-7V52.5z" fill="#0055C9"/><path d="M44.333 52.5h7v2.333h-7V52.5z" fill="url(#o)"/><path d="M25.667 29.167H28V31.5h-2.333v-2.333z" fill="#0055C9"/><path d="M25.667 29.167H28V31.5h-2.333v-2.333z" fill="url(#p)"/><path d="M16.333 22.167H28V24.5H16.333v-2.333z" fill="#0055C9"/><path d="M16.333 22.167H28V24.5H16.333v-2.333z" fill="url(#q)"/><path d="M64.167 0h-28a5.84 5.84 0 0 0-5.834 5.833V35a5.84 5.84 0 0 0 5.834 5.833h14v7a1.166 1.166 0 0 0 1.991.825l7.825-7.825h4.184A5.84 5.84 0 0 0 70 35V5.833A5.84 5.84 0 0 0 64.167 0zm3.5 35a3.504 3.504 0 0 1-3.5 3.5H59.5a1.167 1.167 0 0 0-.825.342L52.5 45.017v-5.35a1.167 1.167 0 0 0-1.167-1.167H36.167a3.504 3.504 0 0 1-3.5-3.5V5.833a3.504 3.504 0 0 1 3.5-3.5h28a3.504 3.504 0 0 1 3.5 3.5V35z" fill="#0055C9"/><path d="M64.167 0h-28a5.84 5.84 0 0 0-5.834 5.833V35a5.84 5.84 0 0 0 5.834 5.833h14v7a1.166 1.166 0 0 0 1.991.825l7.825-7.825h4.184A5.84 5.84 0 0 0 70 35V5.833A5.84 5.84 0 0 0 64.167 0zm3.5 35a3.504 3.504 0 0 1-3.5 3.5H59.5a1.167 1.167 0 0 0-.825.342L52.5 45.017v-5.35a1.167 1.167 0 0 0-1.167-1.167H36.167a3.504 3.504 0 0 1-3.5-3.5V5.833a3.504 3.504 0 0 1 3.5-3.5h28a3.504 3.504 0 0 1 3.5 3.5V35z" fill="url(#r)"/><path d="M51.392 4.667h-2.45a9.285 9.285 0 0 0-9.275 9.275v2.391a1.167 1.167 0 0 0 1.166 1.167H45.5a1.167 1.167 0 0 0 1.167-1.167v-2.391a2.278 2.278 0 0 1 2.275-2.275h2.45A2.275 2.275 0 0 1 53 15.55l-3.617 3.616a9.213 9.213 0 0 0-2.716 6.559 1.166 1.166 0 0 0 1.166 1.167H52.5a1.167 1.167 0 0 0 1.167-1.167 2.26 2.26 0 0 1 .666-1.608L57.95 20.5a9.274 9.274 0 0 0-6.558-15.833zM56.3 18.85l-3.617 3.616c-.58.578-.995 1.3-1.201 2.092h-2.385a6.89 6.89 0 0 1 1.936-3.742L54.65 17.2a4.608 4.608 0 0 0-3.258-7.867h-2.45a4.613 4.613 0 0 0-4.609 4.609v1.225H42v-1.225A6.949 6.949 0 0 1 48.942 7h2.45A6.941 6.941 0 0 1 56.3 18.85z" fill="#0055C9"/><path d="M51.392 4.667h-2.45a9.285 9.285 0 0 0-9.275 9.275v2.391a1.167 1.167 0 0 0 1.166 1.167H45.5a1.167 1.167 0 0 0 1.167-1.167v-2.391a2.278 2.278 0 0 1 2.275-2.275h2.45A2.275 2.275 0 0 1 53 15.55l-3.617 3.616a9.213 9.213 0 0 0-2.716 6.559 1.166 1.166 0 0 0 1.166 1.167H52.5a1.167 1.167 0 0 0 1.167-1.167 2.26 2.26 0 0 1 .666-1.608L57.95 20.5a9.274 9.274 0 0 0-6.558-15.833zM56.3 18.85l-3.617 3.616c-.58.578-.995 1.3-1.201 2.092h-2.385a6.89 6.89 0 0 1 1.936-3.742L54.65 17.2a4.608 4.608 0 0 0-3.258-7.867h-2.45a4.613 4.613 0 0 0-4.609 4.609v1.225H42v-1.225A6.949 6.949 0 0 1 48.942 7h2.45A6.941 6.941 0 0 1 56.3 18.85z" fill="url(#s)"/><path d="M52.5 29.167h-4.667a1.167 1.167 0 0 0-1.166 1.166V35a1.166 1.166 0 0 0 1.166 1.167H52.5A1.167 1.167 0 0 0 53.667 35v-4.667a1.167 1.167 0 0 0-1.167-1.166zm-1.167 4.666H49V31.5h2.333v2.333z" fill="#0055C9"/><path d="M52.5 29.167h-4.667a1.167 1.167 0 0 0-1.166 1.166V35a1.166 1.166 0 0 0 1.166 1.167H52.5A1.167 1.167 0 0 0 53.667 35v-4.667a1.167 1.167 0 0 0-1.167-1.166zm-1.167 4.666H49V31.5h2.333v2.333z" fill="url(#t)"/></g><defs><linearGradient id="a" x1="14.583" y1="33.023" x2="32.228" y2="99.68" gradientUnits="userSpaceOnUse"><stop stop-color="#045ACE"/><stop offset="1" stop-color="#0FD4FF" stop-opacity=".46"/></linearGradient><linearGradient id="b" x1="56.486" y1="50.216" x2="63.244" y2="54.093" gradientUnits="userSpaceOnUse"><stop stop-color="#045ACE"/><stop offset="1" stop-color="#0FD4FF" stop-opacity=".46"/></linearGradient><linearGradient id="c" x1="15.069" y1="23.16" x2="48.896" y2="54.506" gradientUnits="userSpaceOnUse"><stop stop-color="#045ACE"/><stop offset="1" stop-color="#0FD4FF" stop-opacity=".46"/></linearGradient><linearGradient id="d" x1="16.82" y1="18.03" x2="17.991" y2="21.055" gradientUnits="userSpaceOnUse"><stop stop-color="#045ACE"/><stop offset="1" stop-color="#0FD4FF" stop-opacity=".46"/></linearGradient><linearGradient id="e" x1="21.486" y1="18.03" x2="22.658" y2="21.055" gradientUnits="userSpaceOnUse"><stop stop-color="#045ACE"/><stop offset="1" stop-color="#0FD4FF" stop-opacity=".46"/></linearGradient><linearGradient id="f" x1="26.153" y1="18.03" x2="27.325" y2="21.055" gradientUnits="userSpaceOnUse"><stop stop-color="#045ACE"/><stop offset="1" stop-color="#0FD4FF" stop-opacity=".46"/></linearGradient><linearGradient id="g" x1="17.792" y1="30.755" x2="21.308" y2="39.832" gradientUnits="userSpaceOnUse"><stop stop-color="#045ACE"/><stop offset="1" stop-color="#0FD4FF" stop-opacity=".46"/></linearGradient><linearGradient id="h" x1="26.153" y1="34.363" x2="27.325" y2="37.388" gradientUnits="userSpaceOnUse"><stop stop-color="#045ACE"/><stop offset="1" stop-color="#0FD4FF" stop-opacity=".46"/></linearGradient><linearGradient id="i" x1="17.792" y1="40.089" x2="21.308" y2="49.165" gradientUnits="userSpaceOnUse"><stop stop-color="#045ACE"/><stop offset="1" stop-color="#0FD4FF" stop-opacity=".46"/></linearGradient><linearGradient id="j" x1="26.396" y1="39.03" x2="27.238" y2="42.291" gradientUnits="userSpaceOnUse"><stop stop-color="#045ACE"/><stop offset="1" stop-color="#0FD4FF" stop-opacity=".46"/></linearGradient><linearGradient id="k" x1="30.285" y1="43.696" x2="30.426" y2="47.17" gradientUnits="userSpaceOnUse"><stop stop-color="#045ACE"/><stop offset="1" stop-color="#0FD4FF" stop-opacity=".46"/></linearGradient><linearGradient id="l" x1="17.792" y1="49.422" x2="21.308" y2="58.498" gradientUnits="userSpaceOnUse"><stop stop-color="#045ACE"/><stop offset="1" stop-color="#0FD4FF" stop-opacity=".46"/></linearGradient><linearGradient id="m" x1="30.285" y1="48.363" x2="30.426" y2="51.837" gradientUnits="userSpaceOnUse"><stop stop-color="#045ACE"/><stop offset="1" stop-color="#0FD4FF" stop-opacity=".46"/></linearGradient><linearGradient id="n" x1="29.069" y1="53.03" x2="29.261" y2="56.498" gradientUnits="userSpaceOnUse"><stop stop-color="#045ACE"/><stop offset="1" stop-color="#0FD4FF" stop-opacity=".46"/></linearGradient><linearGradient id="o" x1="45.792" y1="53.03" x2="46.234" y2="56.452" gradientUnits="userSpaceOnUse"><stop stop-color="#045ACE"/><stop offset="1" stop-color="#0FD4FF" stop-opacity=".46"/></linearGradient><linearGradient id="p" x1="26.153" y1="29.696" x2="27.325" y2="32.722" gradientUnits="userSpaceOnUse"><stop stop-color="#045ACE"/><stop offset="1" stop-color="#0FD4FF" stop-opacity=".46"/></linearGradient><linearGradient id="q" x1="18.764" y1="22.696" x2="19.032" y2="26.155" gradientUnits="userSpaceOnUse"><stop stop-color="#045ACE"/><stop offset="1" stop-color="#0FD4FF" stop-opacity=".46"/></linearGradient><linearGradient id="r" x1="38.597" y1="11.121" x2="67.047" y2="70.575" gradientUnits="userSpaceOnUse"><stop stop-color="#045ACE"/><stop offset="1" stop-color="#0FD4FF" stop-opacity=".46"/></linearGradient><linearGradient id="s" x1="44.041" y1="9.711" x2="55.674" y2="38.083" gradientUnits="userSpaceOnUse"><stop stop-color="#045ACE"/><stop offset="1" stop-color="#0FD4FF" stop-opacity=".46"/></linearGradient><linearGradient id="t" x1="48.125" y1="30.755" x2="51.641" y2="39.832" gradientUnits="userSpaceOnUse"><stop stop-color="#045ACE"/><stop offset="1" stop-color="#0FD4FF" stop-opacity=".46"/></linearGradient></defs></svg>