<svg width="70" height="70" viewBox="0 0 70 70" fill="none" xmlns="http://www.w3.org/2000/svg"><g opacity=".5"><path d="M68.906 26.005v-8.261l-4.078-1.045a17.473 17.473 0 0 0-1.232-2.979l2.145-3.62-5.842-5.842-3.62 2.145a17.394 17.394 0 0 0-2.98-1.232l-1.044-4.077h-8.261l-1.045 4.078c-1.033.32-2.032.733-2.979 1.232l-3.62-2.145-1.208 1.21H18.594V4.375a3.285 3.285 0 0 0-3.282-3.281h-4.374a3.285 3.285 0 0 0-3.282 3.281v1.094H1.094v63.437h50.312v-26.25h.849l1.044-4.078a17.473 17.473 0 0 0 2.98-1.232l3.62 2.145 5.842-5.842-2.145-3.62a17.4 17.4 0 0 0 1.232-2.98l4.078-1.044zm-52.5 7.901H14.22v-17.5h2.187v17.5zm-6.562-17.5h2.187v17.5H9.844v-17.5zm5.613 19.688l-2.332 3.496-2.332-3.496h4.664zm.95-21.875H9.843V12.03h6.562v2.188zm-3.282 29.316l3.502-5.254h1.967v8.75H7.656v-8.75h1.967l3.502 5.254zM10.937 3.28h4.376c.603 0 1.093.49 1.093 1.094v5.469H9.844V4.375c0-.604.49-1.094 1.094-1.094zM49.22 66.72H3.28V7.656h4.375v27.675l.509.763H5.469v13.125H20.78V36.094h-2.696l.509-.763V7.656h14.36l-2.444 2.445 2.145 3.62a17.4 17.4 0 0 0-1.232 2.98l-4.08 1.044v8.261l4.08 1.045a17.5 17.5 0 0 0 1.23 2.979l-2.144 3.62 5.842 5.842 3.62-2.145a17.39 17.39 0 0 0 2.98 1.232l1.044 4.077h5.224V66.72zm13.84-41.476l-.166.616a15.2 15.2 0 0 1-1.505 3.643l-.32.553 1.924 3.247-3.44 3.44-3.247-1.924-.553.32a15.2 15.2 0 0 1-3.644 1.505l-.615.166-.937 3.659h-4.863l-.937-3.659-.615-.166a15.2 15.2 0 0 1-3.644-1.505l-.553-.32-3.246 1.924-3.441-3.44 1.924-3.247-.32-.553a15.2 15.2 0 0 1-1.505-3.643l-.166-.616-3.66-.936v-4.864l3.659-.937.166-.615a15.2 15.2 0 0 1 1.505-3.644l.32-.553-1.924-3.246 3.44-3.441 3.247 1.924.553-.32a15.203 15.203 0 0 1 3.644-1.505l.615-.166.937-3.66h4.863l.937 3.659.615.166c1.286.346 2.51.852 3.644 1.505l.553.32 3.246-1.924 3.441 3.44-1.924 3.247.32.553a15.2 15.2 0 0 1 1.505 3.643l.166.616 3.66.936v4.864l-3.659.938z" fill="#0055C9"/><path d="M68.906 26.005v-8.261l-4.078-1.045a17.473 17.473 0 0 0-1.232-2.979l2.145-3.62-5.842-5.842-3.62 2.145a17.394 17.394 0 0 0-2.98-1.232l-1.044-4.077h-8.261l-1.045 4.078c-1.033.32-2.032.733-2.979 1.232l-3.62-2.145-1.208 1.21H18.594V4.375a3.285 3.285 0 0 0-3.282-3.281h-4.374a3.285 3.285 0 0 0-3.282 3.281v1.094H1.094v63.437h50.312v-26.25h.849l1.044-4.078a17.473 17.473 0 0 0 2.98-1.232l3.62 2.145 5.842-5.842-2.145-3.62a17.4 17.4 0 0 0 1.232-2.98l4.078-1.044zm-52.5 7.901H14.22v-17.5h2.187v17.5zm-6.562-17.5h2.187v17.5H9.844v-17.5zm5.613 19.688l-2.332 3.496-2.332-3.496h4.664zm.95-21.875H9.843V12.03h6.562v2.188zm-3.282 29.316l3.502-5.254h1.967v8.75H7.656v-8.75h1.967l3.502 5.254zM10.937 3.28h4.376c.603 0 1.093.49 1.093 1.094v5.469H9.844V4.375c0-.604.49-1.094 1.094-1.094zM49.22 66.72H3.28V7.656h4.375v27.675l.509.763H5.469v13.125H20.78V36.094h-2.696l.509-.763V7.656h14.36l-2.444 2.445 2.145 3.62a17.4 17.4 0 0 0-1.232 2.98l-4.08 1.044v8.261l4.08 1.045a17.5 17.5 0 0 0 1.23 2.979l-2.144 3.62 5.842 5.842 3.62-2.145a17.39 17.39 0 0 0 2.98 1.232l1.044 4.077h5.224V66.72zm13.84-41.476l-.166.616a15.2 15.2 0 0 1-1.505 3.643l-.32.553 1.924 3.247-3.44 3.44-3.247-1.924-.553.32a15.2 15.2 0 0 1-3.644 1.505l-.615.166-.937 3.659h-4.863l-.937-3.659-.615-.166a15.2 15.2 0 0 1-3.644-1.505l-.553-.32-3.246 1.924-3.441-3.44 1.924-3.247-.32-.553a15.2 15.2 0 0 1-1.505-3.643l-.166-.616-3.66-.936v-4.864l3.659-.937.166-.615a15.2 15.2 0 0 1 1.505-3.644l.32-.553-1.924-3.246 3.44-3.441 3.247 1.924.553-.32a15.203 15.203 0 0 1 3.644-1.505l.615-.166.937-3.66h4.863l.937 3.659.615.166c1.286.346 2.51.852 3.644 1.505l.553.32 3.246-1.924 3.441 3.44-1.924 3.247.32.553a15.2 15.2 0 0 1 1.505 3.643l.166.616 3.66.936v4.864l-3.659.938z" fill="url(#a)"/><path d="M48.125 8.75C40.888 8.75 35 14.638 35 21.875S40.888 35 48.125 35 61.25 29.112 61.25 21.875 55.362 8.75 48.125 8.75zm0 24.063c-6.03 0-10.938-4.907-10.938-10.938 0-6.03 4.907-10.938 10.938-10.938 6.03 0 10.938 4.907 10.938 10.938 0 6.03-4.907 10.938-10.938 10.938z" fill="#0055C9"/><path d="M48.125 8.75C40.888 8.75 35 14.638 35 21.875S40.888 35 48.125 35 61.25 29.112 61.25 21.875 55.362 8.75 48.125 8.75zm0 24.063c-6.03 0-10.938-4.907-10.938-10.938 0-6.03 4.907-10.938 10.938-10.938 6.03 0 10.938 4.907 10.938 10.938 0 6.03-4.907 10.938-10.938 10.938z" fill="url(#b)"/><path d="M48.125 13.125c-4.825 0-8.75 3.925-8.75 8.75s3.925 8.75 8.75 8.75 8.75-3.925 8.75-8.75-3.925-8.75-8.75-8.75zm0 15.313a6.57 6.57 0 0 1-6.563-6.563 6.57 6.57 0 0 1 6.563-6.563 6.57 6.57 0 0 1 6.563 6.563 6.57 6.57 0 0 1-6.563 6.563z" fill="#0055C9"/><path d="M48.125 13.125c-4.825 0-8.75 3.925-8.75 8.75s3.925 8.75 8.75 8.75 8.75-3.925 8.75-8.75-3.925-8.75-8.75-8.75zm0 15.313a6.57 6.57 0 0 1-6.563-6.563 6.57 6.57 0 0 1 6.563-6.563 6.57 6.57 0 0 1 6.563 6.563 6.57 6.57 0 0 1-6.563 6.563z" fill="url(#c)"/><path d="M21.102 49.54l-1.867 1.866H5.469v13.125H20.78V52.953l1.867-1.867-1.546-1.547zm-2.508 12.804H7.656v-8.75h9.391l-5.016 5.016-1.414-1.414-1.547 1.546 2.961 2.96 6.563-6.562v7.204z" fill="#0055C9"/><path d="M21.102 49.54l-1.867 1.866H5.469v13.125H20.78V52.953l1.867-1.867-1.546-1.547zm-2.508 12.804H7.656v-8.75h9.391l-5.016 5.016-1.414-1.414-1.547 1.546 2.961 2.96 6.563-6.562v7.204z" fill="url(#d)"/><path d="M47.031 62.344h-2.187v2.187h2.187v-2.187z" fill="#0055C9"/><path d="M47.031 62.344h-2.187v2.187h2.187v-2.187z" fill="url(#e)"/><path d="M42.656 62.344H22.97v2.187h19.687v-2.187z" fill="#0055C9"/><path d="M42.656 62.344H22.97v2.187h19.687v-2.187z" fill="url(#f)"/><path d="M47.031 57.969H22.97v2.187h24.06V57.97z" fill="#0055C9"/><path d="M47.031 57.969H22.97v2.187h24.06V57.97z" fill="url(#g)"/><path d="M47.031 53.594H22.97v2.187h24.06v-2.187z" fill="#0055C9"/><path d="M47.031 53.594H22.97v2.187h24.06v-2.187z" fill="url(#h)"/><path d="M42.656 47.031H22.97v2.188h19.687V47.03z" fill="#0055C9"/><path d="M42.656 47.031H22.97v2.188h19.687V47.03z" fill="url(#i)"/><path d="M42.656 42.656H22.97v2.188h19.687v-2.188z" fill="#0055C9"/><path d="M42.656 42.656H22.97v2.188h19.687v-2.188z" fill="url(#j)"/><path d="M31.719 38.281h-8.75v2.188h8.75V38.28z" fill="#0055C9"/><path d="M31.719 38.281h-8.75v2.188h8.75V38.28z" fill="url(#k)"/></g><defs><linearGradient id="a" x1="15.221" y1="16.484" x2="49.282" y2="104.411" gradientUnits="userSpaceOnUse"><stop stop-color="#045ACE"/><stop offset="1" stop-color="#0FD4FF" stop-opacity=".46"/></linearGradient><linearGradient id="b" x1="40.469" y1="14.708" x2="53.654" y2="48.744" gradientUnits="userSpaceOnUse"><stop stop-color="#045ACE"/><stop offset="1" stop-color="#0FD4FF" stop-opacity=".46"/></linearGradient><linearGradient id="c" x1="43.021" y1="17.097" x2="51.811" y2="39.787" gradientUnits="userSpaceOnUse"><stop stop-color="#045ACE"/><stop offset="1" stop-color="#0FD4FF" stop-opacity=".46"/></linearGradient><linearGradient id="d" x1="9.048" y1="52.942" x2="15.83" y2="73.005" gradientUnits="userSpaceOnUse"><stop stop-color="#045ACE"/><stop offset="1" stop-color="#0FD4FF" stop-opacity=".46"/></linearGradient><linearGradient id="e" x1="45.3" y1="62.84" x2="46.398" y2="65.677" gradientUnits="userSpaceOnUse"><stop stop-color="#045ACE"/><stop offset="1" stop-color="#0FD4FF" stop-opacity=".46"/></linearGradient><linearGradient id="f" x1="27.07" y1="62.84" x2="27.21" y2="66.096" gradientUnits="userSpaceOnUse"><stop stop-color="#045ACE"/><stop offset="1" stop-color="#0FD4FF" stop-opacity=".46"/></linearGradient><linearGradient id="g" x1="27.982" y1="58.465" x2="28.096" y2="61.723" gradientUnits="userSpaceOnUse"><stop stop-color="#045ACE"/><stop offset="1" stop-color="#0FD4FF" stop-opacity=".46"/></linearGradient><linearGradient id="h" x1="27.982" y1="54.09" x2="28.096" y2="57.348" gradientUnits="userSpaceOnUse"><stop stop-color="#045ACE"/><stop offset="1" stop-color="#0FD4FF" stop-opacity=".46"/></linearGradient><linearGradient id="i" x1="27.07" y1="47.528" x2="27.21" y2="50.784" gradientUnits="userSpaceOnUse"><stop stop-color="#045ACE"/><stop offset="1" stop-color="#0FD4FF" stop-opacity=".46"/></linearGradient><linearGradient id="j" x1="27.07" y1="43.153" x2="27.21" y2="46.409" gradientUnits="userSpaceOnUse"><stop stop-color="#045ACE"/><stop offset="1" stop-color="#0FD4FF" stop-opacity=".46"/></linearGradient><linearGradient id="k" x1="24.792" y1="38.778" x2="25.105" y2="42.009" gradientUnits="userSpaceOnUse"><stop stop-color="#045ACE"/><stop offset="1" stop-color="#0FD4FF" stop-opacity=".46"/></linearGradient></defs></svg>