<svg width="70" height="70" viewBox="0 0 70 70" fill="none" xmlns="http://www.w3.org/2000/svg"><g opacity=".5" clip-path="url(#a)"><path d="M23.333 70h42a3.5 3.5 0 0 0 3.5-3.5v-56C68.826 4.704 64.13.007 58.333 0H11.667C5.87.007 1.174 4.704 1.167 10.5v15.167a3.5 3.5 0 0 0 3.5 3.5h15.166V66.5a3.5 3.5 0 0 0 3.5 3.5zm35-67.667A8.176 8.176 0 0 1 66.5 10.5v56c0 .644-.522 1.167-1.167 1.167h-42a1.167 1.167 0 0 1-1.166-1.167v-56c0-3.173-1.437-6.176-3.908-8.167h40.074zm-53.666 24.5A1.167 1.167 0 0 1 3.5 25.667V10.5a8.167 8.167 0 0 1 16.333 0v16.333H4.667z" fill="#0055C9"/><path d="M23.333 70h42a3.5 3.5 0 0 0 3.5-3.5v-56C68.826 4.704 64.13.007 58.333 0H11.667C5.87.007 1.174 4.704 1.167 10.5v15.167a3.5 3.5 0 0 0 3.5 3.5h15.166V66.5a3.5 3.5 0 0 0 3.5 3.5zm35-67.667A8.176 8.176 0 0 1 66.5 10.5v56c0 .644-.522 1.167-1.167 1.167h-42a1.167 1.167 0 0 1-1.166-1.167v-56c0-3.173-1.437-6.176-3.908-8.167h40.074zm-53.666 24.5A1.167 1.167 0 0 1 3.5 25.667V10.5a8.167 8.167 0 0 1 16.333 0v16.333H4.667z" fill="url(#b)"/><path d="M26.833 65.333h35A2.333 2.333 0 0 0 64.167 63V30.333A2.333 2.333 0 0 0 61.833 28h-35a2.333 2.333 0 0 0-2.333 2.333V63a2.333 2.333 0 0 0 2.333 2.333zm16.334-21h18.666V49H43.167v-4.667zm0 7h18.666V56H43.167v-4.667zM61.833 42H43.167v-4.667h18.666V42zm-21 0h-14v-4.667h14V42zm-14 21V44.333h14V63h-14zm16.334 0v-4.667h18.666V63H43.167zm18.666-28H43.167v-4.667h18.666V35zm-21-4.667V35h-14v-4.667h14z" fill="#0055C9"/><path d="M26.833 65.333h35A2.333 2.333 0 0 0 64.167 63V30.333A2.333 2.333 0 0 0 61.833 28h-35a2.333 2.333 0 0 0-2.333 2.333V63a2.333 2.333 0 0 0 2.333 2.333zm16.334-21h18.666V49H43.167v-4.667zm0 7h18.666V56H43.167v-4.667zM61.833 42H43.167v-4.667h18.666V42zm-21 0h-14v-4.667h14V42zm-14 21V44.333h14V63h-14zm16.334 0v-4.667h18.666V63H43.167zm18.666-28H43.167v-4.667h18.666V35zm-21-4.667V35h-14v-4.667h14z" fill="url(#c)"/><path d="M36.167 50.75c0 .644.522 1.167 1.166 1.167 2.07 0 1.407-4.254-2.333-5.106a1.175 1.175 0 1 0-2.333 0 3.967 3.967 0 0 0 0 7.878v3.393a1.75 1.75 0 0 1-1.167-1.499c0-.644-.522-1.166-1.167-1.166-2.07 0-1.407 4.253 2.334 5.105a1.175 1.175 0 1 0 2.333 0 3.967 3.967 0 0 0 0-7.877V49.25a1.75 1.75 0 0 1 1.167 1.499zm-3.5-1.5v3a1.547 1.547 0 0 1 0-3zM35 58.083v-2.998a1.547 1.547 0 0 1 0 2.998z" fill="#0055C9"/><path d="M36.167 50.75c0 .644.522 1.167 1.166 1.167 2.07 0 1.407-4.254-2.333-5.106a1.175 1.175 0 1 0-2.333 0 3.967 3.967 0 0 0 0 7.878v3.393a1.75 1.75 0 0 1-1.167-1.499c0-.644-.522-1.166-1.167-1.166-2.07 0-1.407 4.253 2.334 5.105a1.175 1.175 0 1 0 2.333 0 3.967 3.967 0 0 0 0-7.877V49.25a1.75 1.75 0 0 1 1.167 1.499zm-3.5-1.5v3a1.547 1.547 0 0 1 0-3zM35 58.083v-2.998a1.547 1.547 0 0 1 0 2.998z" fill="url(#d)"/><path d="M26.833 8.167h14a1.167 1.167 0 0 0 0-2.334h-14a1.167 1.167 0 1 0 0 2.334z" fill="#0055C9"/><path d="M26.833 8.167h14a1.167 1.167 0 0 0 0-2.334h-14a1.167 1.167 0 1 0 0 2.334z" fill="url(#e)"/><path d="M26.833 12.833h10.5a1.167 1.167 0 1 0 0-2.333h-10.5a1.167 1.167 0 1 0 0 2.333z" fill="#0055C9"/><path d="M26.833 12.833h10.5a1.167 1.167 0 1 0 0-2.333h-10.5a1.167 1.167 0 1 0 0 2.333z" fill="url(#f)"/><path d="M26.833 17.5h19.834a1.167 1.167 0 0 0 0-2.333H26.833a1.167 1.167 0 0 0 0 2.333z" fill="#0055C9"/><path d="M26.833 17.5h19.834a1.167 1.167 0 0 0 0-2.333H26.833a1.167 1.167 0 0 0 0 2.333z" fill="url(#g)"/><path d="M26.833 22.166h10.5a1.167 1.167 0 1 0 0-2.333h-10.5a1.167 1.167 0 1 0 0 2.334z" fill="#0055C9"/><path d="M26.833 22.166h10.5a1.167 1.167 0 1 0 0-2.333h-10.5a1.167 1.167 0 1 0 0 2.334z" fill="url(#h)"/><path d="M40.833 11.667c0 .644.523 1.166 1.167 1.166h19.833a1.167 1.167 0 1 0 0-2.333H42c-.644 0-1.167.522-1.167 1.167z" fill="#0055C9"/><path d="M40.833 11.667c0 .644.523 1.166 1.167 1.166h19.833a1.167 1.167 0 1 0 0-2.333H42c-.644 0-1.167.522-1.167 1.167z" fill="url(#i)"/><path d="M61.833 15.167h-10.5a1.167 1.167 0 0 0 0 2.333h10.5a1.167 1.167 0 0 0 0-2.333z" fill="#0055C9"/><path d="M61.833 15.167h-10.5a1.167 1.167 0 0 0 0 2.333h10.5a1.167 1.167 0 0 0 0-2.333z" fill="url(#j)"/><path d="M61.833 19.833H42a1.167 1.167 0 0 0 0 2.334h19.833a1.167 1.167 0 1 0 0-2.334z" fill="#0055C9"/><path d="M61.833 19.833H42a1.167 1.167 0 0 0 0 2.334h19.833a1.167 1.167 0 1 0 0-2.334z" fill="url(#k)"/></g><defs><linearGradient id="b" x1="15.264" y1="15.887" x2="51.306" y2="105.826" gradientUnits="userSpaceOnUse"><stop stop-color="#045ACE"/><stop offset="1" stop-color="#0FD4FF" stop-opacity=".46"/></linearGradient><linearGradient id="c" x1="32.764" y1="36.473" x2="50.679" y2="85.612" gradientUnits="userSpaceOnUse"><stop stop-color="#045ACE"/><stop offset="1" stop-color="#0FD4FF" stop-opacity=".46"/></linearGradient><linearGradient id="d" x1="31.113" y1="49.206" x2="42.432" y2="65.886" gradientUnits="userSpaceOnUse"><stop stop-color="#045ACE"/><stop offset="1" stop-color="#0FD4FF" stop-opacity=".46"/></linearGradient><linearGradient id="e" x1="29.07" y1="6.363" x2="29.261" y2="9.832" gradientUnits="userSpaceOnUse"><stop stop-color="#045ACE"/><stop offset="1" stop-color="#0FD4FF" stop-opacity=".46"/></linearGradient><linearGradient id="f" x1="28.34" y1="11.03" x2="28.584" y2="14.492" gradientUnits="userSpaceOnUse"><stop stop-color="#045ACE"/><stop offset="1" stop-color="#0FD4FF" stop-opacity=".46"/></linearGradient><linearGradient id="g" x1="30.285" y1="15.696" x2="30.426" y2="19.17" gradientUnits="userSpaceOnUse"><stop stop-color="#045ACE"/><stop offset="1" stop-color="#0FD4FF" stop-opacity=".46"/></linearGradient><linearGradient id="h" x1="28.34" y1="20.363" x2="28.584" y2="23.825" gradientUnits="userSpaceOnUse"><stop stop-color="#045ACE"/><stop offset="1" stop-color="#0FD4FF" stop-opacity=".46"/></linearGradient><linearGradient id="i" x1="45.451" y1="11.03" x2="45.593" y2="14.503" gradientUnits="userSpaceOnUse"><stop stop-color="#045ACE"/><stop offset="1" stop-color="#0FD4FF" stop-opacity=".46"/></linearGradient><linearGradient id="j" x1="52.84" y1="15.696" x2="53.084" y2="19.159" gradientUnits="userSpaceOnUse"><stop stop-color="#045ACE"/><stop offset="1" stop-color="#0FD4FF" stop-opacity=".46"/></linearGradient><linearGradient id="k" x1="45.451" y1="20.363" x2="45.593" y2="23.836" gradientUnits="userSpaceOnUse"><stop stop-color="#045ACE"/><stop offset="1" stop-color="#0FD4FF" stop-opacity=".46"/></linearGradient><clipPath id="a"><path fill="#fff" d="M0 0h70v70H0z"/></clipPath></defs></svg>