<svg width="70" height="70" viewBox="0 0 70 70" fill="none" xmlns="http://www.w3.org/2000/svg"><g opacity=".5"><path d="M38.387 37.258H36.13v2.258h-2.258v2.258h2.258v2.258h2.258v-2.258h2.258v-2.258h-2.258v-2.258z" fill="#0055C9"/><path d="M38.387 37.258H36.13v2.258h-2.258v2.258h2.258v2.258h2.258v-2.258h2.258v-2.258h-2.258v-2.258z" fill="url(#a)"/><path d="M70 21.452v-11.29h-5.645v-4.25L67.31 0H54.625l2.956 5.911v4.25h-2.886c-.784-1.343-2.224-2.258-3.889-2.258H32.742a4.52 4.52 0 0 0-4.516 4.516H22.58V7.903H5.645A5.652 5.652 0 0 0 0 13.548v1.13h12.42v2.258H0v1.128a5.652 5.652 0 0 0 5.645 5.646h16.936v-4.517h5.645a4.52 4.52 0 0 0 4.516 4.517h.723l-3.738 11.96a8.965 8.965 0 0 0-1.501 4.975c0 4.98 4.052 9.032 9.032 9.032.446 0 .882-.043 1.311-.106l1.828 9.139h-1.579l-2.258 4.516h-2.689V70H70v-6.774h-2.69l-2.257-4.516h-1.827v-8.543L46.46 40.107l4.098-16.397h.248c1.665 0 3.105-.915 3.889-2.258h2.886v3.12l-2.956 5.912H67.31l-2.956-5.912v-3.12H70zM2.451 12.419a3.394 3.394 0 0 1 3.194-2.258h14.678v2.258H2.45zm17.872 9.033H5.645a3.394 3.394 0 0 1-3.194-2.259h17.872v2.259zm2.258-4.517h-7.904v-2.258h13.549v2.259H22.58zm7.903 23.71a6.78 6.78 0 0 1 6.774-6.774 6.78 6.78 0 0 1 6.774 6.774 6.781 6.781 0 0 1-6.774 6.774 6.78 6.78 0 0 1-6.774-6.774zm15.608 1.876l7.457 4.474-12.078 5.574-.718-3.596a9.065 9.065 0 0 0 5.339-6.452zm9.638 5.783l3.922 2.354-17.048 7.576-.678-3.388 13.87-6.4-.066-.142zm12.012 19.438H36.129v-2.258h31.613v2.258zm-2.956-4.516H39.085l1.13-2.258h23.442l1.129 2.258zM47.094 58.71l13.874-6.166v6.166H47.094zM45.11 36.198c-1.554-2.733-4.488-4.585-7.85-4.585a8.96 8.96 0 0 0-4.23 1.057l2.8-8.96h12.404L45.11 36.198zm7.956-17.005a2.26 2.26 0 0 1-2.258 2.259H32.742a2.26 2.26 0 0 1-2.258-2.259V12.42a2.26 2.26 0 0 1 2.258-2.258h18.065a2.26 2.26 0 0 1 2.258 2.258v6.774zM63.657 2.259l-1.13 2.258h-3.12L58.28 2.258h5.378zm-3.818 4.516h2.258v3.387h-2.258V6.774zm7.903 5.645v2.258h-12.42V12.42h12.42zm-12.42 4.517h12.42v2.258h-12.42v-2.258zm2.957 11.29l1.129-2.258h3.12l1.129 2.258h-5.378zm3.818-4.516h-2.258v-2.258h2.258v2.258z" fill="#0055C9"/><path d="M70 21.452v-11.29h-5.645v-4.25L67.31 0H54.625l2.956 5.911v4.25h-2.886c-.784-1.343-2.224-2.258-3.889-2.258H32.742a4.52 4.52 0 0 0-4.516 4.516H22.58V7.903H5.645A5.652 5.652 0 0 0 0 13.548v1.13h12.42v2.258H0v1.128a5.652 5.652 0 0 0 5.645 5.646h16.936v-4.517h5.645a4.52 4.52 0 0 0 4.516 4.517h.723l-3.738 11.96a8.965 8.965 0 0 0-1.501 4.975c0 4.98 4.052 9.032 9.032 9.032.446 0 .882-.043 1.311-.106l1.828 9.139h-1.579l-2.258 4.516h-2.689V70H70v-6.774h-2.69l-2.257-4.516h-1.827v-8.543L46.46 40.107l4.098-16.397h.248c1.665 0 3.105-.915 3.889-2.258h2.886v3.12l-2.956 5.912H67.31l-2.956-5.912v-3.12H70zM2.451 12.419a3.394 3.394 0 0 1 3.194-2.258h14.678v2.258H2.45zm17.872 9.033H5.645a3.394 3.394 0 0 1-3.194-2.259h17.872v2.259zm2.258-4.517h-7.904v-2.258h13.549v2.259H22.58zm7.903 23.71a6.78 6.78 0 0 1 6.774-6.774 6.78 6.78 0 0 1 6.774 6.774 6.781 6.781 0 0 1-6.774 6.774 6.78 6.78 0 0 1-6.774-6.774zm15.608 1.876l7.457 4.474-12.078 5.574-.718-3.596a9.065 9.065 0 0 0 5.339-6.452zm9.638 5.783l3.922 2.354-17.048 7.576-.678-3.388 13.87-6.4-.066-.142zm12.012 19.438H36.129v-2.258h31.613v2.258zm-2.956-4.516H39.085l1.13-2.258h23.442l1.129 2.258zM47.094 58.71l13.874-6.166v6.166H47.094zM45.11 36.198c-1.554-2.733-4.488-4.585-7.85-4.585a8.96 8.96 0 0 0-4.23 1.057l2.8-8.96h12.404L45.11 36.198zm7.956-17.005a2.26 2.26 0 0 1-2.258 2.259H32.742a2.26 2.26 0 0 1-2.258-2.259V12.42a2.26 2.26 0 0 1 2.258-2.258h18.065a2.26 2.26 0 0 1 2.258 2.258v6.774zM63.657 2.259l-1.13 2.258h-3.12L58.28 2.258h5.378zm-3.818 4.516h2.258v3.387h-2.258V6.774zm7.903 5.645v2.258h-12.42V12.42h12.42zm-12.42 4.517h12.42v2.258h-12.42v-2.258zm2.957 11.29l1.129-2.258h3.12l1.129 2.258h-5.378zm3.818-4.516h-2.258v-2.258h2.258v2.258z" fill="url(#b)"/><path d="M37.258 12.42a3.392 3.392 0 0 0-3.387 3.386 3.392 3.392 0 0 0 3.387 3.388 3.392 3.392 0 0 0 3.387-3.388 3.392 3.392 0 0 0-3.387-3.387zm0 4.516a1.13 1.13 0 0 1-1.129-1.13 1.13 1.13 0 0 1 1.13-1.129 1.13 1.13 0 0 1 1.128 1.13 1.13 1.13 0 0 1-1.129 1.129z" fill="#0055C9"/><path d="M37.258 12.42a3.392 3.392 0 0 0-3.387 3.386 3.392 3.392 0 0 0 3.387 3.388 3.392 3.392 0 0 0 3.387-3.388 3.392 3.392 0 0 0-3.387-3.387zm0 4.516a1.13 1.13 0 0 1-1.129-1.13 1.13 1.13 0 0 1 1.13-1.129 1.13 1.13 0 0 1 1.128 1.13 1.13 1.13 0 0 1-1.129 1.129z" fill="url(#c)"/><path d="M46.29 12.42a3.392 3.392 0 0 0-3.387 3.386 3.392 3.392 0 0 0 3.387 3.388 3.392 3.392 0 0 0 3.387-3.388 3.392 3.392 0 0 0-3.387-3.387zm0 4.516a1.13 1.13 0 0 1-1.129-1.13 1.13 1.13 0 0 1 1.13-1.129 1.13 1.13 0 0 1 1.128 1.13 1.13 1.13 0 0 1-1.129 1.129z" fill="#0055C9"/><path d="M46.29 12.42a3.392 3.392 0 0 0-3.387 3.386 3.392 3.392 0 0 0 3.387 3.388 3.392 3.392 0 0 0 3.387-3.388 3.392 3.392 0 0 0-3.387-3.387zm0 4.516a1.13 1.13 0 0 1-1.129-1.13 1.13 1.13 0 0 1 1.13-1.129 1.13 1.13 0 0 1 1.128 1.13 1.13 1.13 0 0 1-1.129 1.129z" fill="url(#d)"/><path d="M23.629 51.386l1.826-2.188-4.653-4.654-2.188 1.827a11.19 11.19 0 0 0-1.521-.63l-.255-2.838h-6.58l-.255 2.84c-.523.172-1.03.383-1.521.63l-2.189-1.828-4.652 4.654 1.826 2.188c-.247.49-.457.998-.63 1.52L0 53.162v6.58l2.84.255c.171.521.382 1.03.63 1.52l-1.827 2.188 4.653 4.654 2.188-1.827c.49.247.999.457 1.521.63L10.258 70h6.58l.256-2.84c.522-.172 1.03-.382 1.521-.63l2.188 1.828 4.653-4.654-1.826-2.188c.247-.49.457-.998.63-1.52l2.837-.254v-6.58l-2.84-.256a11.093 11.093 0 0 0-.628-1.52zm1.21 6.292l-2.348.21-.196.778a8.895 8.895 0 0 1-.997 2.405l-.41.688 1.51 1.81-1.732 1.734-1.81-1.513-.688.411a8.944 8.944 0 0 1-2.407.997l-.776.197-.21 2.347h-2.453l-.21-2.348-.778-.196a8.943 8.943 0 0 1-2.406-.997l-.686-.41L6.43 65.3l-1.733-1.733L6.21 61.76l-.411-.688a8.98 8.98 0 0 1-.997-2.405l-.197-.777-2.347-.211v-2.453l2.347-.21.197-.777a8.892 8.892 0 0 1 .997-2.406l.41-.688-1.51-1.81L6.43 47.6l1.81 1.513.688-.41a8.943 8.943 0 0 1 2.406-.998l.777-.196.21-2.348h2.452l.212 2.348.776.196c.85.214 1.66.55 2.407.997l.686.41 1.811-1.51 1.733 1.733-1.512 1.809.41.688c.448.748.784 1.558.998 2.406l.196.776 2.348.211v2.453z" fill="#0055C9"/><path d="M23.629 51.386l1.826-2.188-4.653-4.654-2.188 1.827a11.19 11.19 0 0 0-1.521-.63l-.255-2.838h-6.58l-.255 2.84c-.523.172-1.03.383-1.521.63l-2.189-1.828-4.652 4.654 1.826 2.188c-.247.49-.457.998-.63 1.52L0 53.162v6.58l2.84.255c.171.521.382 1.03.63 1.52l-1.827 2.188 4.653 4.654 2.188-1.827c.49.247.999.457 1.521.63L10.258 70h6.58l.256-2.84c.522-.172 1.03-.382 1.521-.63l2.188 1.828 4.653-4.654-1.826-2.188c.247-.49.457-.998.63-1.52l2.837-.254v-6.58l-2.84-.256a11.093 11.093 0 0 0-.628-1.52zm1.21 6.292l-2.348.21-.196.778a8.895 8.895 0 0 1-.997 2.405l-.41.688 1.51 1.81-1.732 1.734-1.81-1.513-.688.411a8.944 8.944 0 0 1-2.407.997l-.776.197-.21 2.347h-2.453l-.21-2.348-.778-.196a8.943 8.943 0 0 1-2.406-.997l-.686-.41L6.43 65.3l-1.733-1.733L6.21 61.76l-.411-.688a8.98 8.98 0 0 1-.997-2.405l-.197-.777-2.347-.211v-2.453l2.347-.21.197-.777a8.892 8.892 0 0 1 .997-2.406l.41-.688-1.51-1.81L6.43 47.6l1.81 1.513.688-.41a8.943 8.943 0 0 1 2.406-.998l.777-.196.21-2.348h2.452l.212 2.348.776.196c.85.214 1.66.55 2.407.997l.686.41 1.811-1.51 1.733 1.733-1.512 1.809.41.688c.448.748.784 1.558.998 2.406l.196.776 2.348.211v2.453z" fill="url(#e)"/><path d="M13.548 49.677a6.78 6.78 0 0 0-6.774 6.775 6.78 6.78 0 0 0 6.774 6.774 6.78 6.78 0 0 0 6.775-6.774 6.78 6.78 0 0 0-6.775-6.775zm0 11.29a4.52 4.52 0 0 1-4.516-4.515 4.52 4.52 0 0 1 4.516-4.517 4.52 4.52 0 0 1 4.516 4.517 4.52 4.52 0 0 1-4.516 4.516z" fill="#0055C9"/><path d="M13.548 49.677a6.78 6.78 0 0 0-6.774 6.775 6.78 6.78 0 0 0 6.774 6.774 6.78 6.78 0 0 0 6.775-6.774 6.78 6.78 0 0 0-6.775-6.775zm0 11.29a4.52 4.52 0 0 1-4.516-4.515 4.52 4.52 0 0 1 4.516-4.517 4.52 4.52 0 0 1 4.516 4.517 4.52 4.52 0 0 1-4.516 4.516z" fill="url(#f)"/><path d="M12.42 25.968h2.257v2.258H12.42v-2.258z" fill="#0055C9"/><path d="M12.42 25.968h2.257v2.258H12.42v-2.258z" fill="url(#g)"/><path d="M12.42 30.484h2.257v2.258H12.42v-2.258z" fill="#0055C9"/><path d="M12.42 30.484h2.257v2.258H12.42v-2.258z" fill="url(#h)"/><path d="M12.42 35h2.257v2.258H12.42V35z" fill="#0055C9"/><path d="M12.42 35h2.257v2.258H12.42V35z" fill="url(#i)"/></g><defs><linearGradient id="a" x1="35.282" y1="38.795" x2="38.685" y2="47.579" gradientUnits="userSpaceOnUse"><stop stop-color="#045ACE"/><stop offset="1" stop-color="#0FD4FF" stop-opacity=".46"/></linearGradient><linearGradient id="b" x1="14.583" y1="15.887" x2="49.743" y2="106.65" gradientUnits="userSpaceOnUse"><stop stop-color="#045ACE"/><stop offset="1" stop-color="#0FD4FF" stop-opacity=".46"/></linearGradient><linearGradient id="c" x1="35.282" y1="13.957" x2="38.685" y2="22.74" gradientUnits="userSpaceOnUse"><stop stop-color="#045ACE"/><stop offset="1" stop-color="#0FD4FF" stop-opacity=".46"/></linearGradient><linearGradient id="d" x1="44.315" y1="13.957" x2="47.717" y2="22.74" gradientUnits="userSpaceOnUse"><stop stop-color="#045ACE"/><stop offset="1" stop-color="#0FD4FF" stop-opacity=".46"/></linearGradient><linearGradient id="e" x1="5.645" y1="49.053" x2="19.255" y2="84.187" gradientUnits="userSpaceOnUse"><stop stop-color="#045ACE"/><stop offset="1" stop-color="#0FD4FF" stop-opacity=".46"/></linearGradient><linearGradient id="f" x1="9.597" y1="52.752" x2="16.402" y2="70.319" gradientUnits="userSpaceOnUse"><stop stop-color="#045ACE"/><stop offset="1" stop-color="#0FD4FF" stop-opacity=".46"/></linearGradient><linearGradient id="g" x1="12.89" y1="26.48" x2="14.024" y2="29.408" gradientUnits="userSpaceOnUse"><stop stop-color="#045ACE"/><stop offset="1" stop-color="#0FD4FF" stop-opacity=".46"/></linearGradient><linearGradient id="h" x1="12.89" y1="30.996" x2="14.024" y2="33.924" gradientUnits="userSpaceOnUse"><stop stop-color="#045ACE"/><stop offset="1" stop-color="#0FD4FF" stop-opacity=".46"/></linearGradient><linearGradient id="i" x1="12.89" y1="35.513" x2="14.024" y2="38.44" gradientUnits="userSpaceOnUse"><stop stop-color="#045ACE"/><stop offset="1" stop-color="#0FD4FF" stop-opacity=".46"/></linearGradient></defs></svg>