<svg width="70" height="70" viewBox="0 0 70 70" fill="none" xmlns="http://www.w3.org/2000/svg"><g opacity=".5"><path d="M65.625 33.906H35a3.285 3.285 0 0 0-3.281 3.282V60.1C19.563 59.524 9.844 49.483 9.844 37.188c0-12.664 10.303-22.968 22.968-22.968h7.657v1.568a2.807 2.807 0 0 0 4.25 2.406l9.593-5.755a3.042 3.042 0 0 0 1.47-2.594 3.043 3.043 0 0 0-1.47-2.595L44.72 1.494A2.81 2.81 0 0 0 40.47 3.9v1.57h-7.657c-17.49 0-31.718 14.23-31.718 31.718 0 17.49 14.228 31.72 31.718 31.72h32.812a3.285 3.285 0 0 0 3.282-3.282V37.187a3.285 3.285 0 0 0-3.281-3.28zm1.094 3.282v5.468H55.78v-6.562h9.844c.603 0 1.094.49 1.094 1.093zm-17.5 7.656v4.375H47.03V36.094h6.563v13.125h-2.188v-4.375H49.22zm-14.22-8.75h9.845v6.562H33.906v-5.468c0-.604.491-1.094 1.094-1.094zM3.282 37.187c0-16.283 13.248-29.53 29.531-29.53h9.844V3.9c0-.453.546-.766.938-.53l9.593 5.755c.25.15.407.426.407.719a.842.842 0 0 1-.407.718l-9.593 5.756c-.389.236-.938-.078-.938-.53V12.03h-9.844c-13.87 0-25.156 11.284-25.156 25.157 0 13.504 10.697 24.553 24.063 25.128v3.309c0 .377.076.734.194 1.07C16.045 66.219 3.281 53.17 3.281 37.189zM65.625 66.72H35c-.603 0-1.094-.49-1.094-1.094V44.844h10.938v6.562H55.78v-6.562h10.94v20.781c0 .604-.491 1.094-1.094 1.094z" fill="#0055C9"/><path d="M65.625 33.906H35a3.285 3.285 0 0 0-3.281 3.282V60.1C19.563 59.524 9.844 49.483 9.844 37.188c0-12.664 10.303-22.968 22.968-22.968h7.657v1.568a2.807 2.807 0 0 0 4.25 2.406l9.593-5.755a3.042 3.042 0 0 0 1.47-2.594 3.043 3.043 0 0 0-1.47-2.595L44.72 1.494A2.81 2.81 0 0 0 40.47 3.9v1.57h-7.657c-17.49 0-31.718 14.23-31.718 31.718 0 17.49 14.228 31.72 31.718 31.72h32.812a3.285 3.285 0 0 0 3.282-3.282V37.187a3.285 3.285 0 0 0-3.281-3.28zm1.094 3.282v5.468H55.78v-6.562h9.844c.603 0 1.094.49 1.094 1.093zm-17.5 7.656v4.375H47.03V36.094h6.563v13.125h-2.188v-4.375H49.22zm-14.22-8.75h9.845v6.562H33.906v-5.468c0-.604.491-1.094 1.094-1.094zM3.282 37.187c0-16.283 13.248-29.53 29.531-29.53h9.844V3.9c0-.453.546-.766.938-.53l9.593 5.755c.25.15.407.426.407.719a.842.842 0 0 1-.407.718l-9.593 5.756c-.389.236-.938-.078-.938-.53V12.03h-9.844c-13.87 0-25.156 11.284-25.156 25.157 0 13.504 10.697 24.553 24.063 25.128v3.309c0 .377.076.734.194 1.07C16.045 66.219 3.281 53.17 3.281 37.189zM65.625 66.72H35c-.603 0-1.094-.49-1.094-1.094V44.844h10.938v6.562H55.78v-6.562h10.94v20.781c0 .604-.491 1.094-1.094 1.094z" fill="url(#a)"/><path d="M18.273 28.305L14.22 32.36V35h6.562v-2.188H16.86l2.96-2.96a3.26 3.26 0 0 0 .962-2.32v-.188a3.285 3.285 0 0 0-3.281-3.282 3.285 3.285 0 0 0-3.281 3.282v1.093h2.187v-1.093a1.095 1.095 0 0 1 2.188 0v.188c0 .288-.117.569-.32.773z" fill="#0055C9"/><path d="M18.273 28.305L14.22 32.36V35h6.562v-2.188H16.86l2.96-2.96a3.26 3.26 0 0 0 .962-2.32v-.188a3.285 3.285 0 0 0-3.281-3.282 3.285 3.285 0 0 0-3.281 3.282v1.093h2.187v-1.093a1.095 1.095 0 0 1 2.188 0v.188c0 .288-.117.569-.32.773z" fill="url(#b)"/><path d="M22.969 24.063v6.562h4.375V35h2.187V24.062h-2.187v4.375h-2.188v-4.375H22.97z" fill="#0055C9"/><path d="M22.969 24.063v6.562h4.375V35h2.187V24.062h-2.187v4.375h-2.188v-4.375H22.97z" fill="url(#c)"/><path d="M22.969 49.219v-4.375a3.285 3.285 0 0 0-3.282-3.282c-.385 0-.75.08-1.093.202v-4.577h-2.188V49.22h2.188v-4.375a1.095 1.095 0 0 1 2.187 0v4.375h2.188z" fill="#0055C9"/><path d="M22.969 49.219v-4.375a3.285 3.285 0 0 0-3.282-3.282c-.385 0-.75.08-1.093.202v-4.577h-2.188V49.22h2.188v-4.375a1.095 1.095 0 0 1 2.187 0v4.375h2.188z" fill="url(#d)"/><path d="M27.344 47.208a3.703 3.703 0 0 1 2.533-3.515l-.692-2.074a5.87 5.87 0 0 0-1.842 1.025v-1.081h-2.188v7.655h2.188v-2.01z" fill="#0055C9"/><path d="M27.344 47.208a3.703 3.703 0 0 1 2.533-3.515l-.692-2.074a5.87 5.87 0 0 0-1.842 1.025v-1.081h-2.188v7.655h2.188v-2.01z" fill="url(#e)"/><path d="M66.719 8.75h2.187v2.188H66.72V8.75z" fill="#0055C9"/><path d="M66.719 8.75h2.187v2.188H66.72V8.75z" fill="url(#f)"/><path d="M57.969 8.75h2.187v2.188H57.97V8.75z" fill="#0055C9"/><path d="M57.969 8.75h2.187v2.188H57.97V8.75z" fill="url(#g)"/><path d="M62.344 8.75h2.187v2.188h-2.187V8.75z" fill="#0055C9"/><path d="M62.344 8.75h2.187v2.188h-2.187V8.75z" fill="url(#h)"/><path d="M53.594 57.969H64.53v2.187H53.594V57.97z" fill="#0055C9"/><path d="M53.594 57.969H64.53v2.187H53.594V57.97z" fill="url(#i)"/><path d="M57.969 62.344h2.187v2.187H57.97v-2.187z" fill="#0055C9"/><path d="M57.969 62.344h2.187v2.187H57.97v-2.187z" fill="url(#j)"/><path d="M62.344 62.344h2.187v2.187h-2.187v-2.187z" fill="#0055C9"/><path d="M62.344 62.344h2.187v2.187h-2.187v-2.187z" fill="url(#k)"/><path d="M53.594 62.344h2.187v2.187h-2.187v-2.187z" fill="#0055C9"/><path d="M53.594 62.344h2.187v2.187h-2.187v-2.187z" fill="url(#l)"/></g><defs><linearGradient id="a" x1="15.221" y1="16.484" x2="49.282" y2="104.411" gradientUnits="userSpaceOnUse"><stop stop-color="#045ACE"/><stop offset="1" stop-color="#0FD4FF" stop-opacity=".46"/></linearGradient><linearGradient id="b" x1="15.586" y1="26.545" x2="23.018" y2="38.056" gradientUnits="userSpaceOnUse"><stop stop-color="#045ACE"/><stop offset="1" stop-color="#0FD4FF" stop-opacity=".46"/></linearGradient><linearGradient id="c" x1="24.336" y1="26.545" x2="31.768" y2="38.056" gradientUnits="userSpaceOnUse"><stop stop-color="#045ACE"/><stop offset="1" stop-color="#0FD4FF" stop-opacity=".46"/></linearGradient><linearGradient id="d" x1="17.773" y1="39.918" x2="26.243" y2="51.844" gradientUnits="userSpaceOnUse"><stop stop-color="#045ACE"/><stop offset="1" stop-color="#0FD4FF" stop-opacity=".46"/></linearGradient><linearGradient id="e" x1="26.139" y1="43.3" x2="31.281" y2="51.487" gradientUnits="userSpaceOnUse"><stop stop-color="#045ACE"/><stop offset="1" stop-color="#0FD4FF" stop-opacity=".46"/></linearGradient><linearGradient id="f" x1="67.174" y1="9.246" x2="68.273" y2="12.083" gradientUnits="userSpaceOnUse"><stop stop-color="#045ACE"/><stop offset="1" stop-color="#0FD4FF" stop-opacity=".46"/></linearGradient><linearGradient id="g" x1="58.424" y1="9.246" x2="59.523" y2="12.083" gradientUnits="userSpaceOnUse"><stop stop-color="#045ACE"/><stop offset="1" stop-color="#0FD4FF" stop-opacity=".46"/></linearGradient><linearGradient id="h" x1="62.799" y1="9.246" x2="63.898" y2="12.083" gradientUnits="userSpaceOnUse"><stop stop-color="#045ACE"/><stop offset="1" stop-color="#0FD4FF" stop-opacity=".46"/></linearGradient><linearGradient id="i" x1="55.872" y1="58.465" x2="56.123" y2="61.708" gradientUnits="userSpaceOnUse"><stop stop-color="#045ACE"/><stop offset="1" stop-color="#0FD4FF" stop-opacity=".46"/></linearGradient><linearGradient id="j" x1="58.424" y1="62.84" x2="59.523" y2="65.677" gradientUnits="userSpaceOnUse"><stop stop-color="#045ACE"/><stop offset="1" stop-color="#0FD4FF" stop-opacity=".46"/></linearGradient><linearGradient id="k" x1="62.799" y1="62.84" x2="63.898" y2="65.677" gradientUnits="userSpaceOnUse"><stop stop-color="#045ACE"/><stop offset="1" stop-color="#0FD4FF" stop-opacity=".46"/></linearGradient><linearGradient id="l" x1="54.049" y1="62.84" x2="55.148" y2="65.677" gradientUnits="userSpaceOnUse"><stop stop-color="#045ACE"/><stop offset="1" stop-color="#0FD4FF" stop-opacity=".46"/></linearGradient></defs></svg>