<svg width="70" height="50" viewBox="0 0 70 50" fill="none" xmlns="http://www.w3.org/2000/svg"><path d="M0 28l30-17.32v34.64L0 28z" fill="#D5EBFF"/><g clip-path="url(#a)"><path d="M31.865 33.136a.732.732 0 0 0 .733-.733v-1.611h1.611a.732.732 0 1 0 0-1.465h-1.611v-1.611a.732.732 0 0 0-1.465 0v1.611h-1.611a.732.732 0 1 0 0 1.465h1.61v1.611c0 .405.329.733.733.733zm9.806 1.584c-.28.724.04 1.528.747 1.87.556.269 1.19.215 1.774-.338 1.879-1.777 3.784-3.579 5.658-5.356.37-.352.55-.826.493-1.302-.057-.48-.348-.905-.799-1.164-.884-.509-1.766-1.022-2.65-1.533.483-1.133.981-2.3 1.434-3.47a1.463 1.463 0 0 0-.16-1.36c-.561-.812-1.637-.86-2.362-.17-1.894 1.803-3.77 3.569-5.655 5.356a1.548 1.548 0 0 0-.496 1.292c.05.47.324.887.75 1.144.898.543 1.804 1.054 2.702 1.567-.507 1.211-.975 2.273-1.436 3.464zm1.825-.595c.388-.923.77-1.85 1.173-2.804.145-.344.087-.807-.368-1.069-1.045-.6-2.101-1.19-3.14-1.817-.074-.044-.071-.054-.003-.12 2.005-1.898 5.598-5.335 5.762-5.44.03.007.04.022.042.024-.512 1.32-1.08 2.632-1.63 3.928-.174.413-.028.843.365 1.07 1.04.6 2.076 1.205 3.117 1.803.057.032.065.098.028.133-1.994 1.89-5.59 5.35-5.774 5.444-.014-.005-.034-.02-.03-.028.144-.374.304-.755.458-1.124zm16.982-3.333a.732.732 0 1 0 0-1.465h-4.687a.732.732 0 1 0 0 1.465h4.688zm-6.807 10.873c0 .405.328.733.732.733h8.42a1.32 1.32 0 0 0 1.318-1.319V17.072a1.32 1.32 0 0 0-1.319-1.318H27.178a1.32 1.32 0 0 0-1.319 1.318V41.08a1.32 1.32 0 0 0 1.319 1.318h24.296a.733.733 0 0 0 0-1.465h-24.15V17.218h35.352v23.715h-8.273a.732.732 0 0 0-.732.732zm14.132-27.377A2.2 2.2 0 0 0 70 12.09V9.943a2.2 2.2 0 0 0-2.197-2.198h-3.007V5.582c0-.943-.767-1.71-1.71-1.71h-.341V1.71c0-.942-.767-1.709-1.71-1.709h-4.043c-.943 0-1.71.767-1.71 1.709v2.164h-.341c-.943 0-1.71.766-1.71 1.709v2.163H36.769V5.582c0-.943-.767-1.71-1.709-1.71h-.342V1.71A1.712 1.712 0 0 0 33.008 0h-4.044c-.942 0-1.709.767-1.709 1.709v2.164h-.341c-.943 0-1.71.766-1.71 1.709v2.163h-3.007A2.2 2.2 0 0 0 20 9.943v2.148a2.2 2.2 0 0 0 2.197 2.197h.733v5.109a.732.732 0 1 0 1.465 0v-5.11h41.21v29.576h-41.21V22.326a.732.732 0 1 0-1.465 0v21.537h-.733A2.2 2.2 0 0 0 20 46.06v1.743A2.2 2.2 0 0 0 22.197 50h45.606A2.2 2.2 0 0 0 70 47.803V46.06a2.2 2.2 0 0 0-2.197-2.197h-.733V14.288h.733zM56.748 1.709c0-.135.109-.244.244-.244h4.044c.134 0 .244.11.244.244v2.164h-4.532V1.709zm-2.051 3.873c0-.135.11-.244.244-.244h8.145c.135 0 .245.11.245.244v2.163h-8.634V5.582zM28.72 1.709c0-.135.11-.244.244-.244h4.044c.135 0 .244.11.244.244v2.164H28.72V1.709zm-2.05 3.873c0-.135.109-.244.243-.244h8.146c.135 0 .244.11.244.244v2.163H26.67V5.582zm41.133 39.745c.404 0 .732.33.732.733v1.743a.733.733 0 0 1-.732.732H22.197a.733.733 0 0 1-.732-.732V46.06c0-.404.328-.733.732-.733h45.606zM22.197 12.824a.733.733 0 0 1-.732-.732V9.943c0-.404.328-.733.732-.733h45.606c.404 0 .732.329.732.733v2.148a.733.733 0 0 1-.732.732H22.197z" fill="#000"/></g><defs><clipPath id="a"><path fill="#fff" transform="translate(20)" d="M0 0h50v50H0z"/></clipPath></defs></svg>