<svg xmlns="http://www.w3.org/2000/svg" xmlns:xlink="http://www.w3.org/1999/xlink" width="53.833" height="53.833" viewBox="13.167 -1.833 53.833 53.833"><defs><path id="a" d="M15 0h50v50H15z"/></defs><clipPath id="b"><use xlink:href="#a" overflow="visible"/></clipPath><g clip-path="url(#b)"><path d="M46.137 13.056a2.196 2.196 0 0 0-.279-1.979c-.443-.641-1.188-1.021-1.999-1.021h-.038c-.553.018-1.104.285-1.639.794-3.883 3.693-7.725 7.312-11.589 10.973-.575.544-.859 1.276-.78 2.008.078.723.504 1.367 1.168 1.768 2.027 1.224 4.08 2.374 6.112 3.539-.948 2.221-1.806 4.309-2.688 6.437A11.992 11.992 0 0 1 28.038 25c0-2.753.958-5.44 2.697-7.567a12.003 12.003 0 0 1 6.745-4.129.735.735 0 0 0 .563-.87.735.735 0 0 0-.871-.563 13.471 13.471 0 0 0-7.57 4.634A13.453 13.453 0 0 0 26.574 25c0 5.04 2.84 9.654 7.291 11.943a2.258 2.258 0 0 0 1.181 2.76c.902.438 1.853.313 2.773-.558 3.831-3.625 7.726-7.308 11.59-10.973.581-.552.864-1.287.776-2.019-.088-.743-.546-1.402-1.256-1.811-2.023-1.163-4.012-2.32-6.02-3.481.902-2.125 1.818-4.258 2.691-6.436A11.999 11.999 0 0 1 51.963 25c0 2.742-.951 5.421-2.678 7.543a12.008 12.008 0 0 1-6.7 4.141.73.73 0 0 0-.558.872.736.736 0 0 0 .873.558 13.466 13.466 0 0 0 7.521-4.646A13.46 13.46 0 0 0 53.427 25a13.454 13.454 0 0 0-7.29-11.944zm-1.401-.433c-.852 2.199-1.795 4.416-2.706 6.56l-.642 1.51c-.162.382-.135.905.424 1.228 2.139 1.234 4.232 2.455 6.385 3.692.31.178.498.432.533.715.031.271-.086.549-.331.781-3.862 3.664-7.761 7.352-11.589 10.973-.549.518-.869.428-1.129.303-.396-.191-.572-.618-.419-1.014 1.062-2.742 2.163-5.257 3.352-8.069.077-.185.277-.818-.429-1.225-2.144-1.233-4.314-2.442-6.447-3.731-.273-.166-.44-.404-.469-.672-.03-.277.087-.557.331-.788 3.864-3.662 7.706-7.28 11.591-10.975.26-.247.49-.382.668-.391.334 0 .622.142.793.39a.748.748 0 0 1 .084.713zm17.909 6.214H59.3a.904.904 0 0 1-.841-.598 19.492 19.492 0 0 0-.625-1.51.903.903 0 0 1 .171-1.018l2.366-2.366a2.357 2.357 0 0 0 0-3.33L54.984 4.63a2.357 2.357 0 0 0-3.33 0l-2.365 2.365a.904.904 0 0 1-1.018.171 19.128 19.128 0 0 0-1.511-.625.904.904 0 0 1-.597-.841V2.355A2.358 2.358 0 0 0 43.809 0h-7.617a2.357 2.357 0 0 0-2.354 2.355V5.7c0 .372-.24.71-.598.841-.51.187-1.018.397-1.51.625a.903.903 0 0 1-1.018-.171l-2.366-2.366a2.357 2.357 0 0 0-3.33 0l-5.385 5.386a2.357 2.357 0 0 0 0 3.33l2.366 2.366a.903.903 0 0 1 .171 1.018c-.229.492-.439 1-.625 1.51a.905.905 0 0 1-.84.598h-3.346a2.358 2.358 0 0 0-2.355 2.355v7.617a2.357 2.357 0 0 0 2.355 2.354H20.7c.372 0 .71.24.841.598.187.51.397 1.019.625 1.511a.904.904 0 0 1-.171 1.018l-2.366 2.365a2.357 2.357 0 0 0 0 3.33l5.386 5.387a2.357 2.357 0 0 0 3.33 0l2.366-2.366a.903.903 0 0 1 1.018-.171c.492.229 1 .438 1.51.625a.905.905 0 0 1 .598.84v3.346a2.358 2.358 0 0 0 2.354 2.355h7.617a2.358 2.358 0 0 0 2.354-2.355V44.3c0-.371.24-.709.599-.84.51-.187 1.019-.396 1.511-.625a.904.904 0 0 1 1.018.171l2.365 2.366a2.357 2.357 0 0 0 3.33 0l5.386-5.387a2.357 2.357 0 0 0 0-3.33l-2.366-2.365a.905.905 0 0 1-.17-1.018c.228-.492.438-1.001.625-1.511a.905.905 0 0 1 .84-.598h3.346a2.358 2.358 0 0 0 2.355-2.354v-7.617a2.36 2.36 0 0 0-2.356-2.355zm.89 9.972c0 .49-.399.89-.891.89H59.3c-.984 0-1.875.626-2.216 1.559-.174.472-.367.942-.579 1.397a2.373 2.373 0 0 0 .464 2.67l2.365 2.366a.89.89 0 0 1 0 1.259l-5.385 5.385a.89.89 0 0 1-1.259 0l-2.366-2.365a2.373 2.373 0 0 0-2.67-.464c-.455.211-.926.405-1.396.579a2.37 2.37 0 0 0-1.56 2.215v3.346a.892.892 0 0 1-.89.891h-7.617a.892.892 0 0 1-.89-.891V44.3c0-.983-.626-1.874-1.56-2.215a18.897 18.897 0 0 1-1.396-.579 2.378 2.378 0 0 0-1.002-.222c-.615 0-1.22.237-1.668.686l-2.366 2.365a.89.89 0 0 1-1.259 0l-5.385-5.385a.891.891 0 0 1 0-1.259l2.366-2.366a2.373 2.373 0 0 0 .464-2.67 18.496 18.496 0 0 1-.579-1.397 2.373 2.373 0 0 0-2.216-1.56h-3.346a.89.89 0 0 1-.89-.889v-7.617a.89.89 0 0 1 .89-.89H20.7c.984 0 1.875-.626 2.216-1.559.173-.472.367-.942.579-1.397a2.375 2.375 0 0 0-.464-2.671l-2.365-2.365a.891.891 0 0 1 0-1.259l5.385-5.386a.891.891 0 0 1 1.259 0l2.366 2.366a2.372 2.372 0 0 0 2.67.464c.456-.211.926-.406 1.396-.579a2.372 2.372 0 0 0 1.56-2.216V2.355a.89.89 0 0 1 .89-.89h7.617a.89.89 0 0 1 .889.89V5.7c0 .984.627 1.875 1.56 2.216.472.172.942.367 1.397.579a2.373 2.373 0 0 0 2.67-.464l2.366-2.365a.891.891 0 0 1 1.259 0l5.385 5.385a.89.89 0 0 1 0 1.259l-2.365 2.366a2.374 2.374 0 0 0-.464 2.67c.211.455.405.925.579 1.397a2.372 2.372 0 0 0 2.215 1.559h3.346c.491 0 .891.399.891.89v7.617h-.002z"/></g></svg>