<svg width="65" height="50" viewBox="0 0 65 50" fill="none" xmlns="http://www.w3.org/2000/svg"><circle cx="20" cy="25" r="20" fill="#D5EBFF"/><g clip-path="url(#a)"><path d="M46.137 13.056a2.197 2.197 0 0 0-.28-1.979 2.414 2.414 0 0 0-1.998-1.021h-.04c-.551.018-1.102.285-1.638.795-3.882 3.693-7.724 7.311-11.588 10.972-.575.545-.859 1.277-.78 2.008.078.723.504 1.368 1.168 1.769 2.026 1.223 4.08 2.374 6.112 3.539-.95 2.221-1.805 4.308-2.688 6.436A11.99 11.99 0 0 1 28.037 25c0-2.753.958-5.44 2.697-7.567a12.001 12.001 0 0 1 6.744-4.13.732.732 0 1 0-.307-1.432 13.47 13.47 0 0 0-7.571 4.635A13.454 13.454 0 0 0 26.572 25c0 5.04 2.84 9.654 7.29 11.944a2.259 2.259 0 0 0 1.182 2.76c.902.436 1.853.313 2.773-.558 3.831-3.625 7.726-7.308 11.59-10.973.581-.551.865-1.287.777-2.019-.088-.742-.546-1.402-1.257-1.81-2.022-1.164-4.01-2.32-6.019-3.482.903-2.125 1.819-4.258 2.691-6.435A11.991 11.991 0 0 1 51.963 25c0 2.742-.95 5.42-2.677 7.543a12.005 12.005 0 0 1-6.701 4.14.732.732 0 1 0 .315 1.43 13.476 13.476 0 0 0 7.522-4.645A13.457 13.457 0 0 0 53.428 25c0-5.04-2.84-9.654-7.291-11.944zm-1.4-.433c-.852 2.2-1.795 4.416-2.707 6.56l-.641 1.51c-.162.382-.136.905.423 1.228 2.14 1.234 4.233 2.454 6.385 3.692.31.178.499.432.533.715.032.271-.085.549-.33.782-3.863 3.664-7.762 7.35-11.59 10.971-.548.52-.87.43-1.128.304-.396-.192-.572-.618-.42-1.014 1.062-2.742 2.164-5.257 3.352-8.07.078-.184.278-.818-.429-1.224-2.143-1.233-4.314-2.443-6.447-3.731-.273-.165-.44-.404-.468-.672-.03-.277.087-.557.33-.787 3.865-3.663 7.707-7.28 11.591-10.975.26-.247.49-.382.669-.392.333 0 .621.142.792.39a.749.749 0 0 1 .084.713zm17.908 6.214H59.3a.903.903 0 0 1-.84-.598 19.623 19.623 0 0 0-.626-1.51.904.904 0 0 1 .17-1.018l2.367-2.366a2.358 2.358 0 0 0 0-3.33L54.984 4.63a2.358 2.358 0 0 0-3.33 0l-2.366 2.365a.905.905 0 0 1-1.018.171c-.492-.228-1-.439-1.51-.625a.903.903 0 0 1-.598-.84V2.354A2.358 2.358 0 0 0 43.808 0h-7.616a2.357 2.357 0 0 0-2.355 2.355V5.7c0 .372-.24.71-.598.84-.51.187-1.018.398-1.51.626a.905.905 0 0 1-1.018-.17l-2.366-2.367a2.358 2.358 0 0 0-3.33 0l-5.385 5.386a2.358 2.358 0 0 0 0 3.33l2.365 2.366a.905.905 0 0 1 .172 1.018c-.229.492-.44 1-.626 1.51a.903.903 0 0 1-.84.598h-3.346A2.358 2.358 0 0 0 15 21.192v7.616a2.357 2.357 0 0 0 2.355 2.355H20.7c.372 0 .71.24.84.598.188.51.398 1.018.626 1.51a.904.904 0 0 1-.17 1.018l-2.366 2.366a2.358 2.358 0 0 0 0 3.33l5.385 5.385a2.358 2.358 0 0 0 3.33 0l2.366-2.365a.905.905 0 0 1 1.018-.172c.492.229 1 .44 1.51.626.358.13.598.469.598.84v3.346A2.357 2.357 0 0 0 36.192 50h7.616a2.357 2.357 0 0 0 2.355-2.355V44.3c0-.371.24-.71.598-.84.51-.187 1.018-.397 1.51-.626a.904.904 0 0 1 1.018.172l2.365 2.365a2.358 2.358 0 0 0 3.33 0l5.386-5.385a2.358 2.358 0 0 0 0-3.33l-2.365-2.366a.905.905 0 0 1-.172-1.018c.229-.492.44-1 .626-1.51a.903.903 0 0 1 .84-.598h3.346A2.357 2.357 0 0 0 65 28.808v-7.616a2.357 2.357 0 0 0-2.355-2.355zm.89 9.971c0 .49-.4.89-.89.89H59.3c-.984 0-1.875.627-2.216 1.56-.173.471-.368.941-.579 1.396a2.374 2.374 0 0 0 .464 2.67l2.366 2.366a.891.891 0 0 1 0 1.259l-5.386 5.386a.891.891 0 0 1-1.258 0l-2.366-2.366a2.374 2.374 0 0 0-2.67-.464c-.456.211-.926.406-1.398.578a2.373 2.373 0 0 0-1.559 2.216v3.346c0 .49-.4.89-.89.89h-7.616c-.49 0-.89-.4-.89-.89v-3.346c0-.984-.627-1.874-1.56-2.216a18.194 18.194 0 0 1-1.396-.578 2.38 2.38 0 0 0-2.67.464l-2.366 2.365a.891.891 0 0 1-1.259 0l-5.386-5.385a.891.891 0 0 1 0-1.259l2.366-2.365c.696-.696.883-1.77.464-2.671a18.173 18.173 0 0 1-.578-1.397 2.373 2.373 0 0 0-2.216-1.56h-3.346a.89.89 0 0 1-.89-.89v-7.615c0-.491.4-.89.89-.89H20.7c.985 0 1.875-.627 2.216-1.56.173-.471.368-.941.579-1.396a2.374 2.374 0 0 0-.464-2.671l-2.366-2.366a.891.891 0 0 1 0-1.258l5.386-5.386a.891.891 0 0 1 1.259 0l2.365 2.366c.696.696 1.77.882 2.67.464.456-.211.926-.406 1.398-.579A2.373 2.373 0 0 0 35.302 5.7V2.355c0-.49.4-.89.89-.89h7.616c.49 0 .89.4.89.89V5.7c0 .984.627 1.875 1.559 2.216.472.173.942.368 1.397.579a2.374 2.374 0 0 0 2.67-.464l2.366-2.366a.89.89 0 0 1 1.259 0l5.386 5.386a.891.891 0 0 1 0 1.258l-2.366 2.366a2.374 2.374 0 0 0-.464 2.67c.21.456.406.926.578 1.398a2.373 2.373 0 0 0 2.216 1.559h3.346c.49 0 .89.4.89.89v7.616z" fill="#000"/></g><defs><clipPath id="a"><path fill="#fff" transform="translate(15)" d="M0 0h50v50H0z"/></clipPath></defs></svg>