<svg width="70" height="70" viewBox="0 0 70 70" fill="none" xmlns="http://www.w3.org/2000/svg"><g opacity=".5" clip-path="url(#a)"><path d="M22.26 28a2.333 2.333 0 0 0 2.333-2.333v-2.334A2.333 2.333 0 0 0 22.26 21h-14a2.333 2.333 0 0 0-2.333 2.333v2.334A2.333 2.333 0 0 0 8.26 28h14zm-14-4.667h14v2.334h-14v-2.334z" fill="#D2D9DC"/><path d="M22.26 28a2.333 2.333 0 0 0 2.333-2.333v-2.334A2.333 2.333 0 0 0 22.26 21h-14a2.333 2.333 0 0 0-2.333 2.333v2.334A2.333 2.333 0 0 0 8.26 28h14zm-14-4.667h14v2.334h-14v-2.334z" fill="url(#b)"/><path d="M10.593 30.333a3.5 3.5 0 1 0 0 7 3.5 3.5 0 0 0 0-7zm0 4.667a1.167 1.167 0 1 1 0-2.333 1.167 1.167 0 0 1 0 2.333z" fill="#D2D9DC"/><path d="M10.593 30.333a3.5 3.5 0 1 0 0 7 3.5 3.5 0 0 0 0-7zm0 4.667a1.167 1.167 0 1 1 0-2.333 1.167 1.167 0 0 1 0 2.333z" fill="url(#c)"/><path d="M10.593 38.5a3.5 3.5 0 1 0 0 7 3.5 3.5 0 0 0 0-7zm0 4.667a1.167 1.167 0 1 1 0-2.334 1.167 1.167 0 0 1 0 2.334z" fill="#D2D9DC"/><path d="M10.593 38.5a3.5 3.5 0 1 0 0 7 3.5 3.5 0 0 0 0-7zm0 4.667a1.167 1.167 0 1 1 0-2.334 1.167 1.167 0 0 1 0 2.334z" fill="url(#d)"/><path d="M10.593 46.667a3.5 3.5 0 1 0 0 7 3.5 3.5 0 0 0 0-7zm0 4.666a1.167 1.167 0 1 1 0-2.333 1.167 1.167 0 0 1 0 2.333z" fill="#D2D9DC"/><path d="M10.593 46.667a3.5 3.5 0 1 0 0 7 3.5 3.5 0 0 0 0-7zm0 4.666a1.167 1.167 0 1 1 0-2.333 1.167 1.167 0 0 1 0 2.333z" fill="url(#e)"/><path d="M19.927 30.333a3.5 3.5 0 1 0 0 7 3.5 3.5 0 0 0 0-7zm0 4.667a1.167 1.167 0 1 1 0-2.333 1.167 1.167 0 0 1 0 2.333z" fill="#D2D9DC"/><path d="M19.927 30.333a3.5 3.5 0 1 0 0 7 3.5 3.5 0 0 0 0-7zm0 4.667a1.167 1.167 0 1 1 0-2.333 1.167 1.167 0 0 1 0 2.333z" fill="url(#f)"/><path d="M19.927 38.5a3.5 3.5 0 1 0 0 7 3.5 3.5 0 0 0 0-7zm0 4.667a1.167 1.167 0 1 1 0-2.334 1.167 1.167 0 0 1 0 2.334z" fill="#D2D9DC"/><path d="M19.927 38.5a3.5 3.5 0 1 0 0 7 3.5 3.5 0 0 0 0-7zm0 4.667a1.167 1.167 0 1 1 0-2.334 1.167 1.167 0 0 1 0 2.334z" fill="url(#g)"/><path d="M19.927 46.667a3.5 3.5 0 1 0 0 7 3.5 3.5 0 0 0 0-7zm0 4.666a1.167 1.167 0 1 1 0-2.333 1.167 1.167 0 0 1 0 2.333z" fill="#D2D9DC"/><path d="M19.927 46.667a3.5 3.5 0 1 0 0 7 3.5 3.5 0 0 0 0-7zm0 4.666a1.167 1.167 0 1 1 0-2.333 1.167 1.167 0 0 1 0 2.333z" fill="url(#h)"/><path d="M44.333 34.041V24.5l15.716 7.028a7 7 0 0 0 5.717-12.78L44.333 9.161v-.995a5.84 5.84 0 0 1 5.834-5.834 1.167 1.167 0 0 0 0-2.333H22.26a8.176 8.176 0 0 0-8.167 8.167v8.166H4.76a3.5 3.5 0 0 0-3.5 3.5v35a3.5 3.5 0 0 0 3.5 3.5h9.333v2.334H2.543a2.324 2.324 0 0 0-2.3 2.734A8.18 8.18 0 0 0 8.26 70h27.907a8.142 8.142 0 0 0 5.86-2.508 18.655 18.655 0 1 0 2.306-33.451zm-9.258-18.11l2.416-5.38 2.558-.03-3.28 7.329-1.694-1.92zm-4.731-5.367h4.585l-1.548 3.449-3.037-3.449zm9.722 5.641c6.95 3.108 6.517 2.959 6.865 2.959a1.167 1.167 0 0 0 .478-2.232l-6.39-2.862 1.429-3.196 15.974 7.145-1.428 3.195-5.326-2.382a1.167 1.167 0 0 0-.952 2.13l5.325 2.382-1.43 3.195-15.973-7.144 1.428-3.19zm22.615 3.724l-3.809 8.517-2.13-.952 3.81-8.517 2.13.952zm4.591 3.539a4.68 4.68 0 0 1-6.27 5.932l3.81-8.517a4.667 4.667 0 0 1 2.46 2.58v.005zM3.593 54.832v-35c0-.644.523-1.166 1.167-1.166h21c.644 0 1.167.522 1.167 1.166v35c0 .645-.523 1.167-1.167 1.167h-21a1.167 1.167 0 0 1-1.167-1.167zm-1.05 8.174h25.55a8.127 8.127 0 0 0 2.376 4.66H8.259a5.818 5.818 0 0 1-5.713-4.66h-.003zm27.858-.324a2.325 2.325 0 0 0-2.308-2.016H16.427v-2.334h9.333a3.5 3.5 0 0 0 3.5-3.5v-35a3.5 3.5 0 0 0-3.5-3.5h-9.333V8.167a5.84 5.84 0 0 1 5.833-5.834h22.19A8.145 8.145 0 0 0 42 8.193a1.326 1.326 0 0 0-.134-.026l-.021.024H27.767a1.195 1.195 0 0 0-.877 1.968c10.801 12.25 9.293 10.57 9.734 10.885L42 23.456v11.737a18.617 18.617 0 0 0-1.952 30.975 5.823 5.823 0 0 1-9.645-3.485h-.002zm20.932 4.984a16.333 16.333 0 1 1 16.334-16.334c-.01 9.017-7.317 16.324-16.334 16.334z" fill="#D2D9DC"/><path d="M44.333 34.041V24.5l15.716 7.028a7 7 0 0 0 5.717-12.78L44.333 9.161v-.995a5.84 5.84 0 0 1 5.834-5.834 1.167 1.167 0 0 0 0-2.333H22.26a8.176 8.176 0 0 0-8.167 8.167v8.166H4.76a3.5 3.5 0 0 0-3.5 3.5v35a3.5 3.5 0 0 0 3.5 3.5h9.333v2.334H2.543a2.324 2.324 0 0 0-2.3 2.734A8.18 8.18 0 0 0 8.26 70h27.907a8.142 8.142 0 0 0 5.86-2.508 18.655 18.655 0 1 0 2.306-33.451zm-9.258-18.11l2.416-5.38 2.558-.03-3.28 7.329-1.694-1.92zm-4.731-5.367h4.585l-1.548 3.449-3.037-3.449zm9.722 5.641c6.95 3.108 6.517 2.959 6.865 2.959a1.167 1.167 0 0 0 .478-2.232l-6.39-2.862 1.429-3.196 15.974 7.145-1.428 3.195-5.326-2.382a1.167 1.167 0 0 0-.952 2.13l5.325 2.382-1.43 3.195-15.973-7.144 1.428-3.19zm22.615 3.724l-3.809 8.517-2.13-.952 3.81-8.517 2.13.952zm4.591 3.539a4.68 4.68 0 0 1-6.27 5.932l3.81-8.517a4.667 4.667 0 0 1 2.46 2.58v.005zM3.593 54.832v-35c0-.644.523-1.166 1.167-1.166h21c.644 0 1.167.522 1.167 1.166v35c0 .645-.523 1.167-1.167 1.167h-21a1.167 1.167 0 0 1-1.167-1.167zm-1.05 8.174h25.55a8.127 8.127 0 0 0 2.376 4.66H8.259a5.818 5.818 0 0 1-5.713-4.66h-.003zm27.858-.324a2.325 2.325 0 0 0-2.308-2.016H16.427v-2.334h9.333a3.5 3.5 0 0 0 3.5-3.5v-35a3.5 3.5 0 0 0-3.5-3.5h-9.333V8.167a5.84 5.84 0 0 1 5.833-5.834h22.19A8.145 8.145 0 0 0 42 8.193a1.326 1.326 0 0 0-.134-.026l-.021.024H27.767a1.195 1.195 0 0 0-.877 1.968c10.801 12.25 9.293 10.57 9.734 10.885L42 23.456v11.737a18.617 18.617 0 0 0-1.952 30.975 5.823 5.823 0 0 1-9.645-3.485h-.002zm20.932 4.984a16.333 16.333 0 1 1 16.334-16.334c-.01 9.017-7.317 16.324-16.334 16.334z" fill="url(#i)"/><path d="M40.847 43.763a1.167 1.167 0 0 0-1.595.42 14.276 14.276 0 0 0-.62 13.106 1.167 1.167 0 1 0 2.12-.974 11.953 11.953 0 0 1 .518-10.957 1.167 1.167 0 0 0-.423-1.595z" fill="#D2D9DC"/><path d="M40.847 43.763a1.167 1.167 0 0 0-1.595.42 14.276 14.276 0 0 0-.62 13.106 1.167 1.167 0 1 0 2.12-.974 11.953 11.953 0 0 1 .518-10.957 1.167 1.167 0 0 0-.423-1.595z" fill="url(#j)"/><path d="M61.82 43.763a1.167 1.167 0 0 0-.423 1.595 11.952 11.952 0 0 1 .518 10.957 1.167 1.167 0 1 0 2.119.974 14.276 14.276 0 0 0-.62-13.105 1.167 1.167 0 0 0-1.595-.421z" fill="#D2D9DC"/><path d="M61.82 43.763a1.167 1.167 0 0 0-.423 1.595 11.952 11.952 0 0 1 .518 10.957 1.167 1.167 0 1 0 2.119.974 14.276 14.276 0 0 0-.62-13.105 1.167 1.167 0 0 0-1.595-.421z" fill="url(#k)"/></g><defs><linearGradient id="b" x1="17.764" y1="26.158" x2="14.011" y2="19.139" gradientUnits="userSpaceOnUse"><stop stop-color="#EDFAFF"/><stop offset="1" stop-color="#DCF2FB"/></linearGradient><linearGradient id="c" x1="11.532" y1="35.491" x2="7.29" y2="32.516" gradientUnits="userSpaceOnUse"><stop stop-color="#EDFAFF"/><stop offset="1" stop-color="#DCF2FB"/></linearGradient><linearGradient id="d" x1="11.532" y1="43.658" x2="7.29" y2="40.682" gradientUnits="userSpaceOnUse"><stop stop-color="#EDFAFF"/><stop offset="1" stop-color="#DCF2FB"/></linearGradient><linearGradient id="e" x1="11.532" y1="51.824" x2="7.29" y2="48.849" gradientUnits="userSpaceOnUse"><stop stop-color="#EDFAFF"/><stop offset="1" stop-color="#DCF2FB"/></linearGradient><linearGradient id="f" x1="20.866" y1="35.491" x2="16.623" y2="32.516" gradientUnits="userSpaceOnUse"><stop stop-color="#EDFAFF"/><stop offset="1" stop-color="#DCF2FB"/></linearGradient><linearGradient id="g" x1="20.866" y1="43.658" x2="16.623" y2="40.682" gradientUnits="userSpaceOnUse"><stop stop-color="#EDFAFF"/><stop offset="1" stop-color="#DCF2FB"/></linearGradient><linearGradient id="h" x1="20.866" y1="51.824" x2="16.623" y2="48.849" gradientUnits="userSpaceOnUse"><stop stop-color="#EDFAFF"/><stop offset="1" stop-color="#DCF2FB"/></linearGradient><linearGradient id="i" x1="44.466" y1="51.577" x2="2.081" y2="21.943" gradientUnits="userSpaceOnUse"><stop stop-color="#EDFAFF"/><stop offset="1" stop-color="#DCF2FB"/></linearGradient><linearGradient id="j" x1="39.929" y1="54.215" x2="36.368" y2="53.505" gradientUnits="userSpaceOnUse"><stop stop-color="#EDFAFF"/><stop offset="1" stop-color="#DCF2FB"/></linearGradient><linearGradient id="k" x1="63.836" y1="54.215" x2="60.275" y2="53.505" gradientUnits="userSpaceOnUse"><stop stop-color="#EDFAFF"/><stop offset="1" stop-color="#DCF2FB"/></linearGradient><clipPath id="a"><path fill="#fff" d="M0 0h70v70H0z"/></clipPath></defs></svg>