<svg width="68" height="70" viewBox="0 0 68 70" fill="none" xmlns="http://www.w3.org/2000/svg"><g opacity=".5"><path d="M22.167 70h42a3.5 3.5 0 0 0 3.5-3.5v-56C67.66 4.704 62.963.007 57.167 0H10.5C4.704.007.007 4.704 0 10.5v15.167a3.5 3.5 0 0 0 3.5 3.5h15.167V66.5a3.5 3.5 0 0 0 3.5 3.5zm35-67.667a8.176 8.176 0 0 1 8.166 8.167v56c0 .644-.522 1.167-1.166 1.167h-42A1.167 1.167 0 0 1 21 66.5v-56c0-3.173-1.436-6.176-3.907-8.167h40.074zM3.5 26.833a1.167 1.167 0 0 1-1.167-1.166V10.5a8.167 8.167 0 0 1 16.334 0v16.333H3.5z" fill="#D2D9DC"/><path d="M22.167 70h42a3.5 3.5 0 0 0 3.5-3.5v-56C67.66 4.704 62.963.007 57.167 0H10.5C4.704.007.007 4.704 0 10.5v15.167a3.5 3.5 0 0 0 3.5 3.5h15.167V66.5a3.5 3.5 0 0 0 3.5 3.5zm35-67.667a8.176 8.176 0 0 1 8.166 8.167v56c0 .644-.522 1.167-1.166 1.167h-42A1.167 1.167 0 0 1 21 66.5v-56c0-3.173-1.436-6.176-3.907-8.167h40.074zM3.5 26.833a1.167 1.167 0 0 1-1.167-1.166V10.5a8.167 8.167 0 0 1 16.334 0v16.333H3.5z" fill="url(#a)"/><path d="M25.667 65.334h35A2.333 2.333 0 0 0 63 63V30.334A2.333 2.333 0 0 0 60.667 28h-35a2.333 2.333 0 0 0-2.334 2.334V63a2.333 2.333 0 0 0 2.334 2.334zm16.333-21h18.667V49H42v-4.666zm0 7h18.667V56H42v-4.666zM60.667 42H42v-4.666h18.667V42zm-21 0h-14v-4.666h14V42zm-14 21V44.334h14V63h-14zM42 63v-4.666h18.667V63H42zm18.667-28H42v-4.666h18.667V35zm-21-4.666V35h-14v-4.666h14z" fill="#D2D9DC"/><path d="M25.667 65.334h35A2.333 2.333 0 0 0 63 63V30.334A2.333 2.333 0 0 0 60.667 28h-35a2.333 2.333 0 0 0-2.334 2.334V63a2.333 2.333 0 0 0 2.334 2.334zm16.333-21h18.667V49H42v-4.666zm0 7h18.667V56H42v-4.666zM60.667 42H42v-4.666h18.667V42zm-21 0h-14v-4.666h14V42zm-14 21V44.334h14V63h-14zM42 63v-4.666h18.667V63H42zm18.667-28H42v-4.666h18.667V35zm-21-4.666V35h-14v-4.666h14z" fill="url(#b)"/><path d="M25.667 8.167h14a1.167 1.167 0 0 0 0-2.334h-14a1.167 1.167 0 1 0 0 2.334z" fill="#D2D9DC"/><path d="M25.667 8.167h14a1.167 1.167 0 0 0 0-2.334h-14a1.167 1.167 0 1 0 0 2.334z" fill="url(#c)"/><path d="M25.667 12.833h10.5a1.167 1.167 0 1 0 0-2.333h-10.5a1.167 1.167 0 1 0 0 2.333z" fill="#D2D9DC"/><path d="M25.667 12.833h10.5a1.167 1.167 0 1 0 0-2.333h-10.5a1.167 1.167 0 1 0 0 2.333z" fill="url(#d)"/><path d="M25.667 17.5H45.5a1.167 1.167 0 1 0 0-2.333H25.667a1.167 1.167 0 1 0 0 2.333z" fill="#D2D9DC"/><path d="M25.667 17.5H45.5a1.167 1.167 0 1 0 0-2.333H25.667a1.167 1.167 0 1 0 0 2.333z" fill="url(#e)"/><path d="M25.667 22.166h10.5a1.167 1.167 0 1 0 0-2.333h-10.5a1.167 1.167 0 1 0 0 2.334z" fill="#D2D9DC"/><path d="M25.667 22.166h10.5a1.167 1.167 0 1 0 0-2.333h-10.5a1.167 1.167 0 1 0 0 2.334z" fill="url(#f)"/><path d="M39.667 11.667c0 .644.522 1.166 1.166 1.166h19.834a1.167 1.167 0 1 0 0-2.333H40.833c-.644 0-1.166.522-1.166 1.167z" fill="#D2D9DC"/><path d="M39.667 11.667c0 .644.522 1.166 1.166 1.166h19.834a1.167 1.167 0 1 0 0-2.333H40.833c-.644 0-1.166.522-1.166 1.167z" fill="url(#g)"/><path d="M60.667 15.167h-10.5a1.167 1.167 0 0 0 0 2.333h10.5a1.167 1.167 0 1 0 0-2.333z" fill="#D2D9DC"/><path d="M60.667 15.167h-10.5a1.167 1.167 0 0 0 0 2.333h10.5a1.167 1.167 0 1 0 0-2.333z" fill="url(#h)"/><path d="M60.667 19.833H40.833a1.167 1.167 0 0 0 0 2.334h19.834a1.167 1.167 0 1 0 0-2.334z" fill="#D2D9DC"/><path d="M60.667 19.833H40.833a1.167 1.167 0 0 0 0 2.334h19.834a1.167 1.167 0 1 0 0-2.334z" fill="url(#i)"/></g><defs><linearGradient id="a" x1="42.911" y1="51.577" x2=".992" y2="23.16" gradientUnits="userSpaceOnUse"><stop stop-color="#EDFAFF"/><stop offset="1" stop-color="#DCF2FB"/></linearGradient><linearGradient id="b" x1="48.488" y1="55.508" x2="25.426" y2="38.324" gradientUnits="userSpaceOnUse"><stop stop-color="#EDFAFF"/><stop offset="1" stop-color="#DCF2FB"/></linearGradient><linearGradient id="c" x1="34.858" y1="7.553" x2="34.27" y2="4.664" gradientUnits="userSpaceOnUse"><stop stop-color="#EDFAFF"/><stop offset="1" stop-color="#DCF2FB"/></linearGradient><linearGradient id="d" x1="32.638" y1="12.219" x2="31.907" y2="9.4" gradientUnits="userSpaceOnUse"><stop stop-color="#EDFAFF"/><stop offset="1" stop-color="#DCF2FB"/></linearGradient><linearGradient id="e" x1="38.557" y1="16.886" x2="38.115" y2="13.944" gradientUnits="userSpaceOnUse"><stop stop-color="#EDFAFF"/><stop offset="1" stop-color="#DCF2FB"/></linearGradient><linearGradient id="f" x1="32.638" y1="21.552" x2="31.907" y2="18.733" gradientUnits="userSpaceOnUse"><stop stop-color="#EDFAFF"/><stop offset="1" stop-color="#DCF2FB"/></linearGradient><linearGradient id="g" x1="53.724" y1="12.219" x2="53.282" y2="9.277" gradientUnits="userSpaceOnUse"><stop stop-color="#EDFAFF"/><stop offset="1" stop-color="#DCF2FB"/></linearGradient><linearGradient id="h" x1="57.139" y1="16.886" x2="56.408" y2="14.067" gradientUnits="userSpaceOnUse"><stop stop-color="#EDFAFF"/><stop offset="1" stop-color="#DCF2FB"/></linearGradient><linearGradient id="i" x1="53.724" y1="21.552" x2="53.282" y2="18.61" gradientUnits="userSpaceOnUse"><stop stop-color="#EDFAFF"/><stop offset="1" stop-color="#DCF2FB"/></linearGradient></defs></svg>