<svg width="70" height="70" viewBox="0 0 70 70" fill="none" xmlns="http://www.w3.org/2000/svg"><g opacity=".5"><path d="M32.067 14.042l-2.637-.88.388-1.362a7.843 7.843 0 0 0-4.64-9.462l-1.072-.428-3.159 8.425-2.636-.878L21.739 0h-3.153C12.03 0 6.693 5.336 6.693 11.893c0 3.54 1.56 6.87 4.28 9.137l2.494 2.08v2.822l-1.129 35.036v1.129c0 4.357 3.545 7.903 7.903 7.903s7.904-3.546 7.904-7.903v-1.165l-1.13-34.964V22.88l5.052-8.84zm-6.699-9.067a5.59 5.59 0 0 1 2.28 6.206l-.362 1.267-4.195-1.398 2.277-6.075zm.519 55.993v1.129a5.652 5.652 0 0 1-5.646 5.645 5.652 5.652 0 0 1-5.645-5.645v-1.093l1.13-35.036v-3.916l-3.308-2.756a9.61 9.61 0 0 1-3.467-7.403c0-5.29 4.285-9.598 9.566-9.635l-3.12 8.608 13.342 4.447-3.981 6.967v3.724l1.129 34.964z" fill="#D2D9DC"/><path d="M32.067 14.042l-2.637-.88.388-1.362a7.843 7.843 0 0 0-4.64-9.462l-1.072-.428-3.159 8.425-2.636-.878L21.739 0h-3.153C12.03 0 6.693 5.336 6.693 11.893c0 3.54 1.56 6.87 4.28 9.137l2.494 2.08v2.822l-1.129 35.036v1.129c0 4.357 3.545 7.903 7.903 7.903s7.904-3.546 7.904-7.903v-1.165l-1.13-34.964V22.88l5.052-8.84zm-6.699-9.067a5.59 5.59 0 0 1 2.28 6.206l-.362 1.267-4.195-1.398 2.277-6.075zm.519 55.993v1.129a5.652 5.652 0 0 1-5.646 5.645 5.652 5.652 0 0 1-5.645-5.645v-1.093l1.13-35.036v-3.916l-3.308-2.756a9.61 9.61 0 0 1-3.467-7.403c0-5.29 4.285-9.598 9.566-9.635l-3.12 8.608 13.342 4.447-3.981 6.967v3.724l1.129 34.964z" fill="url(#a)"/><path d="M20.241 58.71a3.391 3.391 0 0 0-3.387 3.387 3.391 3.391 0 0 0 3.387 3.387 3.391 3.391 0 0 0 3.388-3.387 3.391 3.391 0 0 0-3.388-3.387zm0 4.516a1.13 1.13 0 0 1 0-2.258 1.13 1.13 0 0 1 0 2.258z" fill="#D2D9DC"/><path d="M20.241 58.71a3.391 3.391 0 0 0-3.387 3.387 3.391 3.391 0 0 0 3.387 3.387 3.391 3.391 0 0 0 3.388-3.387 3.391 3.391 0 0 0-3.388-3.387zm0 4.516a1.13 1.13 0 0 1 0-2.258 1.13 1.13 0 0 1 0 2.258z" fill="url(#b)"/><path d="M16.14 13.25l-1.843 5.528 8.916 2.973 1.844-5.529-8.916-2.973zm5.646 5.644l-4.632-1.543.414-1.245 4.633 1.543-.415 1.245z" fill="#D2D9DC"/><path d="M16.14 13.25l-1.843 5.528 8.916 2.973 1.844-5.529-8.916-2.973zm5.646 5.644l-4.632-1.543.414-1.245 4.633 1.543-.415 1.245z" fill="url(#c)"/><path d="M20.241 24.839a3.391 3.391 0 0 0-3.387 3.387v24.839a3.391 3.391 0 0 0 3.387 3.387 3.391 3.391 0 0 0 3.388-3.387v-24.84a3.391 3.391 0 0 0-3.388-3.386zm1.13 28.226a1.13 1.13 0 0 1-2.259 0v-24.84a1.13 1.13 0 0 1 1.13-1.128 1.13 1.13 0 0 1 1.128 1.129v24.839z" fill="#D2D9DC"/><path d="M20.241 24.839a3.391 3.391 0 0 0-3.387 3.387v24.839a3.391 3.391 0 0 0 3.387 3.387 3.391 3.391 0 0 0 3.388-3.387v-24.84a3.391 3.391 0 0 0-3.388-3.386zm1.13 28.226a1.13 1.13 0 0 1-2.259 0v-24.84a1.13 1.13 0 0 1 1.13-1.128 1.13 1.13 0 0 1 1.128 1.129v24.839z" fill="url(#d)"/><path d="M57.034 22.58l6.273-11.29L57.034 0H44.416l-6.273 11.29 6.273 11.29h12.618zM45.744 2.259h9.961l5.018 9.032-5.018 9.033h-9.961l-5.017-9.033 5.017-9.032z" fill="#D2D9DC"/><path d="M57.034 22.58l6.273-11.29L57.034 0H44.416l-6.273 11.29 6.273 11.29h12.618zM45.744 2.259h9.961l5.018 9.032-5.018 9.033h-9.961l-5.017-9.033 5.017-9.032z" fill="url(#e)"/><path d="M50.725 18.064A6.78 6.78 0 0 0 57.5 11.29a6.78 6.78 0 0 0-6.774-6.774 6.78 6.78 0 0 0-6.774 6.774 6.78 6.78 0 0 0 6.774 6.774zm0-11.29a4.52 4.52 0 0 1 4.517 4.516 4.52 4.52 0 0 1-4.517 4.517 4.52 4.52 0 0 1-4.516-4.517 4.52 4.52 0 0 1 4.516-4.516z" fill="#D2D9DC"/><path d="M50.725 18.064A6.78 6.78 0 0 0 57.5 11.29a6.78 6.78 0 0 0-6.774-6.774 6.78 6.78 0 0 0-6.774 6.774 6.78 6.78 0 0 0 6.774 6.774zm0-11.29a4.52 4.52 0 0 1 4.517 4.516 4.52 4.52 0 0 1-4.517 4.517 4.52 4.52 0 0 1-4.516-4.517 4.52 4.52 0 0 1 4.516-4.516z" fill="url(#f)"/><path d="M38.306 38.387h5.645V70H57.5V38.387h5.645v-11.29h-24.84v11.29zm18.064-9.032h4.517v6.774H56.37v-6.774zm-9.032 0h6.774v6.774h-6.774v-6.774zm-1.129 9.032h9.032v1.332l-9.032 1.807v-3.139zm0 5.442l9.032-1.806v3.341l-9.032 1.807v-3.342zm0 5.645l9.032-1.806v3.342l-9.032 1.806v-3.342zm0 5.645l9.032-1.806v3.342L46.21 58.46v-3.34zm0 5.646l9.032-1.807V62.3l-9.032 1.806v-3.341zm0 5.645l9.032-1.807v3.139H46.21V66.41zm-5.645-37.055h4.516v6.774h-4.516v-6.774z" fill="#D2D9DC"/><path d="M38.306 38.387h5.645V70H57.5V38.387h5.645v-11.29h-24.84v11.29zm18.064-9.032h4.517v6.774H56.37v-6.774zm-9.032 0h6.774v6.774h-6.774v-6.774zm-1.129 9.032h9.032v1.332l-9.032 1.807v-3.139zm0 5.442l9.032-1.806v3.341l-9.032 1.807v-3.342zm0 5.645l9.032-1.806v3.342l-9.032 1.806v-3.342zm0 5.645l9.032-1.806v3.342L46.21 58.46v-3.34zm0 5.646l9.032-1.807V62.3l-9.032 1.806v-3.341zm0 5.645l9.032-1.807v3.139H46.21V66.41zm-5.645-37.055h4.516v6.774h-4.516v-6.774z" fill="url(#g)"/></g><defs><linearGradient id="a" x1="22.784" y1="51.577" x2="1.234" y2="46.099" gradientUnits="userSpaceOnUse"><stop stop-color="#EDFAFF"/><stop offset="1" stop-color="#DCF2FB"/></linearGradient><linearGradient id="b" x1="21.15" y1="63.701" x2="17.044" y2="60.822" gradientUnits="userSpaceOnUse"><stop stop-color="#EDFAFF"/><stop offset="1" stop-color="#DCF2FB"/></linearGradient><linearGradient id="c" x1="21.12" y1="19.513" x2="15.678" y2="14.683" gradientUnits="userSpaceOnUse"><stop stop-color="#EDFAFF"/><stop offset="1" stop-color="#DCF2FB"/></linearGradient><linearGradient id="d" x1="21.15" y1="48.131" x2="15.16" y2="47.231" gradientUnits="userSpaceOnUse"><stop stop-color="#EDFAFF"/><stop offset="1" stop-color="#DCF2FB"/></linearGradient><linearGradient id="e" x1="54.101" y1="16.638" x2="39.975" y2="5.599" gradientUnits="userSpaceOnUse"><stop stop-color="#EDFAFF"/><stop offset="1" stop-color="#DCF2FB"/></linearGradient><linearGradient id="f" x1="52.543" y1="14.499" x2="44.331" y2="8.74" gradientUnits="userSpaceOnUse"><stop stop-color="#EDFAFF"/><stop offset="1" stop-color="#DCF2FB"/></linearGradient><linearGradient id="g" x1="54.058" y1="58.708" x2="34.777" y2="50.88" gradientUnits="userSpaceOnUse"><stop stop-color="#EDFAFF"/><stop offset="1" stop-color="#DCF2FB"/></linearGradient></defs></svg>